<svg xmlns="http://www.w3.org/2000/svg" xmlns:xlink="http://www.w3.org/1999/xlink" width="500" zoomAndPan="magnify" viewBox="0 0 375 374.999991" height="500" preserveAspectRatio="xMidYMid meet" version="1.0"><path fill="#ffcc9c" d="M 47.121094 201.039062 C 72.324219 174.496094 24.839844 125.050781 36.644531 89.328125 C 52.539062 41.234375 181.835938 0.00390625 268.867188 52.359375 C 341.746094 96.203125 367.058594 194.898438 335.214844 234.792969 C 325.6875 246.730469 313.828125 249.90625 298.253906 262.394531 C 283.765625 274.007812 282.132812 276.972656 281.089844 278.996094 C 270.785156 298.941406 292.457031 316.445312 288.09375 333.554688 C 281.203125 360.585938 212.292969 375.003906 154.664062 365.859375 C 139.125 363.390625 60.375 349.042969 31.40625 289.441406 C 29.167969 284.828125 7.960938 240.285156 27.914062 215.503906 C 34.835938 206.910156 40.402344 208.117188 47.121094 201.039062 " fill-opacity="1" fill-rule="nonzero"/><path fill="#ff914d" d="M 359.347656 268.070312 C 359.347656 250.820312 345.660156 236.769531 328.550781 236.183594 C 319.976562 199.007812 286.675781 171.292969 246.898438 171.292969 C 205.71875 171.292969 171.480469 200.996094 164.433594 240.140625 C 147.960938 241.816406 135.109375 255.726562 135.109375 272.640625 C 135.109375 272.714844 135.109375 272.792969 135.109375 272.867188 C 135.1875 283.921875 144.246094 292.8125 155.304688 292.8125 L 334.492188 292.8125 C 347.855469 292.8125 359 282.257812 359.335938 268.902344 C 359.34375 268.625 359.347656 268.347656 359.347656 268.070312 " fill-opacity="1" fill-rule="nonzero"/><path fill="#000000" d="M 303.117188 201.949219 L 198.519531 201.949219 C 198.179688 201.949219 197.90625 201.671875 197.90625 201.332031 C 197.90625 200.992188 198.179688 200.71875 198.519531 200.71875 L 303.117188 200.71875 C 312.835938 200.71875 322.054688 197.019531 329.066406 190.300781 C 336.128906 183.539062 340.152344 174.476562 340.398438 164.785156 C 340.40625 164.386719 340.414062 163.980469 340.414062 163.578125 C 340.414062 154.933594 338.046875 146.507812 333.574219 139.207031 C 333.394531 138.917969 333.484375 138.539062 333.777344 138.359375 C 334.066406 138.183594 334.445312 138.273438 334.621094 138.5625 C 339.214844 146.058594 341.644531 154.707031 341.644531 163.578125 C 341.644531 163.992188 341.640625 164.40625 341.628906 164.816406 C 341.371094 174.835938 337.214844 184.203125 329.917969 191.1875 C 322.671875 198.128906 313.15625 201.949219 303.117188 201.949219 " fill-opacity="1" fill-rule="nonzero"/><path fill="#000000" d="M 321.464844 125.839844 C 321.339844 125.839844 321.214844 125.800781 321.105469 125.722656 C 314.566406 120.96875 306.851562 117.996094 298.800781 117.121094 C 298.542969 117.09375 298.335938 116.910156 298.269531 116.664062 C 294.097656 100.777344 286.347656 85.582031 275.855469 72.722656 C 275.640625 72.460938 275.679688 72.074219 275.941406 71.855469 C 276.207031 71.644531 276.59375 71.683594 276.808594 71.945312 C 287.320312 84.828125 295.109375 100.03125 299.351562 115.941406 C 307.464844 116.898438 315.230469 119.929688 321.828125 124.726562 C 322.101562 124.925781 322.164062 125.3125 321.960938 125.585938 C 321.84375 125.75 321.65625 125.839844 321.464844 125.839844 " fill-opacity="1" fill-rule="nonzero"/><path fill="#000000" d="M 272.964844 69 C 272.792969 69 272.625 68.933594 272.5 68.796875 C 270.863281 66.957031 269.140625 65.148438 267.386719 63.417969 C 267.148438 63.179688 267.144531 62.789062 267.382812 62.546875 C 267.621094 62.304688 268.011719 62.304688 268.253906 62.542969 C 270.023438 64.289062 271.765625 66.117188 273.421875 67.976562 C 273.648438 68.230469 273.625 68.617188 273.371094 68.84375 C 273.253906 68.949219 273.109375 69 272.964844 69 " fill-opacity="1" fill-rule="nonzero"/><path fill="#000000" d="M 229.273438 38.390625 C 229.195312 38.390625 229.121094 38.378906 229.046875 38.34375 C 215.214844 32.816406 200.6875 30.011719 185.875 30.011719 C 185.246094 30.011719 184.617188 30.019531 183.988281 30.027344 C 183.652344 30.03125 183.367188 29.765625 183.363281 29.421875 C 183.359375 29.082031 183.628906 28.804688 183.96875 28.796875 C 184.601562 28.789062 185.238281 28.78125 185.875 28.78125 C 200.84375 28.78125 215.523438 31.617188 229.503906 37.203125 C 229.816406 37.328125 229.972656 37.6875 229.847656 38.003906 C 229.75 38.242188 229.519531 38.390625 229.273438 38.390625 " fill-opacity="1" fill-rule="nonzero"/><path fill="#000000" d="M 128.984375 44.804688 C 128.769531 44.804688 128.558594 44.691406 128.445312 44.492188 C 128.28125 44.191406 128.386719 43.816406 128.683594 43.652344 C 140.292969 37.183594 152.820312 32.757812 165.925781 30.492188 C 166.257812 30.4375 166.578125 30.660156 166.636719 30.996094 C 166.695312 31.332031 166.46875 31.652344 166.132812 31.707031 C 153.167969 33.949219 140.769531 38.328125 129.285156 44.730469 C 129.1875 44.78125 129.085938 44.804688 128.984375 44.804688 " fill-opacity="1" fill-rule="nonzero"/><path fill="#000000" d="M 122.992188 48.386719 C 122.789062 48.386719 122.589844 48.285156 122.472656 48.101562 C 122.289062 47.8125 122.375 47.433594 122.660156 47.25 C 124.621094 46 126.648438 44.789062 128.683594 43.652344 C 128.980469 43.488281 129.355469 43.59375 129.523438 43.890625 C 129.6875 44.1875 129.582031 44.5625 129.285156 44.726562 C 127.269531 45.851562 125.261719 47.050781 123.320312 48.289062 C 123.21875 48.355469 123.105469 48.386719 122.992188 48.386719 " fill-opacity="1" fill-rule="nonzero"/><path fill="#000000" d="M 52.859375 130.246094 C 52.664062 130.246094 52.46875 130.152344 52.351562 129.976562 C 52.160156 129.695312 52.234375 129.3125 52.515625 129.121094 C 58.144531 125.304688 64.382812 122.746094 71.0625 121.519531 C 73.199219 111.542969 76.65625 101.859375 81.339844 92.726562 C 81.492188 92.425781 81.863281 92.304688 82.167969 92.460938 C 82.46875 92.613281 82.589844 92.984375 82.433594 93.289062 C 77.738281 102.445312 74.289062 112.167969 72.179688 122.175781 C 72.128906 122.425781 71.933594 122.613281 71.683594 122.65625 C 65.023438 123.824219 58.804688 126.34375 53.207031 130.140625 C 53.097656 130.214844 52.980469 130.246094 52.859375 130.246094 " fill-opacity="1" fill-rule="nonzero"/><path fill="#000000" d="M 92.070312 201.949219 L 63.28125 201.949219 C 45.597656 201.949219 31.113281 187.628906 30.992188 170.027344 L 30.992188 169.6875 C 30.992188 157.480469 35.511719 145.785156 43.714844 136.753906 C 44.191406 136.234375 44.683594 135.714844 45.175781 135.21875 C 45.414062 134.976562 45.804688 134.972656 46.046875 135.214844 C 46.289062 135.453125 46.289062 135.84375 46.050781 136.082031 C 45.570312 136.570312 45.089844 137.074219 44.628906 137.582031 C 36.628906 146.382812 32.222656 157.789062 32.222656 169.6875 L 32.226562 170.023438 C 32.339844 186.945312 46.273438 200.714844 63.28125 200.714844 L 92.070312 200.714844 C 92.410156 200.714844 92.6875 200.992188 92.6875 201.332031 C 92.6875 201.671875 92.410156 201.949219 92.070312 201.949219 " fill-opacity="1" fill-rule="nonzero"/><path fill="#ffffff" d="M 336.386719 163.574219 C 336.386719 140.484375 318.0625 121.675781 295.167969 120.894531 C 283.691406 71.136719 239.117188 34.042969 185.875 34.042969 C 130.761719 34.042969 84.933594 73.796875 75.5 126.191406 C 53.453125 128.429688 36.25 147.050781 36.25 169.6875 C 36.25 169.789062 36.25 169.890625 36.25 169.992188 C 36.351562 184.792969 48.480469 196.691406 63.28125 196.691406 L 303.121094 196.691406 C 321.003906 196.691406 335.917969 182.5625 336.375 164.683594 C 336.386719 164.316406 336.386719 163.945312 336.386719 163.574219 " fill-opacity="1" fill-rule="nonzero"/><path fill="#000000" d="M 185.875 34.65625 C 131.832031 34.65625 85.667969 73.195312 76.105469 126.300781 C 76.054688 126.570312 75.835938 126.777344 75.5625 126.804688 C 53.5 129.046875 36.867188 147.480469 36.867188 169.6875 L 36.867188 169.988281 C 36.964844 184.371094 48.816406 196.074219 63.28125 196.074219 L 303.117188 196.074219 C 320.675781 196.074219 335.320312 181.984375 335.761719 164.667969 C 335.769531 164.304688 335.773438 163.9375 335.773438 163.574219 C 335.773438 140.765625 317.929688 122.289062 295.144531 121.507812 C 294.867188 121.5 294.628906 121.304688 294.570312 121.03125 C 282.839844 70.171875 238.144531 34.65625 185.875 34.65625 Z M 303.117188 197.304688 L 63.28125 197.304688 C 48.140625 197.304688 35.738281 185.054688 35.636719 169.996094 L 35.636719 169.6875 C 35.636719 158.636719 39.726562 148.050781 47.152344 139.875 C 54.421875 131.875 64.289062 126.828125 74.976562 125.628906 C 79.679688 100.121094 93.226562 76.828125 113.160156 59.996094 C 133.453125 42.859375 159.277344 33.421875 185.875 33.421875 C 198.96875 33.421875 211.800781 35.648438 224.007812 40.035156 C 235.808594 44.273438 246.765625 50.425781 256.570312 58.328125 C 276.089844 74.050781 289.957031 96.042969 295.660156 120.296875 C 306.734375 120.792969 317.070312 125.449219 324.808594 133.441406 C 332.675781 141.5625 337.007812 152.265625 337.007812 163.574219 C 337.007812 163.949219 337 164.324219 336.992188 164.699219 C 336.765625 173.484375 333.117188 181.699219 326.707031 187.835938 C 320.332031 193.941406 311.957031 197.304688 303.117188 197.304688 " fill-opacity="1" fill-rule="nonzero"/><path fill="#ff914d" d="M 146.324219 88.078125 L 120.449219 88.078125 C 118.601562 88.078125 117.105469 89.578125 117.105469 91.425781 L 117.105469 167.707031 C 117.105469 169.554688 118.601562 171.054688 120.449219 171.054688 L 146.324219 171.054688 C 148.171875 171.054688 149.671875 169.554688 149.671875 167.707031 L 149.671875 91.425781 C 149.671875 89.578125 148.171875 88.078125 146.324219 88.078125 " fill-opacity="1" fill-rule="nonzero"/><path fill="#000000" d="M 120.449219 88.699219 C 118.945312 88.699219 117.71875 89.921875 117.71875 91.429688 L 117.71875 167.707031 C 117.71875 169.214844 118.945312 170.4375 120.449219 170.4375 L 146.324219 170.4375 C 147.832031 170.4375 149.058594 169.214844 149.058594 167.707031 L 149.058594 91.429688 C 149.058594 89.921875 147.832031 88.699219 146.324219 88.699219 Z M 146.324219 171.671875 L 120.449219 171.671875 C 118.265625 171.671875 116.488281 169.894531 116.488281 167.707031 L 116.488281 91.429688 C 116.488281 89.242188 118.265625 87.464844 120.449219 87.464844 L 146.324219 87.464844 C 148.511719 87.464844 150.289062 89.242188 150.289062 91.429688 L 150.289062 167.707031 C 150.289062 169.894531 148.511719 171.671875 146.324219 171.671875 " fill-opacity="1" fill-rule="nonzero"/><path fill="#ffcc9c" d="M 126.355469 88.078125 L 114.894531 88.078125 C 113.042969 88.078125 111.546875 89.578125 111.546875 91.425781 L 111.546875 167.707031 C 111.546875 169.554688 113.042969 171.054688 114.894531 171.054688 L 126.355469 171.054688 C 128.203125 171.054688 129.703125 169.554688 129.703125 167.707031 L 129.703125 91.425781 C 129.703125 89.578125 128.203125 88.078125 126.355469 88.078125 " fill-opacity="1" fill-rule="nonzero"/><path fill="#000000" d="M 114.890625 88.699219 C 113.386719 88.699219 112.160156 89.921875 112.160156 91.429688 L 112.160156 167.707031 C 112.160156 169.214844 113.386719 170.4375 114.890625 170.4375 L 126.355469 170.4375 C 127.863281 170.4375 129.085938 169.214844 129.085938 167.707031 L 129.085938 91.429688 C 129.085938 89.921875 127.863281 88.699219 126.355469 88.699219 Z M 126.355469 171.671875 L 114.890625 171.671875 C 112.707031 171.671875 110.929688 169.894531 110.929688 167.707031 L 110.929688 91.429688 C 110.929688 89.242188 112.707031 87.464844 114.890625 87.464844 L 126.355469 87.464844 C 128.539062 87.464844 130.320312 89.242188 130.320312 91.429688 L 130.320312 167.707031 C 130.320312 169.894531 128.539062 171.671875 126.355469 171.671875 " fill-opacity="1" fill-rule="nonzero"/><path fill="#ff914d" d="M 125.570312 155.925781 C 125.570312 158.65625 123.355469 160.871094 120.625 160.871094 C 117.894531 160.871094 115.679688 158.65625 115.679688 155.925781 C 115.679688 153.195312 117.894531 150.980469 120.625 150.980469 C 123.355469 150.980469 125.570312 153.195312 125.570312 155.925781 " fill-opacity="1" fill-rule="nonzero"/><path fill="#000000" d="M 120.625 151.597656 C 118.238281 151.597656 116.296875 153.539062 116.296875 155.925781 C 116.296875 158.3125 118.238281 160.257812 120.625 160.257812 C 123.011719 160.257812 124.953125 158.3125 124.953125 155.925781 C 124.953125 153.539062 123.011719 151.597656 120.625 151.597656 Z M 120.625 161.488281 C 117.558594 161.488281 115.0625 158.992188 115.0625 155.925781 C 115.0625 152.863281 117.558594 150.367188 120.625 150.367188 C 123.691406 150.367188 126.183594 152.863281 126.183594 155.925781 C 126.183594 158.992188 123.691406 161.488281 120.625 161.488281 " fill-opacity="1" fill-rule="nonzero"/><path fill="#ff914d" d="M 168.851562 88.078125 L 142.976562 88.078125 C 141.128906 88.078125 139.628906 89.578125 139.628906 91.425781 L 139.628906 167.707031 C 139.628906 169.554688 141.128906 171.054688 142.976562 171.054688 L 168.851562 171.054688 C 170.699219 171.054688 172.195312 169.554688 172.195312 167.707031 L 172.195312 91.425781 C 172.195312 89.578125 170.699219 88.078125 168.851562 88.078125 " fill-opacity="1" fill-rule="nonzero"/><path fill="#000000" d="M 142.976562 88.699219 C 141.46875 88.699219 140.242188 89.921875 140.242188 91.429688 L 140.242188 167.707031 C 140.242188 169.214844 141.46875 170.4375 142.976562 170.4375 L 168.847656 170.4375 C 170.355469 170.4375 171.578125 169.214844 171.578125 167.707031 L 171.578125 91.429688 C 171.578125 89.921875 170.355469 88.699219 168.847656 88.699219 Z M 168.847656 171.671875 L 142.976562 171.671875 C 140.789062 171.671875 139.011719 169.894531 139.011719 167.707031 L 139.011719 91.429688 C 139.011719 89.242188 140.789062 87.464844 142.976562 87.464844 L 168.847656 87.464844 C 171.035156 87.464844 172.8125 89.242188 172.8125 91.429688 L 172.8125 167.707031 C 172.8125 169.894531 171.035156 171.671875 168.847656 171.671875 " fill-opacity="1" fill-rule="nonzero"/><path fill="#ffcc9c" d="M 148.878906 88.078125 L 137.417969 88.078125 C 135.570312 88.078125 134.070312 89.578125 134.070312 91.425781 L 134.070312 167.707031 C 134.070312 169.554688 135.570312 171.054688 137.417969 171.054688 L 148.878906 171.054688 C 150.730469 171.054688 152.226562 169.554688 152.226562 167.707031 L 152.226562 91.425781 C 152.226562 89.578125 150.730469 88.078125 148.878906 88.078125 " fill-opacity="1" fill-rule="nonzero"/><path fill="#000000" d="M 137.417969 88.699219 C 135.910156 88.699219 134.683594 89.921875 134.683594 91.429688 L 134.683594 167.707031 C 134.683594 169.214844 135.910156 170.4375 137.417969 170.4375 L 148.878906 170.4375 C 150.386719 170.4375 151.613281 169.214844 151.613281 167.707031 L 151.613281 91.429688 C 151.613281 89.921875 150.386719 88.699219 148.878906 88.699219 Z M 148.878906 171.671875 L 137.417969 171.671875 C 135.230469 171.671875 133.453125 169.894531 133.453125 167.707031 L 133.453125 91.429688 C 133.453125 89.242188 135.230469 87.464844 137.417969 87.464844 L 148.878906 87.464844 C 151.066406 87.464844 152.84375 89.242188 152.84375 91.429688 L 152.84375 167.707031 C 152.84375 169.894531 151.066406 171.671875 148.878906 171.671875 " fill-opacity="1" fill-rule="nonzero"/><path fill="#ff914d" d="M 148.09375 155.925781 C 148.09375 158.65625 145.878906 160.871094 143.148438 160.871094 C 140.417969 160.871094 138.203125 158.65625 138.203125 155.925781 C 138.203125 153.195312 140.417969 150.980469 143.148438 150.980469 C 145.878906 150.980469 148.09375 153.195312 148.09375 155.925781 " fill-opacity="1" fill-rule="nonzero"/><path fill="#000000" d="M 143.148438 151.597656 C 140.761719 151.597656 138.820312 153.539062 138.820312 155.925781 C 138.820312 158.3125 140.761719 160.257812 143.148438 160.257812 C 145.535156 160.257812 147.476562 158.3125 147.476562 155.925781 C 147.476562 153.539062 145.535156 151.597656 143.148438 151.597656 Z M 143.148438 161.488281 C 140.082031 161.488281 137.589844 158.992188 137.589844 155.925781 C 137.589844 152.863281 140.082031 150.367188 143.148438 150.367188 C 146.214844 150.367188 148.710938 152.863281 148.710938 155.925781 C 148.710938 158.992188 146.214844 161.488281 143.148438 161.488281 " fill-opacity="1" fill-rule="nonzero"/><path fill="#ff914d" d="M 192.636719 88.078125 L 166.761719 88.078125 C 164.914062 88.078125 163.414062 89.578125 163.414062 91.425781 L 163.414062 167.707031 C 163.414062 169.554688 164.914062 171.054688 166.761719 171.054688 L 192.636719 171.054688 C 194.484375 171.054688 195.984375 169.554688 195.984375 167.707031 L 195.984375 91.425781 C 195.984375 89.578125 194.484375 88.078125 192.636719 88.078125 " fill-opacity="1" fill-rule="nonzero"/><path fill="#000000" d="M 166.761719 88.699219 C 165.253906 88.699219 164.03125 89.921875 164.03125 91.429688 L 164.03125 167.707031 C 164.03125 169.214844 165.253906 170.4375 166.761719 170.4375 L 192.632812 170.4375 C 194.144531 170.4375 195.367188 169.214844 195.367188 167.707031 L 195.367188 91.429688 C 195.367188 89.921875 194.144531 88.699219 192.632812 88.699219 Z M 192.632812 171.671875 L 166.761719 171.671875 C 164.574219 171.671875 162.796875 169.894531 162.796875 167.707031 L 162.796875 91.429688 C 162.796875 89.242188 164.574219 87.464844 166.761719 87.464844 L 192.632812 87.464844 C 194.820312 87.464844 196.597656 89.242188 196.597656 91.429688 L 196.597656 167.707031 C 196.597656 169.894531 194.820312 171.671875 192.632812 171.671875 " fill-opacity="1" fill-rule="nonzero"/><path fill="#ffcc9c" d="M 172.667969 88.078125 L 161.203125 88.078125 C 159.355469 88.078125 157.859375 89.578125 157.859375 91.425781 L 157.859375 167.707031 C 157.859375 169.554688 159.355469 171.054688 161.203125 171.054688 L 172.667969 171.054688 C 174.515625 171.054688 176.015625 169.554688 176.015625 167.707031 L 176.015625 91.425781 C 176.015625 89.578125 174.515625 88.078125 172.667969 88.078125 " fill-opacity="1" fill-rule="nonzero"/><path fill="#000000" d="M 161.203125 88.699219 C 159.695312 88.699219 158.472656 89.921875 158.472656 91.429688 L 158.472656 167.707031 C 158.472656 169.214844 159.695312 170.4375 161.203125 170.4375 L 172.667969 170.4375 C 174.171875 170.4375 175.398438 169.214844 175.398438 167.707031 L 175.398438 91.429688 C 175.398438 89.921875 174.171875 88.699219 172.667969 88.699219 Z M 172.667969 171.671875 L 161.203125 171.671875 C 159.019531 171.671875 157.242188 169.894531 157.242188 167.707031 L 157.242188 91.429688 C 157.242188 89.242188 159.019531 87.464844 161.203125 87.464844 L 172.667969 87.464844 C 174.851562 87.464844 176.628906 89.242188 176.628906 91.429688 L 176.628906 167.707031 C 176.628906 169.894531 174.851562 171.671875 172.667969 171.671875 " fill-opacity="1" fill-rule="nonzero"/><path fill="#ff914d" d="M 171.878906 155.925781 C 171.878906 158.65625 169.667969 160.871094 166.9375 160.871094 C 164.203125 160.871094 161.992188 158.65625 161.992188 155.925781 C 161.992188 153.195312 164.203125 150.980469 166.9375 150.980469 C 169.667969 150.980469 171.878906 153.195312 171.878906 155.925781 " fill-opacity="1" fill-rule="nonzero"/><path fill="#000000" d="M 166.9375 151.597656 C 164.550781 151.597656 162.605469 153.539062 162.605469 155.925781 C 162.605469 158.3125 164.550781 160.257812 166.9375 160.257812 C 169.324219 160.257812 171.265625 158.3125 171.265625 155.925781 C 171.265625 153.539062 169.324219 151.597656 166.9375 151.597656 Z M 166.9375 161.488281 C 163.871094 161.488281 161.375 158.992188 161.375 155.925781 C 161.375 152.863281 163.871094 150.367188 166.9375 150.367188 C 170 150.367188 172.496094 152.863281 172.496094 155.925781 C 172.496094 158.992188 170 161.488281 166.9375 161.488281 " fill-opacity="1" fill-rule="nonzero"/><path fill="#ff914d" d="M 227.542969 79.871094 L 181.070312 79.871094 C 179.222656 79.871094 177.722656 81.371094 177.722656 83.21875 L 177.722656 159.496094 C 177.722656 161.347656 179.222656 162.84375 181.070312 162.84375 L 227.542969 162.84375 C 229.390625 162.84375 230.890625 161.347656 230.890625 159.496094 L 230.890625 83.21875 C 230.890625 81.371094 229.390625 79.871094 227.542969 79.871094 " fill-opacity="1" fill-rule="nonzero"/><path fill="#000000" d="M 181.070312 80.488281 C 179.566406 80.488281 178.335938 81.714844 178.335938 83.21875 L 178.335938 159.5 C 178.335938 161.003906 179.566406 162.230469 181.070312 162.230469 L 227.542969 162.230469 C 229.050781 162.230469 230.273438 161.003906 230.273438 159.5 L 230.273438 83.21875 C 230.273438 81.714844 229.050781 80.488281 227.542969 80.488281 Z M 227.542969 163.460938 L 181.070312 163.460938 C 178.886719 163.460938 177.105469 161.683594 177.105469 159.5 L 177.105469 83.21875 C 177.105469 81.035156 178.886719 79.257812 181.070312 79.257812 L 227.542969 79.257812 C 229.726562 79.257812 231.503906 81.035156 231.503906 83.21875 L 231.503906 159.5 C 231.503906 161.683594 229.726562 163.460938 227.542969 163.460938 " fill-opacity="1" fill-rule="nonzero"/><path fill="#ffcc9c" d="M 186.976562 79.871094 L 175.511719 79.871094 C 173.664062 79.871094 172.164062 81.371094 172.164062 83.21875 L 172.164062 159.496094 C 172.164062 161.347656 173.664062 162.84375 175.511719 162.84375 L 186.976562 162.84375 C 188.824219 162.84375 190.324219 161.347656 190.324219 159.496094 L 190.324219 83.21875 C 190.324219 81.371094 188.824219 79.871094 186.976562 79.871094 " fill-opacity="1" fill-rule="nonzero"/><path fill="#000000" d="M 175.511719 80.488281 C 174.003906 80.488281 172.78125 81.714844 172.78125 83.21875 L 172.78125 159.5 C 172.78125 161.003906 174.003906 162.230469 175.511719 162.230469 L 186.972656 162.230469 C 188.480469 162.230469 189.707031 161.003906 189.707031 159.5 L 189.707031 83.21875 C 189.707031 81.714844 188.480469 80.488281 186.972656 80.488281 Z M 186.972656 163.460938 L 175.511719 163.460938 C 173.324219 163.460938 171.546875 161.683594 171.546875 159.5 L 171.546875 83.21875 C 171.546875 81.035156 173.324219 79.257812 175.511719 79.257812 L 186.972656 79.257812 C 189.160156 79.257812 190.9375 81.035156 190.9375 83.21875 L 190.9375 159.5 C 190.9375 161.683594 189.160156 163.460938 186.972656 163.460938 " fill-opacity="1" fill-rule="nonzero"/><path fill="#ff914d" d="M 186.1875 147.71875 C 186.1875 150.449219 183.976562 152.664062 181.242188 152.664062 C 178.511719 152.664062 176.300781 150.449219 176.300781 147.71875 C 176.300781 144.988281 178.511719 142.773438 181.242188 142.773438 C 183.976562 142.773438 186.1875 144.988281 186.1875 147.71875 " fill-opacity="1" fill-rule="nonzero"/><path fill="#000000" d="M 181.242188 143.390625 C 178.859375 143.390625 176.914062 145.332031 176.914062 147.71875 C 176.914062 150.105469 178.859375 152.046875 181.242188 152.046875 C 183.628906 152.046875 185.574219 150.105469 185.574219 147.71875 C 185.574219 145.332031 183.628906 143.390625 181.242188 143.390625 Z M 181.242188 153.28125 C 178.179688 153.28125 175.683594 150.785156 175.683594 147.71875 C 175.683594 144.652344 178.179688 142.160156 181.242188 142.160156 C 184.308594 142.160156 186.804688 144.652344 186.804688 147.71875 C 186.804688 150.785156 184.308594 153.28125 181.242188 153.28125 " fill-opacity="1" fill-rule="nonzero"/><path fill="#ff914d" d="M 240.210938 88.078125 L 214.335938 88.078125 C 212.484375 88.078125 210.988281 89.578125 210.988281 91.425781 L 210.988281 167.707031 C 210.988281 169.554688 212.484375 171.054688 214.335938 171.054688 L 240.210938 171.054688 C 242.058594 171.054688 243.558594 169.554688 243.558594 167.707031 L 243.558594 91.425781 C 243.558594 89.578125 242.058594 88.078125 240.210938 88.078125 " fill-opacity="1" fill-rule="nonzero"/><path fill="#000000" d="M 214.335938 88.699219 C 212.828125 88.699219 211.605469 89.921875 211.605469 91.429688 L 211.605469 167.707031 C 211.605469 169.214844 212.828125 170.4375 214.335938 170.4375 L 240.207031 170.4375 C 241.71875 170.4375 242.941406 169.214844 242.941406 167.707031 L 242.941406 91.429688 C 242.941406 89.921875 241.71875 88.699219 240.207031 88.699219 Z M 240.207031 171.671875 L 214.335938 171.671875 C 212.148438 171.671875 210.371094 169.894531 210.371094 167.707031 L 210.371094 91.429688 C 210.371094 89.242188 212.148438 87.464844 214.335938 87.464844 L 240.207031 87.464844 C 242.394531 87.464844 244.171875 89.242188 244.171875 91.429688 L 244.171875 167.707031 C 244.171875 169.894531 242.394531 171.671875 240.207031 171.671875 " fill-opacity="1" fill-rule="nonzero"/><path fill="#ffcc9c" d="M 220.242188 88.078125 L 208.777344 88.078125 C 206.929688 88.078125 205.429688 89.578125 205.429688 91.425781 L 205.429688 167.707031 C 205.429688 169.554688 206.929688 171.054688 208.777344 171.054688 L 220.242188 171.054688 C 222.089844 171.054688 223.589844 169.554688 223.589844 167.707031 L 223.589844 91.425781 C 223.589844 89.578125 222.089844 88.078125 220.242188 88.078125 " fill-opacity="1" fill-rule="nonzero"/><path fill="#000000" d="M 208.777344 88.699219 C 207.269531 88.699219 206.046875 89.921875 206.046875 91.429688 L 206.046875 167.707031 C 206.046875 169.214844 207.269531 170.4375 208.777344 170.4375 L 220.238281 170.4375 C 221.746094 170.4375 222.972656 169.214844 222.972656 167.707031 L 222.972656 91.429688 C 222.972656 89.921875 221.746094 88.699219 220.238281 88.699219 Z M 220.238281 171.671875 L 208.777344 171.671875 C 206.589844 171.671875 204.816406 169.894531 204.816406 167.707031 L 204.816406 91.429688 C 204.816406 89.242188 206.589844 87.464844 208.777344 87.464844 L 220.238281 87.464844 C 222.425781 87.464844 224.203125 89.242188 224.203125 91.429688 L 224.203125 167.707031 C 224.203125 169.894531 222.425781 171.671875 220.238281 171.671875 " fill-opacity="1" fill-rule="nonzero"/><path fill="#ff914d" d="M 219.453125 155.925781 C 219.453125 158.65625 217.242188 160.871094 214.511719 160.871094 C 211.777344 160.871094 209.566406 158.65625 209.566406 155.925781 C 209.566406 153.195312 211.777344 150.980469 214.511719 150.980469 C 217.242188 150.980469 219.453125 153.195312 219.453125 155.925781 " fill-opacity="1" fill-rule="nonzero"/><path fill="#000000" d="M 214.511719 151.597656 C 212.121094 151.597656 210.179688 153.539062 210.179688 155.925781 C 210.179688 158.3125 212.121094 160.257812 214.511719 160.257812 C 216.898438 160.257812 218.839844 158.3125 218.839844 155.925781 C 218.839844 153.539062 216.898438 151.597656 214.511719 151.597656 Z M 214.511719 161.488281 C 211.445312 161.488281 208.949219 158.992188 208.949219 155.925781 C 208.949219 152.863281 211.445312 150.367188 214.511719 150.367188 C 217.574219 150.367188 220.070312 152.863281 220.070312 155.925781 C 220.070312 158.992188 217.574219 161.488281 214.511719 161.488281 " fill-opacity="1" fill-rule="nonzero"/><path fill="#ff914d" d="M 264 88.078125 L 238.121094 88.078125 C 236.273438 88.078125 234.777344 89.578125 234.777344 91.425781 L 234.777344 167.707031 C 234.777344 169.554688 236.273438 171.054688 238.121094 171.054688 L 264 171.054688 C 265.84375 171.054688 267.34375 169.554688 267.34375 167.707031 L 267.34375 91.425781 C 267.34375 89.578125 265.84375 88.078125 264 88.078125 " fill-opacity="1" fill-rule="nonzero"/><path fill="#000000" d="M 238.121094 88.699219 C 236.617188 88.699219 235.390625 89.921875 235.390625 91.429688 L 235.390625 167.707031 C 235.390625 169.214844 236.617188 170.4375 238.121094 170.4375 L 263.996094 170.4375 C 265.503906 170.4375 266.726562 169.214844 266.726562 167.707031 L 266.726562 91.429688 C 266.726562 89.921875 265.503906 88.699219 263.996094 88.699219 Z M 263.996094 171.671875 L 238.121094 171.671875 C 235.9375 171.671875 234.160156 169.894531 234.160156 167.707031 L 234.160156 91.429688 C 234.160156 89.242188 235.9375 87.464844 238.121094 87.464844 L 263.996094 87.464844 C 266.179688 87.464844 267.960938 89.242188 267.960938 91.429688 L 267.960938 167.707031 C 267.960938 169.894531 266.179688 171.671875 263.996094 171.671875 " fill-opacity="1" fill-rule="nonzero"/><path fill="#ffcc9c" d="M 244.027344 88.078125 L 232.5625 88.078125 C 230.714844 88.078125 229.21875 89.578125 229.21875 91.425781 L 229.21875 167.707031 C 229.21875 169.554688 230.714844 171.054688 232.5625 171.054688 L 244.027344 171.054688 C 245.875 171.054688 247.375 169.554688 247.375 167.707031 L 247.375 91.425781 C 247.375 89.578125 245.875 88.078125 244.027344 88.078125 " fill-opacity="1" fill-rule="nonzero"/><path fill="#000000" d="M 232.5625 88.699219 C 231.058594 88.699219 229.828125 89.921875 229.828125 91.429688 L 229.828125 167.707031 C 229.828125 169.214844 231.058594 170.4375 232.5625 170.4375 L 244.027344 170.4375 C 245.53125 170.4375 246.757812 169.214844 246.757812 167.707031 L 246.757812 91.429688 C 246.757812 89.921875 245.53125 88.699219 244.027344 88.699219 Z M 244.027344 171.671875 L 232.5625 171.671875 C 230.378906 171.671875 228.601562 169.894531 228.601562 167.707031 L 228.601562 91.429688 C 228.601562 89.242188 230.378906 87.464844 232.5625 87.464844 L 244.027344 87.464844 C 246.210938 87.464844 247.992188 89.242188 247.992188 91.429688 L 247.992188 167.707031 C 247.992188 169.894531 246.210938 171.671875 244.027344 171.671875 " fill-opacity="1" fill-rule="nonzero"/><path fill="#ff914d" d="M 243.242188 155.925781 C 243.242188 158.65625 241.027344 160.871094 238.296875 160.871094 C 235.566406 160.871094 233.351562 158.65625 233.351562 155.925781 C 233.351562 153.195312 235.566406 150.980469 238.296875 150.980469 C 241.027344 150.980469 243.242188 153.195312 243.242188 155.925781 " fill-opacity="1" fill-rule="nonzero"/><path fill="#000000" d="M 238.296875 151.597656 C 235.910156 151.597656 233.96875 153.539062 233.96875 155.925781 C 233.96875 158.3125 235.910156 160.257812 238.296875 160.257812 C 240.683594 160.257812 242.625 158.3125 242.625 155.925781 C 242.625 153.539062 240.683594 151.597656 238.296875 151.597656 Z M 238.296875 161.488281 C 235.230469 161.488281 232.738281 158.992188 232.738281 155.925781 C 232.738281 152.863281 235.230469 150.367188 238.296875 150.367188 C 241.363281 150.367188 243.855469 152.863281 243.855469 155.925781 C 243.855469 158.992188 241.363281 161.488281 238.296875 161.488281 " fill-opacity="1" fill-rule="nonzero"/><path fill="#ffffff" d="M 80.472656 351.898438 L 72.472656 351.898438 L 72.472656 259.574219 L 80.472656 259.574219 L 80.472656 351.898438 " fill-opacity="1" fill-rule="nonzero"/><path fill="#000000" d="M 73.089844 351.28125 L 79.855469 351.28125 L 79.855469 260.1875 L 73.089844 260.1875 Z M 80.472656 352.511719 L 72.472656 352.511719 C 72.132812 352.511719 71.855469 352.238281 71.855469 351.898438 L 71.855469 259.574219 C 71.855469 259.234375 72.132812 258.957031 72.472656 258.957031 L 80.472656 258.957031 C 80.8125 258.957031 81.085938 259.234375 81.085938 259.574219 L 81.085938 351.898438 C 81.085938 352.238281 80.8125 352.511719 80.472656 352.511719 " fill-opacity="1" fill-rule="nonzero"/><path fill="#ff914d" d="M 76.472656 346.785156 C 68.578125 346.785156 60.734375 348.054688 53.246094 350.558594 L 50.296875 351.539062 C 47.621094 352.433594 45.816406 354.9375 45.816406 357.761719 L 107.128906 357.761719 C 107.128906 354.9375 105.324219 352.433594 102.648438 351.539062 L 99.695312 350.558594 C 92.207031 348.054688 84.367188 346.785156 76.472656 346.785156 " fill-opacity="1" fill-rule="nonzero"/><path fill="#000000" d="M 46.460938 357.144531 L 106.480469 357.144531 C 106.242188 354.84375 104.683594 352.871094 102.453125 352.125 L 99.503906 351.140625 C 92.0625 348.65625 84.3125 347.398438 76.472656 347.398438 C 68.628906 347.398438 60.882812 348.65625 53.441406 351.140625 L 50.492188 352.125 C 48.257812 352.871094 46.699219 354.84375 46.460938 357.144531 Z M 107.128906 358.375 L 45.816406 358.375 C 45.476562 358.375 45.199219 358.101562 45.199219 357.761719 C 45.199219 354.671875 47.167969 351.9375 50.101562 350.957031 L 53.050781 349.972656 C 60.617188 347.449219 68.496094 346.167969 76.472656 346.167969 C 84.445312 346.167969 92.328125 347.449219 99.890625 349.972656 L 102.84375 350.957031 C 105.773438 351.9375 107.746094 354.671875 107.746094 357.761719 C 107.746094 358.101562 107.46875 358.375 107.128906 358.375 " fill-opacity="1" fill-rule="nonzero"/><path fill="#ff914d" d="M 88.117188 194.308594 L 47.175781 194.308594 C 42.1875 194.308594 37.78125 197.589844 36.378906 202.375 C 34.230469 209.695312 33.042969 217.734375 33.042969 226.175781 C 33.042969 232.550781 33.71875 238.699219 34.976562 244.480469 C 37.03125 253.921875 45.488281 260.589844 55.152344 260.589844 L 100.347656 260.589844 C 110.148438 260.589844 118.5625 253.703125 120.601562 244.117188 C 120.847656 242.957031 121.078125 241.484375 121.289062 239.910156 C 122.085938 233.945312 117.445312 228.640625 111.429688 228.640625 C 106.300781 228.640625 102.011719 224.746094 101.523438 219.640625 C 100.960938 213.714844 100.078125 206.339844 98.917969 202.375 C 97.511719 197.589844 93.105469 194.308594 88.117188 194.308594 " fill-opacity="1" fill-rule="nonzero"/><path fill="#000000" d="M 47.179688 194.925781 C 42.484375 194.925781 38.285156 198.058594 36.96875 202.550781 C 34.773438 210.035156 33.660156 217.984375 33.660156 226.175781 C 33.660156 232.371094 34.304688 238.488281 35.578125 244.347656 C 37.546875 253.402344 45.777344 259.972656 55.152344 259.972656 L 100.347656 259.972656 C 109.765625 259.972656 118.027344 253.25 120 243.988281 C 120.222656 242.9375 120.449219 241.539062 120.679688 239.828125 C 121.035156 237.160156 120.222656 234.46875 118.449219 232.441406 C 116.675781 230.417969 114.117188 229.257812 111.429688 229.257812 C 105.949219 229.257812 101.429688 225.148438 100.910156 219.699219 C 100.375 214.070312 99.492188 206.527344 98.324219 202.550781 C 97.011719 198.058594 92.8125 194.925781 88.117188 194.925781 Z M 100.347656 261.203125 L 55.152344 261.203125 C 45.203125 261.203125 36.464844 254.226562 34.375 244.609375 C 33.082031 238.664062 32.425781 232.460938 32.425781 226.175781 C 32.425781 217.867188 33.558594 209.800781 35.785156 202.203125 C 37.253906 197.195312 41.941406 193.695312 47.179688 193.695312 L 88.117188 193.695312 C 93.355469 193.695312 98.039062 197.195312 99.507812 202.203125 C 100.703125 206.277344 101.597656 213.902344 102.136719 219.582031 C 102.59375 224.398438 106.589844 228.027344 111.429688 228.027344 C 114.472656 228.027344 117.371094 229.339844 119.375 231.628906 C 121.382812 233.921875 122.304688 236.972656 121.898438 239.992188 C 121.667969 241.734375 121.433594 243.160156 121.203125 244.242188 C 119.113281 254.070312 110.339844 261.203125 100.347656 261.203125 " fill-opacity="1" fill-rule="nonzero"/><path fill="#000000" d="M 111.378906 243.105469 L 55.738281 243.105469 C 50.453125 243.105469 46.15625 238.808594 46.15625 233.523438 C 46.15625 233.183594 46.429688 232.90625 46.769531 232.90625 C 47.109375 232.90625 47.386719 233.183594 47.386719 233.523438 C 47.386719 238.128906 51.132812 241.875 55.738281 241.875 L 111.378906 241.875 C 111.71875 241.875 111.996094 242.148438 111.996094 242.488281 C 111.996094 242.828125 111.71875 243.105469 111.378906 243.105469 " fill-opacity="1" fill-rule="nonzero"/><path fill="#ffffff" d="M 331.703125 214.167969 L 205.992188 214.167969 C 201.410156 214.167969 197.152344 217.882812 196.484375 222.460938 L 182.84375 315.613281 C 182.171875 320.195312 185.339844 323.90625 189.921875 323.90625 L 315.636719 323.90625 C 320.214844 323.90625 324.472656 320.195312 325.144531 315.613281 L 338.785156 222.460938 C 339.457031 217.882812 336.285156 214.167969 331.703125 214.167969 " fill-opacity="1" fill-rule="nonzero"/><path fill="#000000" d="M 205.992188 214.785156 C 201.710938 214.785156 197.71875 218.269531 197.089844 222.550781 L 183.449219 315.703125 C 183.152344 317.757812 183.667969 319.675781 184.90625 321.109375 C 186.121094 322.519531 187.90625 323.292969 189.921875 323.292969 L 315.632812 323.292969 C 319.914062 323.292969 323.90625 319.808594 324.535156 315.527344 L 338.175781 222.371094 C 338.476562 220.320312 337.960938 218.402344 336.71875 216.96875 C 335.5 215.558594 333.71875 214.785156 331.707031 214.785156 Z M 315.632812 324.523438 L 189.921875 324.523438 C 187.539062 324.523438 185.429688 323.597656 183.972656 321.914062 C 182.496094 320.207031 181.878906 317.9375 182.230469 315.527344 L 195.871094 222.371094 C 196.585938 217.507812 201.125 213.554688 205.992188 213.554688 L 331.707031 213.554688 C 334.082031 213.554688 336.195312 214.480469 337.652344 216.164062 C 339.128906 217.871094 339.746094 220.136719 339.394531 222.550781 L 325.75 315.703125 C 325.039062 320.566406 320.503906 324.523438 315.632812 324.523438 " fill-opacity="1" fill-rule="nonzero"/><path fill="#000000" d="M 331.414062 228.394531 L 202.296875 228.394531 C 201.957031 228.394531 201.679688 228.117188 201.679688 227.777344 C 201.679688 227.4375 201.957031 227.164062 202.296875 227.164062 L 331.414062 227.164062 C 331.753906 227.164062 332.027344 227.4375 332.027344 227.777344 C 332.027344 228.117188 331.753906 228.394531 331.414062 228.394531 " fill-opacity="1" fill-rule="nonzero"/><path fill="#ff914d" d="M 211.542969 220.546875 C 211.371094 221.722656 210.28125 222.675781 209.105469 222.675781 C 207.933594 222.675781 207.117188 221.722656 207.289062 220.546875 C 207.460938 219.375 208.554688 218.421875 209.730469 218.421875 C 210.902344 218.421875 211.71875 219.375 211.542969 220.546875 " fill-opacity="1" fill-rule="nonzero"/><path fill="#ff914d" d="M 220.050781 220.546875 C 219.878906 221.722656 218.789062 222.675781 217.613281 222.675781 C 216.4375 222.675781 215.625 221.722656 215.796875 220.546875 C 215.96875 219.375 217.0625 218.421875 218.234375 218.421875 C 219.410156 218.421875 220.222656 219.375 220.050781 220.546875 " fill-opacity="1" fill-rule="nonzero"/><path fill="#ff914d" d="M 228.558594 220.546875 C 228.386719 221.722656 227.292969 222.675781 226.121094 222.675781 C 224.945312 222.675781 224.132812 221.722656 224.304688 220.546875 C 224.476562 219.375 225.566406 218.421875 226.742188 218.421875 C 227.917969 218.421875 228.730469 219.375 228.558594 220.546875 " fill-opacity="1" fill-rule="nonzero"/><path fill="#000000" d="M 332.578125 221.164062 L 320.597656 221.164062 C 320.253906 221.164062 319.980469 220.890625 319.980469 220.546875 C 319.980469 220.207031 320.253906 219.933594 320.597656 219.933594 L 332.578125 219.933594 C 332.917969 219.933594 333.191406 220.207031 333.191406 220.546875 C 333.191406 220.890625 332.917969 221.164062 332.578125 221.164062 " fill-opacity="1" fill-rule="nonzero"/><path fill="#000000" d="M 315.210938 221.164062 L 257.269531 221.164062 C 256.929688 221.164062 256.652344 220.886719 256.652344 220.546875 C 256.652344 220.207031 256.929688 219.933594 257.269531 219.933594 L 315.210938 219.933594 C 315.550781 219.933594 315.824219 220.207031 315.824219 220.546875 C 315.824219 220.886719 315.550781 221.164062 315.210938 221.164062 " fill-opacity="1" fill-rule="nonzero"/><path fill="#000000" d="M 244.226562 221.164062 L 233.664062 221.164062 C 233.324219 221.164062 233.046875 220.886719 233.046875 220.546875 C 233.046875 220.207031 233.324219 219.933594 233.664062 219.933594 L 244.226562 219.933594 C 244.566406 219.933594 244.839844 220.207031 244.839844 220.546875 C 244.839844 220.886719 244.566406 221.164062 244.226562 221.164062 " fill-opacity="1" fill-rule="nonzero"/><path fill="#ea803e" d="M 313.960938 308.285156 L 194.496094 308.285156 L 205.097656 235.890625 L 324.5625 235.890625 L 313.960938 308.285156 " fill-opacity="1" fill-rule="nonzero"/><path fill="#ffffff" d="M 262.8125 255.53125 L 171.492188 255.53125 C 167.925781 255.53125 164.507812 258.421875 163.851562 261.984375 L 150.515625 334.445312 C 149.859375 338.007812 152.214844 340.894531 155.78125 340.894531 L 247.097656 340.894531 C 250.664062 340.894531 254.082031 338.007812 254.738281 334.445312 L 268.078125 261.984375 C 268.734375 258.421875 266.375 255.53125 262.8125 255.53125 " fill-opacity="1" fill-rule="nonzero"/><path fill="#000000" d="M 171.488281 256.148438 C 168.214844 256.148438 165.058594 258.816406 164.457031 262.09375 L 151.117188 334.554688 C 150.832031 336.117188 151.167969 337.574219 152.066406 338.652344 C 152.941406 339.703125 154.261719 340.28125 155.777344 340.28125 L 247.097656 340.28125 C 250.371094 340.28125 253.527344 337.613281 254.128906 334.332031 L 267.46875 261.871094 C 267.757812 260.3125 267.421875 258.859375 266.519531 257.777344 C 265.644531 256.726562 264.328125 256.148438 262.8125 256.148438 Z M 247.097656 341.511719 L 155.777344 341.511719 C 153.886719 341.511719 152.234375 340.777344 151.125 339.441406 C 149.984375 338.074219 149.554688 336.261719 149.910156 334.332031 L 163.246094 261.871094 C 163.949219 258.039062 167.652344 254.917969 171.488281 254.917969 L 262.8125 254.917969 C 264.699219 254.917969 266.351562 255.652344 267.464844 256.992188 C 268.605469 258.355469 269.035156 260.167969 268.679688 262.09375 L 255.34375 334.554688 C 254.636719 338.394531 250.9375 341.511719 247.097656 341.511719 " fill-opacity="1" fill-rule="nonzero"/><path fill="#000000" d="M 262.183594 266.738281 L 168.21875 266.738281 C 167.875 266.738281 167.601562 266.460938 167.601562 266.121094 C 167.601562 265.78125 167.875 265.503906 168.21875 265.503906 L 262.183594 265.503906 C 262.527344 265.503906 262.800781 265.78125 262.800781 266.121094 C 262.800781 266.460938 262.527344 266.738281 262.183594 266.738281 " fill-opacity="1" fill-rule="nonzero"/><path fill="#ff914d" d="M 175.625 260.496094 C 175.453125 261.410156 174.578125 262.148438 173.664062 262.148438 C 172.75 262.148438 172.148438 261.410156 172.3125 260.496094 C 172.484375 259.582031 173.359375 258.839844 174.273438 258.839844 C 175.1875 258.839844 175.792969 259.582031 175.625 260.496094 " fill-opacity="1" fill-rule="nonzero"/><path fill="#ff914d" d="M 182.242188 260.496094 C 182.074219 261.410156 181.195312 262.148438 180.28125 262.148438 C 179.367188 262.148438 178.761719 261.410156 178.929688 260.496094 C 179.101562 259.582031 179.976562 258.839844 180.890625 258.839844 C 181.804688 258.839844 182.410156 259.582031 182.242188 260.496094 " fill-opacity="1" fill-rule="nonzero"/><path fill="#ff914d" d="M 188.855469 260.496094 C 188.691406 261.410156 187.8125 262.148438 186.898438 262.148438 C 185.984375 262.148438 185.378906 261.410156 185.546875 260.496094 C 185.71875 259.582031 186.59375 258.839844 187.507812 258.839844 C 188.421875 258.839844 189.027344 259.582031 188.855469 260.496094 " fill-opacity="1" fill-rule="nonzero"/><path fill="#000000" d="M 263.304688 261.113281 L 253.984375 261.113281 C 253.644531 261.113281 253.367188 260.835938 253.367188 260.496094 C 253.367188 260.15625 253.644531 259.882812 253.984375 259.882812 L 263.304688 259.882812 C 263.640625 259.882812 263.917969 260.15625 263.917969 260.496094 C 263.917969 260.835938 263.640625 261.113281 263.304688 261.113281 " fill-opacity="1" fill-rule="nonzero"/><path fill="#000000" d="M 249.792969 261.113281 L 211.191406 261.113281 C 210.851562 261.113281 210.578125 260.835938 210.578125 260.496094 C 210.578125 260.15625 210.851562 259.882812 211.191406 259.882812 L 249.792969 259.882812 C 250.132812 259.882812 250.40625 260.15625 250.40625 260.496094 C 250.40625 260.835938 250.132812 261.113281 249.792969 261.113281 " fill-opacity="1" fill-rule="nonzero"/><path fill="#000000" d="M 201.042969 261.113281 L 192.828125 261.113281 C 192.488281 261.113281 192.214844 260.835938 192.214844 260.496094 C 192.214844 260.15625 192.488281 259.882812 192.828125 259.882812 L 201.042969 259.882812 C 201.386719 259.882812 201.660156 260.15625 201.660156 260.496094 C 201.660156 260.835938 201.386719 261.113281 201.042969 261.113281 " fill-opacity="1" fill-rule="nonzero"/><path fill="#000000" d="M 169.355469 272.691406 C 168.46875 272.691406 167.578125 273.445312 167.414062 274.339844 L 163.089844 297.828125 C 163.019531 298.230469 163.097656 298.59375 163.320312 298.859375 C 163.53125 299.113281 163.859375 299.253906 164.238281 299.253906 L 223.132812 299.253906 C 224.023438 299.253906 224.910156 298.5 225.074219 297.605469 L 229.398438 274.113281 C 229.472656 273.71875 229.390625 273.351562 229.171875 273.089844 C 228.960938 272.832031 228.632812 272.691406 228.25 272.691406 Z M 223.132812 300.484375 L 164.238281 300.484375 C 163.484375 300.484375 162.824219 300.1875 162.371094 299.644531 C 161.914062 299.097656 161.738281 298.371094 161.878906 297.605469 L 166.203125 274.113281 C 166.476562 272.625 167.863281 271.460938 169.355469 271.460938 L 228.25 271.460938 C 229.003906 271.460938 229.667969 271.757812 230.117188 272.300781 C 230.574219 272.851562 230.753906 273.574219 230.613281 274.339844 L 226.285156 297.828125 C 226.011719 299.320312 224.628906 300.484375 223.132812 300.484375 " fill-opacity="1" fill-rule="nonzero"/><path fill="#000000" d="M 163.449219 304.785156 C 162.558594 304.785156 161.671875 305.542969 161.507812 306.429688 L 156.878906 331.578125 C 156.804688 331.976562 156.886719 332.339844 157.109375 332.605469 C 157.320312 332.863281 157.644531 333.003906 158.027344 333.003906 L 216.921875 333.003906 C 217.8125 333.003906 218.699219 332.25 218.863281 331.355469 L 223.492188 306.210938 C 223.566406 305.8125 223.484375 305.445312 223.265625 305.183594 C 223.054688 304.925781 222.722656 304.785156 222.34375 304.785156 Z M 216.921875 334.234375 L 158.027344 334.234375 C 157.273438 334.234375 156.609375 333.9375 156.160156 333.394531 C 155.703125 332.84375 155.527344 332.121094 155.667969 331.355469 L 160.296875 306.210938 C 160.570312 304.71875 161.953125 303.554688 163.449219 303.554688 L 222.34375 303.554688 C 223.097656 303.554688 223.761719 303.855469 224.210938 304.394531 C 224.667969 304.945312 224.84375 305.667969 224.703125 306.429688 L 220.074219 331.578125 C 219.800781 333.066406 218.414062 334.234375 216.921875 334.234375 " fill-opacity="1" fill-rule="nonzero"/><path fill="#ffcc9c" d="M 259.019531 272.078125 L 236.519531 272.078125 C 235.332031 272.078125 234.191406 273.039062 233.976562 274.226562 L 223.441406 331.46875 C 223.21875 332.65625 224.003906 333.621094 225.195312 333.621094 L 247.691406 333.621094 C 248.882812 333.621094 250.019531 332.65625 250.238281 331.46875 L 260.773438 274.226562 C 260.992188 273.039062 260.207031 272.078125 259.019531 272.078125 " fill-opacity="1" fill-rule="nonzero"/><path fill="#000000" d="M 236.523438 272.691406 C 235.636719 272.691406 234.746094 273.445312 234.582031 274.339844 L 224.046875 331.578125 C 223.972656 331.976562 224.054688 332.34375 224.277344 332.605469 C 224.488281 332.863281 224.8125 333.003906 225.195312 333.003906 L 247.695312 333.003906 C 248.582031 333.003906 249.472656 332.246094 249.636719 331.355469 L 260.171875 274.113281 C 260.246094 273.714844 260.164062 273.351562 259.941406 273.085938 C 259.730469 272.832031 259.40625 272.691406 259.023438 272.691406 Z M 247.695312 334.234375 L 225.195312 334.234375 C 224.441406 334.234375 223.777344 333.933594 223.328125 333.394531 C 222.871094 332.84375 222.695312 332.121094 222.835938 331.355469 L 233.371094 274.113281 C 233.644531 272.625 235.03125 271.460938 236.523438 271.460938 L 259.023438 271.460938 C 259.777344 271.460938 260.4375 271.757812 260.890625 272.296875 C 261.347656 272.851562 261.523438 273.574219 261.382812 274.335938 L 250.847656 331.578125 C 250.574219 333.066406 249.1875 334.234375 247.695312 334.234375 " fill-opacity="1" fill-rule="nonzero"/><path fill="#ffffff" d="M 95.011719 289.839844 L 86.5 296.375 L 93.976562 306.527344 L 101.941406 298.929688 L 95.011719 289.839844 " fill-opacity="1" fill-rule="nonzero"/><path fill="#000000" d="M 87.355469 296.496094 L 94.054688 305.597656 L 101.117188 298.867188 L 94.894531 290.707031 Z M 93.976562 307.140625 C 93.957031 307.140625 93.9375 307.140625 93.921875 307.140625 C 93.746094 307.125 93.582031 307.035156 93.480469 306.890625 L 86.007812 296.738281 C 85.808594 296.46875 85.863281 296.089844 86.125 295.886719 L 94.636719 289.351562 C 94.765625 289.253906 94.929688 289.210938 95.09375 289.230469 C 95.253906 289.253906 95.402344 289.335938 95.5 289.46875 L 102.429688 298.558594 C 102.621094 298.804688 102.59375 299.160156 102.367188 299.375 L 94.398438 306.972656 C 94.285156 307.082031 94.132812 307.140625 93.976562 307.140625 " fill-opacity="1" fill-rule="nonzero"/><path fill="#ea803e" d="M 99.035156 305.335938 L 91.128906 298.929688 L 89.636719 293.5625 C 85.484375 293.460938 80.820312 296.554688 78.265625 298.542969 C 77.082031 299.46875 76.695312 301.085938 77.355469 302.433594 C 81.574219 311 91.089844 324.371094 95.695312 330.667969 C 96.855469 332.257812 99.367188 331.742188 99.773438 329.820312 C 101.804688 320.183594 99.035156 305.335938 99.035156 305.335938 " fill-opacity="1" fill-rule="nonzero"/><path fill="#000000" d="M 89.167969 294.179688 C 85.28125 294.3125 80.9375 297.246094 78.644531 299.03125 C 77.691406 299.773438 77.382812 301.085938 77.910156 302.160156 C 82.03125 310.53125 91.132812 323.390625 96.191406 330.308594 C 96.664062 330.957031 97.386719 331.066406 97.90625 330.957031 C 98.558594 330.8125 99.035156 330.34375 99.171875 329.691406 C 101.019531 320.917969 98.800781 307.550781 98.46875 305.671875 L 90.738281 299.410156 C 90.640625 299.328125 90.566406 299.21875 90.535156 299.097656 Z M 97.53125 332.226562 C 96.613281 332.226562 95.757812 331.800781 95.195312 331.03125 C 90.113281 324.082031 80.964844 311.160156 76.804688 302.703125 C 76.019531 301.113281 76.476562 299.15625 77.886719 298.058594 C 80.398438 296.105469 85.261719 292.835938 89.652344 292.949219 C 89.921875 292.953125 90.15625 293.136719 90.230469 293.398438 L 91.667969 298.574219 L 99.421875 304.859375 C 99.535156 304.949219 99.613281 305.078125 99.640625 305.222656 C 99.753906 305.835938 102.410156 320.300781 100.375 329.945312 C 100.136719 331.070312 99.292969 331.917969 98.164062 332.160156 C 97.949219 332.203125 97.738281 332.226562 97.53125 332.226562 " fill-opacity="1" fill-rule="nonzero"/><path fill="#000000" d="M 96.382812 327.445312 C 96.1875 327.445312 95.996094 327.351562 95.878906 327.179688 L 83.28125 309.023438 C 82.382812 307.726562 81.980469 306.101562 82.152344 304.449219 C 82.460938 301.496094 81.261719 298.441406 81.25 298.410156 C 81.125 298.09375 81.277344 297.738281 81.59375 297.609375 C 81.910156 297.488281 82.269531 297.640625 82.394531 297.953125 C 82.449219 298.089844 83.714844 301.3125 83.378906 304.574219 C 83.238281 305.9375 83.5625 307.265625 84.289062 308.320312 L 96.890625 326.476562 C 97.082031 326.757812 97.011719 327.140625 96.734375 327.335938 C 96.628906 327.410156 96.503906 327.445312 96.382812 327.445312 " fill-opacity="1" fill-rule="nonzero"/><path fill="#ffffff" d="M 119.09375 339.429688 L 130.789062 358.503906 L 141.519531 351.886719 L 128.722656 333.265625 L 119.09375 339.429688 " fill-opacity="1" fill-rule="nonzero"/><path fill="#000000" d="M 119.933594 339.621094 L 130.992188 357.65625 L 140.644531 351.703125 L 128.550781 334.105469 Z M 130.789062 359.121094 C 130.742188 359.121094 130.695312 359.113281 130.644531 359.101562 C 130.488281 359.0625 130.347656 358.964844 130.265625 358.824219 L 118.570312 339.75 C 118.394531 339.464844 118.480469 339.089844 118.761719 338.910156 L 128.390625 332.746094 C 128.667969 332.570312 129.042969 332.644531 129.230469 332.917969 L 142.027344 351.539062 C 142.121094 351.679688 142.15625 351.851562 142.121094 352.015625 C 142.085938 352.179688 141.984375 352.324219 141.84375 352.414062 L 131.113281 359.027344 C 131.015625 359.089844 130.902344 359.121094 130.789062 359.121094 " fill-opacity="1" fill-rule="nonzero"/><path fill="#ea803e" d="M 140.75 346.746094 L 133.714844 354.105469 L 128.246094 355.148438 C 127.800781 359.28125 130.503906 364.179688 132.277344 366.890625 C 133.097656 368.148438 134.683594 368.664062 136.078125 368.113281 C 144.964844 364.613281 159.070312 356.226562 165.722656 352.152344 C 167.398438 351.125 167.09375 348.582031 165.210938 348.019531 C 155.769531 345.203125 140.75 346.746094 140.75 346.746094 " fill-opacity="1" fill-rule="nonzero"/><path fill="#000000" d="M 133.714844 354.105469 L 133.71875 354.105469 Z M 128.820312 355.664062 C 128.632812 359.550781 131.203125 364.121094 132.792969 366.554688 C 133.453125 367.5625 134.738281 367.980469 135.851562 367.542969 C 144.535156 364.121094 158.09375 356.101562 165.402344 351.628906 C 166.085938 351.210938 166.257812 350.5 166.1875 349.972656 C 166.101562 349.308594 165.671875 348.800781 165.035156 348.609375 C 156.441406 346.042969 142.933594 347.164062 141.035156 347.339844 L 134.160156 354.53125 C 134.074219 354.621094 133.957031 354.683594 133.832031 354.707031 Z M 134.941406 368.945312 C 133.691406 368.945312 132.480469 368.324219 131.761719 367.226562 C 130.019531 364.5625 127.164062 359.441406 127.632812 355.082031 C 127.660156 354.8125 127.863281 354.59375 128.128906 354.542969 L 133.40625 353.535156 L 140.304688 346.320312 C 140.402344 346.214844 140.539062 346.148438 140.683594 346.136719 C 141.304688 346.070312 155.9375 344.609375 165.386719 347.429688 C 166.484375 347.757812 167.257812 348.671875 167.410156 349.8125 C 167.558594 350.972656 167.035156 352.070312 166.042969 352.679688 C 158.699219 357.175781 145.074219 365.230469 136.304688 368.6875 C 135.859375 368.859375 135.398438 368.945312 134.941406 368.945312 " fill-opacity="1" fill-rule="nonzero"/><path fill="#000000" d="M 132.207031 363.933594 C 131.945312 363.933594 131.703125 363.761719 131.621094 363.496094 C 131.519531 363.171875 131.703125 362.828125 132.027344 362.726562 C 132.167969 362.683594 135.484375 361.683594 138.707031 362.289062 C 140.054688 362.539062 141.40625 362.328125 142.515625 361.6875 L 161.640625 350.617188 C 161.9375 350.449219 162.3125 350.550781 162.484375 350.84375 C 162.652344 351.136719 162.554688 351.515625 162.257812 351.6875 L 143.128906 362.753906 C 141.765625 363.542969 140.113281 363.804688 138.480469 363.5 C 135.554688 362.949219 132.421875 363.894531 132.390625 363.90625 C 132.328125 363.925781 132.269531 363.933594 132.207031 363.933594 " fill-opacity="1" fill-rule="nonzero"/><path fill="#000000" d="M 103.492188 203.625 C 103.492188 203.625 127.789062 222.808594 140.644531 240.765625 C 144.234375 245.785156 144.742188 252.390625 142.019531 257.929688 C 136.101562 269.949219 123.300781 291.507812 103.492188 302.261719 L 86.851562 281 C 86.851562 281 101.402344 264.917969 112.09375 257.589844 L 84.824219 227.023438 L 78.046875 211.671875 L 103.492188 203.625 " fill-opacity="1" fill-rule="nonzero"/><path fill="#000000" d="M 115.183594 346.914062 C 116.046875 348.429688 135.640625 334.105469 135.640625 334.105469 C 135.640625 334.105469 120.648438 316.558594 96.820312 227.367188 C 96.546875 226.328125 92.152344 204.515625 92.152344 204.515625 L 59.59375 221.582031 C 59.59375 221.582031 65.3125 259.117188 115.183594 346.914062 " fill-opacity="1" fill-rule="nonzero"/><path fill="#ffcc9c" d="M 100.734375 242.285156 C 100.464844 242.285156 100.21875 242.105469 100.140625 241.832031 L 97.082031 230.640625 C 96.492188 228.488281 96.875 226.199219 98.136719 224.355469 L 100.011719 221.613281 C 100.203125 221.332031 100.585938 221.257812 100.867188 221.453125 C 101.148438 221.644531 101.21875 222.027344 101.027344 222.308594 L 99.152344 225.050781 C 98.097656 226.59375 97.773438 228.511719 98.265625 230.316406 L 101.328125 241.503906 C 101.417969 241.835938 101.226562 242.171875 100.898438 242.261719 C 100.84375 242.277344 100.789062 242.285156 100.734375 242.285156 " fill-opacity="1" fill-rule="nonzero"/><path fill="#ffcc9c" d="M 116.730469 340.769531 C 116.515625 340.769531 116.304688 340.65625 116.191406 340.457031 C 115.113281 338.542969 114.03125 336.605469 112.980469 334.695312 C 112.8125 334.398438 112.921875 334.023438 113.21875 333.863281 C 113.515625 333.695312 113.890625 333.804688 114.054688 334.101562 C 115.109375 336.007812 116.1875 337.941406 117.265625 339.851562 C 117.433594 340.148438 117.328125 340.523438 117.03125 340.6875 C 116.9375 340.742188 116.832031 340.769531 116.730469 340.769531 " fill-opacity="1" fill-rule="nonzero"/><path fill="#ffcc9c" d="M 111.382812 331.117188 C 111.164062 331.117188 110.953125 331.003906 110.839844 330.796875 C 107.773438 325.160156 104.796875 319.511719 102 314.007812 C 101.84375 313.707031 101.964844 313.335938 102.269531 313.179688 C 102.570312 313.027344 102.945312 313.148438 103.097656 313.449219 C 105.890625 318.945312 108.859375 324.582031 111.921875 330.207031 C 112.082031 330.507812 111.972656 330.878906 111.675781 331.042969 C 111.582031 331.09375 111.480469 331.117188 111.382812 331.117188 " fill-opacity="1" fill-rule="nonzero"/><path fill="#ffcc9c" d="M 91.066406 290.457031 C 90.832031 290.457031 90.609375 290.320312 90.503906 290.09375 C 76.011719 258 71.910156 240.054688 71.871094 239.878906 C 71.796875 239.546875 72.007812 239.21875 72.339844 239.144531 C 72.667969 239.070312 73 239.277344 73.074219 239.609375 C 73.113281 239.789062 77.191406 257.625 91.628906 289.589844 C 91.765625 289.898438 91.628906 290.261719 91.320312 290.402344 C 91.238281 290.4375 91.152344 290.457031 91.066406 290.457031 " fill-opacity="1" fill-rule="nonzero"/><path fill="#ffcc9c" d="M 120.625 300.824219 C 120.386719 300.824219 120.15625 300.683594 120.058594 300.449219 C 119.984375 300.277344 112.585938 282.917969 109.835938 274.1875 C 109.734375 273.863281 109.914062 273.519531 110.238281 273.417969 C 110.558594 273.3125 110.90625 273.496094 111.007812 273.820312 C 113.738281 282.488281 121.117188 299.792969 121.191406 299.964844 C 121.324219 300.28125 121.179688 300.640625 120.867188 300.773438 C 120.789062 300.808594 120.707031 300.824219 120.625 300.824219 " fill-opacity="1" fill-rule="nonzero"/><path fill="#ffffff" d="M 128.835938 141.574219 C 128.835938 141.574219 141.019531 146.277344 155.679688 134.371094 C 162.40625 128.90625 166.496094 120.839844 167.070312 112.195312 C 167.183594 110.503906 167.9375 108.921875 169.179688 107.773438 L 179.6875 101.078125 C 179.6875 101.078125 178.945312 102.226562 178.132812 105.195312 C 177.324219 108.167969 174.859375 110.777344 174.542969 112.015625 L 179.6875 110.480469 C 179.6875 110.480469 179.140625 113.714844 176.625 115.871094 C 174.109375 118.035156 173.25 123.449219 173.25 123.449219 C 173.25 123.449219 169.671875 166.609375 131.96875 165.910156 L 128.835938 141.574219 " fill-opacity="1" fill-rule="nonzero"/><path fill="#000000" d="M 132.511719 165.300781 C 132.636719 165.304688 132.761719 165.304688 132.886719 165.304688 C 147.820312 165.304688 159.023438 158.359375 166.203125 144.65625 C 171.6875 134.1875 172.628906 123.503906 172.636719 123.398438 C 172.640625 123.382812 172.640625 123.371094 172.644531 123.351562 C 172.679688 123.125 173.570312 117.6875 176.222656 115.40625 C 177.707031 114.132812 178.460938 112.445312 178.8125 111.382812 L 174.714844 112.605469 C 174.503906 112.671875 174.273438 112.613281 174.113281 112.460938 C 173.953125 112.304688 173.890625 112.078125 173.945312 111.863281 C 174.097656 111.273438 174.574219 110.542969 175.183594 109.617188 C 176.023438 108.332031 177.078125 106.730469 177.539062 105.035156 C 177.800781 104.085938 178.050781 103.320312 178.277344 102.707031 L 169.558594 108.261719 C 168.449219 109.308594 167.789062 110.714844 167.6875 112.234375 C 167.101562 121.085938 162.863281 129.328125 156.066406 134.847656 C 143.476562 145.074219 132.765625 143.3125 129.566406 142.449219 Z M 132.855469 166.535156 C 132.558594 166.535156 132.261719 166.53125 131.957031 166.527344 C 131.652344 166.519531 131.398438 166.292969 131.359375 165.988281 L 128.226562 141.652344 C 128.195312 141.4375 128.285156 141.222656 128.457031 141.089844 C 128.625 140.957031 128.855469 140.921875 129.054688 141 C 129.175781 141.042969 141.109375 145.410156 155.289062 133.890625 C 161.824219 128.585938 165.894531 120.664062 166.457031 112.15625 C 166.578125 110.300781 167.398438 108.585938 168.761719 107.324219 C 168.789062 107.296875 168.820312 107.277344 168.847656 107.253906 L 179.359375 100.558594 C 179.601562 100.402344 179.917969 100.4375 180.125 100.644531 C 180.328125 100.847656 180.363281 101.167969 180.203125 101.414062 C 180.199219 101.421875 179.496094 102.550781 178.726562 105.359375 C 178.214844 107.242188 177.101562 108.9375 176.210938 110.292969 C 176.046875 110.542969 175.890625 110.785156 175.742188 111.015625 L 179.511719 109.890625 C 179.71875 109.832031 179.9375 109.878906 180.097656 110.019531 C 180.253906 110.160156 180.332031 110.375 180.292969 110.585938 C 180.269531 110.726562 179.679688 114.0625 177.027344 116.339844 C 174.78125 118.269531 173.921875 123.179688 173.863281 123.527344 C 173.808594 124.136719 172.761719 134.796875 167.292969 145.226562 C 162.175781 154.992188 152.058594 166.535156 132.855469 166.535156 " fill-opacity="1" fill-rule="nonzero"/><path fill="#ea803e" d="M 48.574219 161.8125 L 57.929688 149.324219 C 61.070312 145.128906 65.605469 142.191406 70.722656 141.050781 C 80.707031 138.832031 97.550781 135.539062 106.640625 136.320312 C 120.101562 137.480469 136.730469 138.710938 136.730469 138.710938 L 134.800781 167.578125 L 118.484375 166.363281 C 118.484375 166.363281 108.097656 190.582031 110.898438 204.570312 C 110.898438 204.570312 77.8125 219.367188 53.398438 224.957031 C 53.398438 224.957031 44.769531 191.132812 58.726562 167.578125 L 48.574219 161.8125 " fill-opacity="1" fill-rule="nonzero"/><path fill="#000000" d="M 91.773438 171.710938 L 94.273438 213.144531 C 94.3125 213.777344 93.96875 214.363281 93.40625 214.625 L 44.949219 237.265625 C 44.46875 237.492188 43.949219 237.425781 43.546875 237.167969 C 43.160156 236.917969 42.019531 236.199219 42.019531 236.199219 L 40.347656 194.527344 C 40.3125 193.894531 40.65625 193.308594 41.214844 193.046875 L 89.867188 169.65625 C 89.867188 169.65625 90.726562 170.253906 91.136719 170.546875 C 91.492188 170.800781 91.742188 171.210938 91.773438 171.710938 " fill-opacity="1" fill-rule="nonzero"/><path fill="#ffffff" d="M 90.230469 170.789062 L 92.734375 212.226562 C 92.773438 212.859375 92.425781 213.445312 91.867188 213.707031 L 43.542969 236.214844 C 42.59375 236.65625 41.507812 235.984375 41.445312 234.914062 L 38.941406 193.476562 C 38.902344 192.84375 39.246094 192.257812 39.808594 191.996094 L 88.132812 169.488281 C 89.078125 169.046875 90.167969 169.722656 90.230469 170.789062 " fill-opacity="1" fill-rule="nonzero"/><path fill="#000000" d="M 88.746094 169.964844 C 88.625 169.964844 88.503906 169.992188 88.390625 170.046875 L 40.066406 192.554688 C 39.738281 192.707031 39.53125 193.0625 39.554688 193.441406 L 42.058594 234.875 C 42.078125 235.191406 42.238281 235.460938 42.5 235.617188 C 42.746094 235.761719 43.027344 235.777344 43.285156 235.660156 L 91.609375 213.148438 C 91.9375 212.996094 92.140625 212.640625 92.117188 212.265625 L 89.617188 170.828125 C 89.597656 170.511719 89.4375 170.246094 89.175781 170.085938 C 89.039062 170.007812 88.894531 169.964844 88.746094 169.964844 Z M 42.933594 236.96875 C 42.5625 236.96875 42.195312 236.867188 41.871094 236.675781 C 41.261719 236.3125 40.871094 235.667969 40.828125 234.953125 L 38.328125 193.515625 C 38.273438 192.636719 38.765625 191.804688 39.546875 191.4375 L 87.871094 168.929688 C 88.492188 168.640625 89.214844 168.675781 89.804688 169.03125 C 90.414062 169.390625 90.804688 170.035156 90.847656 170.753906 L 93.347656 212.191406 C 93.402344 213.066406 92.910156 213.902344 92.128906 214.265625 L 43.804688 236.773438 C 43.527344 236.902344 43.230469 236.96875 42.933594 236.96875 " fill-opacity="1" fill-rule="nonzero"/><path fill="#ffffff" d="M 86.9375 167.519531 L 89.4375 208.957031 C 89.476562 209.589844 89.132812 210.175781 88.574219 210.4375 L 40.25 232.945312 C 39.300781 233.386719 38.214844 232.714844 38.148438 231.644531 L 35.648438 190.207031 C 35.609375 189.578125 35.953125 188.988281 36.511719 188.726562 L 84.835938 166.21875 C 85.785156 165.777344 86.871094 166.453125 86.9375 167.519531 " fill-opacity="1" fill-rule="nonzero"/><path fill="#000000" d="M 85.449219 166.695312 C 85.332031 166.695312 85.210938 166.722656 85.097656 166.777344 L 36.773438 189.285156 C 36.445312 189.4375 36.238281 189.792969 36.261719 190.171875 L 38.761719 231.609375 C 38.78125 231.921875 38.941406 232.191406 39.203125 232.347656 C 39.449219 232.492188 39.734375 232.507812 39.988281 232.386719 L 88.3125 209.882812 C 88.640625 209.726562 88.847656 209.371094 88.824219 208.996094 L 86.324219 167.558594 C 86.304688 167.246094 86.144531 166.972656 85.882812 166.816406 C 85.746094 166.738281 85.597656 166.695312 85.449219 166.695312 Z M 39.636719 233.699219 C 39.269531 233.699219 38.902344 233.601562 38.574219 233.40625 C 37.964844 233.042969 37.578125 232.398438 37.535156 231.683594 L 35.03125 190.246094 C 34.980469 189.367188 35.46875 188.535156 36.253906 188.167969 L 84.578125 165.660156 C 85.199219 165.371094 85.921875 165.410156 86.511719 165.757812 C 87.121094 166.125 87.507812 166.765625 87.550781 167.484375 L 90.054688 208.917969 C 90.105469 209.796875 89.617188 210.632812 88.832031 210.996094 L 40.507812 233.503906 C 40.230469 233.632812 39.933594 233.699219 39.636719 233.699219 " fill-opacity="1" fill-rule="nonzero"/><path fill="#ffcc9c" d="M 84.183594 171.101562 L 86.386719 207.609375 C 86.421875 208.167969 86.117188 208.683594 85.625 208.914062 L 43.046875 228.746094 C 42.210938 229.136719 41.253906 228.542969 41.195312 227.601562 L 38.992188 191.089844 C 38.957031 190.535156 39.261719 190.015625 39.753906 189.785156 L 82.332031 169.953125 C 83.167969 169.566406 84.128906 170.160156 84.183594 171.101562 " fill-opacity="1" fill-rule="nonzero"/><path fill="#000000" d="M 74.992188 214.472656 C 74.761719 214.472656 74.539062 214.339844 74.433594 214.113281 C 74.292969 213.808594 74.425781 213.441406 74.734375 213.296875 L 85.296875 208.378906 C 85.558594 208.253906 85.722656 207.96875 85.703125 207.667969 L 85.460938 203.617188 C 85.4375 203.277344 85.695312 202.984375 86.035156 202.964844 C 86.375 202.945312 86.667969 203.203125 86.6875 203.542969 L 86.933594 207.59375 C 86.980469 208.394531 86.53125 209.160156 85.816406 209.496094 L 75.253906 214.414062 C 75.167969 214.453125 75.082031 214.472656 74.992188 214.472656 " fill-opacity="1" fill-rule="nonzero"/><path fill="#000000" d="M 41.152344 189.796875 C 40.917969 189.796875 40.699219 189.667969 40.59375 189.445312 C 40.449219 189.136719 40.582031 188.769531 40.890625 188.625 L 47.875 185.351562 C 48.183594 185.207031 48.550781 185.335938 48.695312 185.644531 C 48.839844 185.953125 48.707031 186.320312 48.398438 186.464844 L 41.410156 189.742188 C 41.328125 189.777344 41.238281 189.796875 41.152344 189.796875 " fill-opacity="1" fill-rule="nonzero"/><path fill="#000000" d="M 42.4375 229.503906 C 42.101562 229.503906 41.765625 229.414062 41.464844 229.234375 C 40.90625 228.902344 40.550781 228.3125 40.511719 227.660156 L 38.515625 194.605469 C 38.496094 194.265625 38.753906 193.976562 39.09375 193.953125 C 39.433594 193.933594 39.722656 194.191406 39.746094 194.53125 L 41.742188 227.582031 C 41.757812 227.835938 41.886719 228.050781 42.09375 228.175781 C 42.289062 228.292969 42.515625 228.304688 42.714844 228.210938 L 52.5 223.65625 C 52.808594 223.511719 53.171875 223.644531 53.316406 223.949219 C 53.460938 224.257812 53.328125 224.625 53.019531 224.769531 L 43.238281 229.324219 C 42.984375 229.445312 42.710938 229.503906 42.4375 229.503906 " fill-opacity="1" fill-rule="nonzero"/><path fill="#ffffff" d="M 51.675781 163.316406 L 66.355469 171.953125 C 66.355469 171.953125 54.101562 191.960938 72.726562 213.148438 L 84.761719 211.671875 C 84.761719 211.671875 82.175781 213.601562 79.511719 214.085938 C 76.84375 214.570312 76.277344 217.40625 76.277344 217.40625 L 81.746094 220.410156 C 81.746094 220.410156 75.019531 226.667969 70.804688 224.226562 C 66.59375 221.785156 31.535156 195.527344 51.675781 163.316406 " fill-opacity="1" fill-rule="nonzero"/><path fill="#000000" d="M 51.882812 164.152344 C 46.394531 173.171875 44.800781 182.527344 47.144531 191.964844 C 51.398438 209.09375 67.382812 221.535156 71.113281 223.695312 C 74.175781 225.46875 78.941406 221.949219 80.671875 220.523438 L 75.980469 217.949219 C 75.742188 217.816406 75.617188 217.550781 75.671875 217.289062 C 75.699219 217.15625 76.359375 214.03125 79.402344 213.480469 C 80.265625 213.324219 81.128906 213 81.886719 212.644531 L 72.800781 213.761719 C 72.597656 213.785156 72.398438 213.707031 72.265625 213.554688 C 62.5 202.445312 61.261719 191.648438 61.945312 184.546875 C 62.554688 178.199219 64.710938 173.6875 65.523438 172.175781 Z M 73.023438 225.410156 C 72.144531 225.410156 71.285156 225.21875 70.496094 224.761719 C 66.675781 222.546875 50.304688 209.804688 45.949219 192.261719 C 43.480469 182.308594 45.230469 172.460938 51.152344 162.988281 C 51.328125 162.707031 51.699219 162.617188 51.984375 162.785156 L 66.667969 171.421875 C 66.808594 171.503906 66.914062 171.640625 66.953125 171.800781 C 66.992188 171.960938 66.96875 172.132812 66.882812 172.273438 C 66.851562 172.320312 63.867188 177.28125 63.164062 184.722656 C 62.523438 191.515625 63.714844 201.828125 72.976562 212.5 L 84.6875 211.0625 C 84.960938 211.027344 85.230469 211.183594 85.332031 211.445312 C 85.4375 211.703125 85.355469 212 85.128906 212.164062 C 85.019531 212.246094 82.394531 214.1875 79.621094 214.691406 C 77.960938 214.992188 77.257812 216.390625 77.003906 217.105469 L 82.042969 219.871094 C 82.214844 219.964844 82.332031 220.136719 82.355469 220.335938 C 82.378906 220.53125 82.308594 220.726562 82.164062 220.859375 C 81.925781 221.082031 77.21875 225.410156 73.023438 225.410156 " fill-opacity="1" fill-rule="nonzero"/><path fill="#000000" d="M 92.488281 127.628906 C 91.027344 128.539062 88.734375 129.96875 86.175781 129.207031 C 83.453125 128.390625 81.195312 125.320312 81.699219 123.261719 C 82.140625 121.460938 84.445312 121.5 84.800781 119.625 C 85.128906 117.855469 83.210938 117.1875 83.078125 115.015625 C 82.902344 112.121094 86.03125 108.671875 88.929688 108.589844 C 90.710938 108.535156 90.890625 109.800781 92.949219 109.921875 C 95.75 110.089844 96.308594 107.804688 99.492188 107.496094 C 101.785156 107.273438 103.652344 108.25 105.230469 109.074219 C 107.566406 110.292969 109.101562 111.09375 109.246094 112.347656 C 109.542969 114.914062 103.542969 115.324219 98 121.808594 C 95.984375 124.164062 95.226562 125.925781 92.488281 127.628906 " fill-opacity="1" fill-rule="nonzero"/><path fill="#ffffff" d="M 101.949219 129.769531 C 104.109375 123.902344 99.390625 116.441406 99.046875 115.824219 C 99.046875 115.824219 96.378906 118.046875 92.820312 117.808594 C 89.257812 117.570312 89.554688 122.386719 89.554688 122.386719 C 87.621094 121.960938 87.28125 123.265625 87.761719 125.921875 C 88.242188 128.578125 90.878906 127.800781 90.878906 127.800781 C 91.246094 128.238281 91.632812 128.621094 92.03125 128.957031 L 87.511719 135.644531 C 86.277344 137.46875 84.550781 138.910156 82.539062 139.800781 L 80.707031 140.609375 C 80.226562 140.820312 80.324219 141.523438 80.84375 141.59375 C 84.421875 142.074219 92.828125 142.675781 99.136719 139.003906 C 99.515625 138.78125 99.414062 138.207031 98.988281 138.117188 L 97.519531 137.804688 C 96.476562 137.582031 95.933594 136.425781 96.425781 135.480469 L 98.71875 131.097656 C 99.515625 131.0625 100.203125 130.957031 100.703125 130.851562 C 101.277344 130.734375 101.746094 130.324219 101.949219 129.769531 " fill-opacity="1" fill-rule="nonzero"/><path fill="#000000" d="M 98.859375 138.71875 L 98.863281 138.71875 Z M 81.277344 141.03125 C 84.746094 141.460938 92.566406 141.9375 98.519531 138.644531 L 97.390625 138.40625 C 96.703125 138.257812 96.140625 137.808594 95.839844 137.175781 C 95.539062 136.539062 95.554688 135.816406 95.882812 135.191406 L 98.171875 130.8125 C 98.273438 130.613281 98.472656 130.488281 98.691406 130.480469 C 99.328125 130.453125 99.960938 130.378906 100.578125 130.25 C 100.941406 130.175781 101.238281 129.914062 101.371094 129.558594 C 103.03125 125.050781 100.351562 119.363281 98.855469 116.722656 C 97.835938 117.394531 95.578125 118.613281 92.777344 118.421875 C 92.082031 118.375 91.542969 118.554688 91.132812 118.964844 C 90.226562 119.863281 90.132812 121.710938 90.171875 122.351562 C 90.179688 122.542969 90.101562 122.730469 89.957031 122.855469 C 89.808594 122.980469 89.613281 123.03125 89.421875 122.988281 C 89.085938 122.914062 88.640625 122.867188 88.4375 123.0625 C 88.21875 123.273438 88.027344 123.921875 88.367188 125.808594 C 88.476562 126.414062 88.710938 126.820312 89.089844 127.054688 C 89.761719 127.46875 90.695312 127.210938 90.707031 127.210938 C 90.941406 127.140625 91.195312 127.21875 91.351562 127.40625 C 91.675781 127.796875 92.039062 128.160156 92.429688 128.488281 C 92.667969 128.691406 92.714844 129.039062 92.539062 129.300781 L 88.019531 135.988281 C 86.722656 137.910156 84.910156 139.425781 82.785156 140.363281 Z M 86.207031 142.5625 C 83.9375 142.5625 82.003906 142.371094 80.761719 142.203125 C 80.253906 142.136719 79.863281 141.75 79.792969 141.242188 C 79.71875 140.734375 79.988281 140.25 80.457031 140.042969 L 82.289062 139.234375 C 84.199219 138.390625 85.832031 137.03125 87 135.300781 L 91.21875 129.058594 C 91.023438 128.871094 90.832031 128.675781 90.648438 128.476562 C 90.136719 128.550781 89.230469 128.585938 88.441406 128.101562 C 87.761719 127.679688 87.328125 126.984375 87.15625 126.03125 C 86.785156 123.972656 86.914062 122.820312 87.585938 122.175781 C 87.925781 121.847656 88.394531 121.6875 88.945312 121.695312 C 88.992188 120.75 89.234375 119.113281 90.261719 118.089844 C 90.933594 117.425781 91.804688 117.125 92.859375 117.195312 C 96.121094 117.414062 98.628906 115.371094 98.652344 115.351562 C 98.792969 115.234375 98.976562 115.1875 99.160156 115.21875 C 99.335938 115.253906 99.492188 115.367188 99.582031 115.523438 L 99.664062 115.664062 C 101.535156 118.832031 104.394531 124.90625 102.527344 129.984375 C 102.246094 130.742188 101.609375 131.292969 100.824219 131.457031 C 100.261719 131.570312 99.683594 131.652344 99.101562 131.691406 L 96.972656 135.765625 C 96.828125 136.042969 96.820312 136.367188 96.953125 136.652344 C 97.085938 136.933594 97.339844 137.136719 97.648438 137.199219 L 99.117188 137.511719 C 99.5625 137.609375 99.898438 137.964844 99.972656 138.417969 C 100.046875 138.867188 99.839844 139.304688 99.445312 139.535156 C 95.277344 141.960938 90.21875 142.5625 86.207031 142.5625 " fill-opacity="1" fill-rule="nonzero"/><path fill="#000000" d="M 98.148438 131.746094 C 96.117188 131.746094 94.257812 130.632812 94.167969 130.582031 C 93.878906 130.40625 93.785156 130.027344 93.960938 129.738281 C 94.136719 129.445312 94.515625 129.351562 94.808594 129.53125 C 94.835938 129.546875 96.8125 130.71875 98.640625 130.484375 C 98.976562 130.441406 99.285156 130.679688 99.328125 131.019531 C 99.371094 131.355469 99.132812 131.664062 98.796875 131.707031 C 98.578125 131.734375 98.363281 131.746094 98.148438 131.746094 " fill-opacity="1" fill-rule="nonzero"/><path fill="#000000" d="M 89.03125 146.007812 C 80.519531 146.007812 75.054688 142.519531 74.972656 142.46875 C 74.6875 142.28125 74.609375 141.902344 74.796875 141.617188 C 74.980469 141.332031 75.363281 141.253906 75.648438 141.4375 C 75.765625 141.511719 87.46875 148.945312 103.308594 141.398438 C 103.617188 141.25 103.984375 141.382812 104.128906 141.6875 C 104.273438 141.996094 104.144531 142.363281 103.839844 142.511719 C 98.332031 145.132812 93.300781 146.007812 89.03125 146.007812 " fill-opacity="1" fill-rule="nonzero"/><path fill="#000000" d="M 274.75 315.816406 C 274.566406 315.816406 274.386719 315.738281 274.265625 315.585938 C 274.054688 315.320312 274.101562 314.933594 274.367188 314.71875 C 292.441406 300.328125 306.890625 281.9375 316.15625 261.535156 C 316.296875 261.226562 316.660156 261.089844 316.972656 261.230469 C 317.28125 261.371094 317.417969 261.738281 317.277344 262.046875 C 307.933594 282.621094 293.363281 301.167969 275.132812 315.683594 C 275.019531 315.773438 274.882812 315.816406 274.75 315.816406 " fill-opacity="1" fill-rule="nonzero"/><path fill="#000000" d="M 270.121094 330.292969 C 269.929688 330.292969 269.742188 330.203125 269.621094 330.039062 C 269.421875 329.761719 269.484375 329.375 269.761719 329.179688 C 289.414062 314.976562 305.460938 296.410156 316.171875 275.480469 C 316.324219 275.175781 316.699219 275.054688 317 275.210938 C 317.300781 275.367188 317.421875 275.738281 317.265625 276.039062 C 306.46875 297.140625 290.292969 315.863281 270.484375 330.175781 C 270.375 330.253906 270.246094 330.292969 270.121094 330.292969 " fill-opacity="1" fill-rule="nonzero"/><path fill="#000000" d="M 320.335938 281.152344 C 319.121094 281.152344 318.132812 282.136719 318.132812 283.351562 C 318.132812 284.5625 319.121094 285.550781 320.335938 285.550781 C 321.550781 285.550781 322.535156 284.5625 322.535156 283.351562 C 322.535156 282.136719 321.550781 281.152344 320.335938 281.152344 Z M 320.335938 286.78125 C 318.441406 286.78125 316.902344 285.242188 316.902344 283.351562 C 316.902344 281.460938 318.441406 279.921875 320.335938 279.921875 C 322.226562 279.921875 323.765625 281.460938 323.765625 283.351562 C 323.765625 285.242188 322.226562 286.78125 320.335938 286.78125 " fill-opacity="1" fill-rule="nonzero"/><path fill="#000000" d="M 310.003906 295.910156 L 316.820312 296.5625 L 313.5625 290.609375 C 312.84375 291.859375 311.5 294.066406 310.003906 295.910156 Z M 317.917969 297.898438 C 317.902344 297.898438 317.878906 297.898438 317.859375 297.898438 L 308.699219 297.019531 C 308.46875 297 308.269531 296.847656 308.1875 296.628906 C 308.101562 296.414062 308.148438 296.164062 308.308594 295.992188 C 310.703125 293.386719 313.003906 289.089844 313.027344 289.046875 C 313.132812 288.847656 313.339844 288.722656 313.5625 288.722656 C 313.804688 288.726562 314 288.84375 314.109375 289.042969 L 318.460938 296.988281 C 318.570312 297.1875 318.558594 297.433594 318.433594 297.621094 C 318.320312 297.796875 318.125 297.898438 317.917969 297.898438 " fill-opacity="1" fill-rule="nonzero"/><path fill="#000000" d="M 306.421875 101.164062 C 306.082031 101.164062 305.804688 100.890625 305.804688 100.550781 L 305.804688 97.367188 C 305.804688 97.023438 306.082031 96.75 306.421875 96.75 C 306.761719 96.75 307.039062 97.023438 307.039062 97.367188 L 307.039062 100.550781 C 307.039062 100.890625 306.761719 101.164062 306.421875 101.164062 " fill-opacity="1" fill-rule="nonzero"/><path fill="#000000" d="M 306.421875 108.582031 C 306.082031 108.582031 305.804688 108.304688 305.804688 107.964844 L 305.804688 104.78125 C 305.804688 104.441406 306.082031 104.164062 306.421875 104.164062 C 306.761719 104.164062 307.039062 104.441406 307.039062 104.78125 L 307.039062 107.964844 C 307.039062 108.304688 306.761719 108.582031 306.421875 108.582031 " fill-opacity="1" fill-rule="nonzero"/><path fill="#000000" d="M 304.304688 103.28125 L 301.121094 103.28125 C 300.78125 103.28125 300.503906 103.003906 300.503906 102.664062 C 300.503906 102.324219 300.78125 102.050781 301.121094 102.050781 L 304.304688 102.050781 C 304.644531 102.050781 304.921875 102.324219 304.921875 102.664062 C 304.921875 103.003906 304.644531 103.28125 304.304688 103.28125 " fill-opacity="1" fill-rule="nonzero"/><path fill="#000000" d="M 311.71875 103.28125 L 308.535156 103.28125 C 308.199219 103.28125 307.921875 103.007812 307.921875 102.667969 C 307.921875 102.328125 308.199219 102.050781 308.535156 102.050781 L 311.71875 102.050781 C 312.058594 102.050781 312.335938 102.328125 312.335938 102.667969 C 312.335938 103.007812 312.058594 103.28125 311.71875 103.28125 " fill-opacity="1" fill-rule="nonzero"/><path fill="#000000" d="M 57.335938 270.890625 L 57.339844 270.890625 Z M 59.050781 271.136719 C 58.554688 271.136719 58.058594 271.242188 57.585938 271.453125 C 55.738281 272.285156 54.898438 274.496094 55.714844 276.386719 C 56.113281 277.304688 56.839844 278.011719 57.757812 278.367188 C 58.65625 278.71875 59.636719 278.691406 60.519531 278.296875 C 62.367188 277.46875 63.207031 275.253906 62.390625 273.367188 C 61.996094 272.445312 61.269531 271.742188 60.347656 271.382812 C 59.925781 271.21875 59.488281 271.136719 59.050781 271.136719 Z M 59.054688 279.84375 C 58.464844 279.84375 57.878906 279.734375 57.3125 279.515625 C 56.082031 279.039062 55.113281 278.097656 54.585938 276.871094 C 53.503906 274.367188 54.625 271.433594 57.082031 270.332031 C 58.269531 269.800781 59.585938 269.765625 60.792969 270.234375 C 62.023438 270.714844 62.992188 271.652344 63.523438 272.878906 C 64.601562 275.382812 63.480469 278.316406 61.023438 279.417969 C 60.394531 279.703125 59.726562 279.84375 59.054688 279.84375 " fill-opacity="1" fill-rule="nonzero"/></svg>