<svg xmlns="http://www.w3.org/2000/svg" xmlns:xlink="http://www.w3.org/1999/xlink" width="500" zoomAndPan="magnify" viewBox="0 0 375 374.999991" height="500" preserveAspectRatio="xMidYMid meet" version="1.0"><path fill="#ffcc9c" d="M 15.023438 141.261719 C 33.105469 59.652344 112.832031 11.5625 181.324219 5.242188 C 238.0625 0.00390625 307.808594 13.230469 339.589844 65.800781 C 359.066406 98.007812 335.042969 112.191406 348.515625 183.480469 C 360.171875 245.183594 380.585938 267.273438 367.648438 298.71875 C 357.070312 324.429688 332.351562 336.589844 316.554688 344.363281 C 254.277344 375 141.074219 371.8125 72.964844 315.925781 C 57.023438 302.847656 -5.582031 234.246094 15.023438 141.261719 " fill-opacity="1" fill-rule="nonzero"/><path fill="#ffffff" d="M 333.027344 70.007812 C 324.484375 72.351562 315.660156 67.316406 313.320312 58.769531 C 310.980469 50.21875 316.011719 41.390625 324.554688 39.050781 C 333.097656 36.707031 341.921875 41.738281 344.257812 50.289062 C 346.597656 58.839844 341.570312 67.667969 333.027344 70.007812 Z M 360.699219 49.015625 L 359.054688 43.003906 L 352.257812 43.3125 C 351.625 41.992188 350.894531 40.734375 350.074219 39.558594 L 353.671875 33.789062 L 349.242188 29.40625 L 343.507812 33.074219 C 342.3125 32.257812 341.054688 31.539062 339.738281 30.929688 L 339.976562 24.121094 L 333.949219 22.539062 L 330.820312 28.574219 C 329.390625 28.464844 327.941406 28.476562 326.480469 28.609375 L 323.28125 22.597656 L 317.273438 24.242188 L 317.582031 31.046875 C 316.257812 31.675781 315.007812 32.40625 313.832031 33.234375 L 308.066406 29.628906 L 303.6875 34.0625 L 307.351562 39.800781 C 306.53125 40.996094 305.816406 42.257812 305.203125 43.570312 L 298.402344 43.335938 L 296.824219 49.367188 L 302.859375 52.496094 C 302.746094 53.925781 302.753906 55.378906 302.890625 56.839844 L 296.882812 60.039062 L 298.527344 66.054688 L 305.324219 65.746094 C 305.953125 67.066406 306.683594 68.324219 307.511719 69.5 L 303.910156 75.269531 L 308.339844 79.652344 L 314.074219 75.984375 C 315.269531 76.800781 316.527344 77.519531 317.839844 78.128906 L 317.605469 84.9375 L 323.632812 86.519531 L 326.757812 80.480469 C 328.1875 80.589844 329.640625 80.582031 331.097656 80.449219 L 334.296875 86.460938 L 340.304688 84.8125 L 339.996094 78.011719 C 341.320312 77.378906 342.574219 76.652344 343.746094 75.824219 L 349.515625 79.425781 L 353.894531 74.992188 L 350.226562 69.257812 C 351.046875 68.058594 351.765625 66.800781 352.375 65.488281 L 359.175781 65.722656 L 360.757812 59.691406 L 354.722656 56.5625 C 354.835938 55.128906 354.824219 53.675781 354.691406 52.21875 L 360.699219 49.015625 " fill-opacity="1" fill-rule="nonzero"/><path fill="#000000" d="M 328.816406 39.121094 C 327.453125 39.121094 326.078125 39.308594 324.730469 39.675781 C 316.546875 41.917969 311.714844 50.402344 313.953125 58.59375 C 315.039062 62.558594 317.601562 65.867188 321.171875 67.902344 C 324.742188 69.941406 328.894531 70.464844 332.855469 69.378906 C 341.039062 67.136719 345.875 58.652344 343.632812 50.460938 C 342.546875 46.496094 339.980469 43.1875 336.414062 41.152344 C 334.058594 39.808594 331.453125 39.121094 328.816406 39.121094 Z M 328.765625 71.238281 C 325.902344 71.238281 323.078125 70.496094 320.527344 69.039062 C 316.648438 66.828125 313.871094 63.242188 312.695312 58.9375 C 310.261719 50.054688 315.503906 40.851562 324.386719 38.417969 C 328.683594 37.238281 333.1875 37.804688 337.058594 40.015625 C 340.929688 42.226562 343.714844 45.8125 344.890625 50.117188 C 347.320312 58.996094 342.074219 68.203125 333.199219 70.636719 C 331.734375 71.039062 330.246094 71.238281 328.765625 71.238281 Z M 318.277344 84.4375 L 323.292969 85.753906 L 326.382812 79.792969 L 326.8125 79.828125 C 328.195312 79.9375 329.617188 79.925781 331.042969 79.796875 L 331.476562 79.757812 L 334.628906 85.691406 L 339.632812 84.320312 L 339.328125 77.605469 L 339.71875 77.417969 C 341.011719 76.804688 342.238281 76.089844 343.375 75.289062 L 343.730469 75.039062 L 349.417969 78.59375 L 353.066406 74.90625 L 349.449219 69.242188 L 349.691406 68.882812 C 350.488281 67.722656 351.191406 66.488281 351.785156 65.210938 L 351.96875 64.820312 L 358.679688 65.050781 L 359.992188 60.027344 L 354.039062 56.9375 L 354.074219 56.507812 C 354.183594 55.125 354.171875 53.699219 354.042969 52.273438 L 354.003906 51.84375 L 359.933594 48.683594 L 358.5625 43.679688 L 351.855469 43.984375 L 351.667969 43.589844 C 351.050781 42.300781 350.335938 41.070312 349.539062 39.933594 L 349.289062 39.578125 L 352.839844 33.882812 L 349.152344 30.234375 L 343.496094 33.855469 L 343.140625 33.613281 C 341.980469 32.816406 340.742188 32.109375 339.464844 31.515625 L 339.074219 31.332031 L 339.308594 24.617188 L 334.289062 23.300781 L 331.203125 29.257812 L 330.769531 29.226562 C 329.386719 29.117188 327.964844 29.128906 326.539062 29.257812 L 326.109375 29.296875 L 322.953125 23.363281 L 317.953125 24.734375 L 318.253906 31.449219 L 317.863281 31.632812 C 316.574219 32.25 315.34375 32.964844 314.210938 33.765625 L 313.855469 34.015625 L 308.164062 30.460938 L 304.519531 34.148438 L 308.136719 39.8125 L 307.894531 40.167969 C 307.097656 41.332031 306.390625 42.566406 305.796875 43.84375 L 305.617188 44.234375 L 298.902344 44.003906 L 297.585938 49.023438 L 303.542969 52.113281 L 303.511719 52.546875 C 303.402344 53.929688 303.410156 55.355469 303.539062 56.78125 L 303.578125 57.210938 L 297.652344 60.371094 L 299.019531 65.375 L 305.730469 65.070312 L 305.914062 65.460938 C 306.527344 66.753906 307.246094 67.984375 308.042969 69.121094 L 308.292969 69.476562 L 304.742188 75.167969 L 308.429688 78.820312 L 314.085938 75.195312 L 314.445312 75.441406 C 315.605469 76.238281 316.839844 76.945312 318.117188 77.535156 L 318.511719 77.722656 Z M 323.972656 87.28125 L 316.9375 85.433594 L 317.175781 78.535156 C 316.101562 78.015625 315.058594 77.417969 314.0625 76.761719 L 308.253906 80.480469 L 303.082031 75.363281 L 306.730469 69.511719 C 306.070312 68.535156 305.464844 67.496094 304.925781 66.414062 L 298.039062 66.726562 L 296.117188 59.707031 L 302.203125 56.464844 C 302.117188 55.257812 302.109375 54.054688 302.175781 52.878906 L 296.058594 49.703125 L 297.90625 42.664062 L 304.800781 42.902344 C 305.320312 41.828125 305.914062 40.785156 306.574219 39.789062 L 302.855469 33.972656 L 307.972656 28.800781 L 313.816406 32.449219 C 314.792969 31.785156 315.832031 31.183594 316.914062 30.644531 L 316.597656 23.75 L 323.617188 21.828125 L 326.855469 27.921875 C 328.058594 27.832031 329.261719 27.824219 330.441406 27.894531 L 333.609375 21.769531 L 340.648438 23.617188 L 340.410156 30.519531 C 341.480469 31.039062 342.523438 31.632812 343.519531 32.292969 L 349.332031 28.570312 L 354.503906 33.691406 L 350.851562 39.539062 C 351.515625 40.519531 352.121094 41.558594 352.65625 42.636719 L 359.546875 42.328125 L 361.46875 49.347656 L 355.378906 52.589844 C 355.472656 53.796875 355.476562 55 355.40625 56.175781 L 361.523438 59.351562 L 359.679688 66.390625 L 352.78125 66.152344 C 352.265625 67.226562 351.667969 68.269531 351.007812 69.261719 L 354.730469 75.082031 L 349.613281 80.253906 L 343.769531 76.605469 C 342.792969 77.265625 341.753906 77.871094 340.671875 78.410156 L 340.984375 85.304688 L 333.96875 87.226562 L 330.726562 81.136719 C 329.523438 81.222656 328.320312 81.230469 327.140625 81.160156 L 323.972656 87.28125 " fill-opacity="1" fill-rule="nonzero"/><path fill="#ff914d" d="M 242.925781 362.804688 L 96.214844 362.804688 C 89.894531 362.804688 85.414062 357.699219 86.210938 351.394531 L 122.335938 66.011719 C 123.132812 59.710938 128.90625 54.601562 135.226562 54.601562 L 274.574219 52.972656 C 290.566406 52.972656 292.738281 59.710938 291.941406 66.011719 L 255.816406 351.394531 C 255.019531 357.699219 249.246094 362.804688 242.925781 362.804688 " fill-opacity="1" fill-rule="nonzero"/><path fill="#ffffff" d="M 234.09375 362.808594 L 87.386719 362.808594 C 81.0625 362.808594 76.585938 357.679688 77.382812 351.359375 L 113.507812 65.070312 C 114.304688 58.75 120.078125 53.621094 126.398438 53.621094 L 273.109375 53.621094 C 279.433594 53.621094 283.910156 58.75 283.113281 65.070312 L 246.988281 351.359375 C 246.1875 357.679688 240.417969 362.808594 234.09375 362.808594 " fill-opacity="1" fill-rule="nonzero"/><path fill="#ffcc9c" d="M 85.746094 351.753906 L 120.238281 78.394531 C 120.421875 76.933594 121.753906 75.753906 123.210938 75.753906 L 270.710938 75.753906 C 272.167969 75.753906 273.203125 76.9375 273.019531 78.394531 L 238.527344 351.753906 C 238.339844 353.214844 237.011719 354.394531 235.550781 354.394531 L 88.054688 354.394531 C 86.59375 354.394531 85.558594 353.214844 85.746094 351.753906 " fill-opacity="1" fill-rule="nonzero"/><path fill="#000000" d="M 86.390625 351.835938 C 86.328125 352.355469 86.464844 352.839844 86.777344 353.195312 C 87.089844 353.550781 87.542969 353.742188 88.054688 353.742188 L 235.554688 353.742188 C 236.691406 353.742188 237.738281 352.816406 237.878906 351.671875 L 272.375 78.308594 C 272.4375 77.789062 272.304688 77.304688 271.988281 76.949219 C 271.675781 76.597656 271.226562 76.402344 270.710938 76.402344 L 123.214844 76.402344 C 122.074219 76.402344 121.03125 77.332031 120.886719 78.472656 Z M 235.554688 355.050781 L 88.054688 355.050781 C 87.164062 355.050781 86.363281 354.699219 85.800781 354.058594 C 85.234375 353.417969 84.984375 352.570312 85.097656 351.671875 L 119.589844 78.308594 C 119.8125 76.539062 121.4375 75.097656 123.214844 75.097656 L 270.710938 75.097656 C 271.605469 75.097656 272.40625 75.449219 272.96875 76.085938 C 273.535156 76.726562 273.785156 77.578125 273.667969 78.476562 L 239.175781 351.835938 C 238.953125 353.605469 237.328125 355.050781 235.554688 355.050781 " fill-opacity="1" fill-rule="nonzero"/><path fill="#ffcc9c" d="M 197.917969 68.179688 C 195.550781 68.179688 193.871094 66.261719 194.171875 63.890625 C 194.46875 61.523438 196.632812 59.605469 199 59.605469 C 201.367188 59.605469 203.046875 61.523438 202.75 63.890625 C 202.449219 66.261719 200.285156 68.179688 197.917969 68.179688 " fill-opacity="1" fill-rule="nonzero"/><path fill="#000000" d="M 234.097656 363.460938 L 87.386719 363.460938 C 84.15625 363.460938 81.269531 362.203125 79.253906 359.917969 C 77.21875 357.609375 76.324219 354.542969 76.734375 351.277344 L 82.0625 309.054688 C 82.109375 308.695312 82.4375 308.441406 82.792969 308.484375 C 83.152344 308.53125 83.40625 308.859375 83.359375 309.21875 L 78.03125 351.441406 C 77.667969 354.328125 78.449219 357.03125 80.234375 359.054688 C 81.996094 361.050781 84.535156 362.15625 87.386719 362.15625 L 234.097656 362.15625 C 240.09375 362.15625 245.582031 357.273438 246.339844 351.277344 L 282.464844 64.984375 C 282.828125 62.101562 282.050781 59.394531 280.265625 57.375 C 278.5 55.375 275.960938 54.273438 273.109375 54.273438 L 191.933594 54.273438 C 191.570312 54.273438 191.277344 53.980469 191.277344 53.621094 C 191.277344 53.257812 191.570312 52.96875 191.933594 52.96875 L 273.109375 52.96875 C 276.339844 52.96875 279.230469 54.226562 281.242188 56.507812 C 283.28125 58.816406 284.171875 61.886719 283.761719 65.148438 L 247.636719 351.441406 C 246.800781 358.066406 240.726562 363.460938 234.097656 363.460938 " fill-opacity="1" fill-rule="nonzero"/><path fill="#000000" d="M 100.574219 168.230469 C 100.546875 168.230469 100.519531 168.226562 100.492188 168.222656 C 100.132812 168.179688 99.878906 167.851562 99.925781 167.496094 L 106.386719 116.304688 C 106.429688 115.945312 106.753906 115.695312 107.113281 115.738281 C 107.472656 115.785156 107.726562 116.109375 107.679688 116.46875 L 101.222656 167.660156 C 101.179688 167.988281 100.898438 168.230469 100.574219 168.230469 " fill-opacity="1" fill-rule="nonzero"/><path fill="#ffffff" d="M 259.027344 91.125 C 259.375 88.078125 257.140625 85.613281 254.035156 85.613281 L 211.75 85.613281 C 208.640625 85.613281 205.828125 88.078125 205.464844 91.125 L 198.777344 146.988281 C 198.410156 150.0625 200.644531 152.644531 203.769531 152.644531 L 246.296875 152.644531 C 249.421875 152.644531 252.246094 150.0625 252.597656 146.988281 L 259.027344 91.125 " fill-opacity="1" fill-rule="nonzero"/><path fill="#ff914d" d="M 211.996094 86.050781 C 209.210938 86.050781 206.679688 88.265625 206.351562 90.988281 L 199.671875 146.847656 C 199.511719 148.164062 199.882812 149.40625 200.714844 150.339844 C 201.535156 151.265625 202.707031 151.773438 204.015625 151.773438 L 246.542969 151.773438 C 249.289062 151.773438 251.878906 149.449219 252.195312 146.695312 L 258.621094 90.875 C 258.769531 89.59375 258.402344 88.386719 257.589844 87.476562 C 256.769531 86.558594 255.59375 86.050781 254.277344 86.050781 Z M 246.542969 153.078125 L 204.015625 153.078125 C 202.328125 153.078125 200.808594 152.414062 199.734375 151.203125 C 198.65625 149.988281 198.171875 148.386719 198.375 146.691406 L 205.058594 90.832031 C 205.460938 87.472656 208.570312 84.742188 211.996094 84.742188 L 254.277344 84.742188 C 255.96875 84.742188 257.496094 85.40625 258.566406 86.609375 C 259.628906 87.800781 260.109375 89.367188 259.914062 91.023438 L 253.492188 146.847656 C 253.09375 150.28125 249.980469 153.078125 246.542969 153.078125 " fill-opacity="1" fill-rule="nonzero"/><path fill="#ffffff" d="M 249.476562 173.964844 C 249.832031 170.878906 247.585938 168.3125 244.453125 168.3125 L 122.542969 168.3125 C 119.414062 168.3125 116.550781 170.878906 116.160156 173.964844 L 107.929688 239.050781 C 107.535156 242.171875 109.75 244.917969 112.898438 244.917969 L 235.640625 244.917969 C 238.789062 244.917969 241.640625 242.171875 242 239.050781 L 249.476562 173.964844 " fill-opacity="1" fill-rule="nonzero"/><path fill="#ff914d" d="M 122.789062 168.746094 C 120.027344 168.746094 117.402344 171.074219 117.050781 173.832031 L 108.824219 238.914062 C 108.652344 240.28125 109.046875 241.628906 109.910156 242.609375 C 110.730469 243.539062 111.878906 244.046875 113.148438 244.046875 L 235.886719 244.046875 C 238.65625 244.046875 241.269531 241.640625 241.597656 238.792969 L 249.070312 173.753906 C 249.222656 172.433594 248.828125 171.136719 247.984375 170.1875 C 247.15625 169.257812 245.988281 168.746094 244.699219 168.746094 Z M 235.886719 245.355469 L 113.148438 245.355469 C 111.5 245.355469 110 244.6875 108.933594 243.472656 C 107.820312 242.210938 107.308594 240.492188 107.53125 238.75 L 115.757812 173.667969 C 116.191406 170.234375 119.347656 167.441406 122.789062 167.441406 L 244.699219 167.441406 C 246.367188 167.441406 247.878906 168.109375 248.957031 169.320312 C 250.050781 170.542969 250.5625 172.214844 250.367188 173.90625 L 242.894531 238.941406 C 242.484375 242.480469 239.34375 245.355469 235.886719 245.355469 " fill-opacity="1" fill-rule="nonzero"/><path fill="#ffffff" d="M 239.179688 263.308594 C 239.542969 260.171875 237.28125 257.542969 234.128906 257.542969 L 111.292969 257.542969 C 108.136719 257.542969 105.246094 260.171875 104.851562 263.308594 L 96.5625 328.785156 C 96.160156 331.957031 98.402344 334.582031 101.574219 334.582031 L 225.230469 334.582031 C 228.40625 334.582031 231.277344 331.957031 231.644531 328.785156 L 239.179688 263.308594 " fill-opacity="1" fill-rule="nonzero"/><path fill="#ff914d" d="M 111.542969 257.976562 C 108.757812 257.976562 106.105469 260.355469 105.746094 263.171875 L 97.464844 328.648438 C 97.289062 330.015625 97.660156 331.300781 98.507812 332.265625 C 99.332031 333.199219 100.511719 333.710938 101.832031 333.710938 L 225.484375 333.710938 C 228.332031 333.710938 230.914062 331.390625 231.242188 328.542969 L 238.777344 263.019531 C 238.9375 261.660156 238.550781 260.382812 237.691406 259.421875 C 236.863281 258.488281 235.683594 257.976562 234.375 257.976562 Z M 225.484375 335.015625 L 101.832031 335.015625 C 100.132812 335.015625 98.601562 334.347656 97.53125 333.125 C 96.429688 331.882812 95.945312 330.230469 96.167969 328.484375 L 104.453125 263.007812 C 104.894531 259.511719 108.074219 256.671875 111.542969 256.671875 L 234.375 256.671875 C 236.0625 256.671875 237.585938 257.339844 238.667969 258.554688 C 239.761719 259.777344 240.273438 261.460938 240.078125 263.164062 L 232.539062 328.691406 C 232.136719 332.179688 228.96875 335.015625 225.484375 335.015625 " fill-opacity="1" fill-rule="nonzero"/><path fill="#ff914d" d="M 192.070312 184.0625 C 191.921875 185.269531 190.8125 186.25 189.589844 186.25 L 128.710938 186.25 C 127.488281 186.25 126.621094 185.269531 126.769531 184.0625 C 126.921875 182.851562 128.039062 181.875 129.261719 181.875 L 190.113281 181.875 C 191.339844 181.875 192.214844 182.851562 192.070312 184.0625 " fill-opacity="1" fill-rule="nonzero"/><path fill="#ff914d" d="M 214.234375 184.214844 C 214.09375 185.425781 212.988281 186.214844 211.761719 186.214844 L 197.25 186.214844 C 196.023438 186.214844 195.144531 185.425781 195.289062 184.214844 C 195.433594 183.007812 196.539062 182.214844 197.761719 182.214844 L 212.273438 182.214844 C 213.496094 182.214844 214.375 183.007812 214.234375 184.214844 " fill-opacity="1" fill-rule="nonzero"/><path fill="#ff914d" d="M 236.40625 184.214844 C 236.265625 185.425781 235.160156 186.214844 233.9375 186.214844 L 219.421875 186.214844 C 218.199219 186.214844 217.316406 185.425781 217.460938 184.214844 C 217.601562 183.007812 218.707031 182.214844 219.933594 182.214844 L 234.441406 182.214844 C 235.664062 182.214844 236.546875 183.007812 236.40625 184.214844 " fill-opacity="1" fill-rule="nonzero"/><path fill="#ff914d" d="M 169.75 195.214844 C 169.601562 196.421875 170.476562 197.40625 171.703125 197.40625 L 232.640625 197.40625 C 233.867188 197.40625 234.976562 196.421875 235.117188 195.214844 C 235.253906 194 234.375 193.019531 233.152344 193.019531 L 172.234375 193.019531 C 171.011719 193.019531 169.898438 194 169.75 195.214844 " fill-opacity="1" fill-rule="nonzero"/><path fill="#ff914d" d="M 166.519531 195.207031 C 166.667969 193.996094 165.808594 193.011719 164.582031 193.011719 L 150.0625 193.011719 C 148.839844 193.011719 147.707031 193.996094 147.554688 195.207031 C 147.40625 196.417969 148.261719 197.40625 149.488281 197.40625 L 164.019531 197.40625 C 165.246094 197.40625 166.371094 196.417969 166.519531 195.207031 " fill-opacity="1" fill-rule="nonzero"/><path fill="#ff914d" d="M 144.328125 195.207031 C 144.480469 193.996094 143.625 193.011719 142.398438 193.011719 L 127.878906 193.011719 C 126.652344 193.011719 125.515625 193.996094 125.363281 195.207031 C 125.210938 196.417969 126.0625 197.40625 127.285156 197.40625 L 141.816406 197.40625 C 143.042969 197.40625 144.179688 196.417969 144.328125 195.207031 " fill-opacity="1" fill-rule="nonzero"/><path fill="#ff914d" d="M 189.390625 206.390625 C 189.246094 207.605469 188.132812 208.585938 186.90625 208.585938 L 125.902344 208.585938 C 124.675781 208.585938 123.804688 207.605469 123.957031 206.390625 C 124.109375 205.175781 125.230469 204.191406 126.457031 204.191406 L 187.433594 204.191406 C 188.660156 204.191406 189.539062 205.175781 189.390625 206.390625 " fill-opacity="1" fill-rule="nonzero"/><path fill="#ff914d" d="M 211.601562 206.402344 C 211.457031 207.617188 210.34375 208.601562 209.117188 208.601562 L 194.570312 208.601562 C 193.34375 208.601562 192.46875 207.617188 192.613281 206.402344 C 192.757812 205.1875 193.871094 204.203125 195.097656 204.203125 L 209.636719 204.203125 C 210.863281 204.203125 211.742188 205.1875 211.601562 206.402344 " fill-opacity="1" fill-rule="nonzero"/><path fill="#ff914d" d="M 233.816406 206.402344 C 233.679688 207.617188 232.570312 208.601562 231.339844 208.601562 L 216.792969 208.601562 C 215.566406 208.601562 214.6875 207.617188 214.832031 206.402344 C 214.972656 205.1875 216.085938 204.203125 217.3125 204.203125 L 231.851562 204.203125 C 233.078125 204.203125 233.957031 205.1875 233.816406 206.402344 " fill-opacity="1" fill-rule="nonzero"/><path fill="#ff914d" d="M 167.023438 217.585938 C 166.875 218.804688 167.753906 219.789062 168.980469 219.789062 L 230.046875 219.789062 C 231.273438 219.789062 232.382812 218.804688 232.527344 217.585938 C 232.664062 216.371094 231.785156 215.386719 230.558594 215.386719 L 169.515625 215.386719 C 168.289062 215.386719 167.171875 216.371094 167.023438 217.585938 " fill-opacity="1" fill-rule="nonzero"/><path fill="#ff914d" d="M 163.792969 217.59375 C 163.941406 216.378906 163.070312 215.398438 161.84375 215.398438 L 147.292969 215.398438 C 146.0625 215.398438 144.941406 216.378906 144.789062 217.59375 C 144.640625 218.808594 145.507812 219.792969 146.734375 219.792969 L 161.296875 219.792969 C 162.523438 219.792969 163.644531 218.808594 163.792969 217.59375 " fill-opacity="1" fill-rule="nonzero"/><path fill="#ff914d" d="M 141.554688 217.59375 C 141.707031 216.378906 140.839844 215.398438 139.613281 215.398438 L 125.0625 215.398438 C 123.832031 215.398438 122.707031 216.378906 122.554688 217.59375 C 122.402344 218.808594 123.265625 219.792969 124.492188 219.792969 L 139.054688 219.792969 C 140.28125 219.792969 141.40625 218.808594 141.554688 217.59375 " fill-opacity="1" fill-rule="nonzero"/><path fill="#ff914d" d="M 186.703125 228.8125 C 186.558594 230.03125 185.441406 231.019531 184.210938 231.019531 L 123.082031 231.019531 C 121.851562 231.019531 120.980469 230.03125 121.132812 228.8125 C 121.289062 227.589844 122.410156 226.605469 123.636719 226.605469 L 184.742188 226.605469 C 185.972656 226.605469 186.847656 227.589844 186.703125 228.8125 " fill-opacity="1" fill-rule="nonzero"/><path fill="#ff914d" d="M 208.96875 228.789062 C 208.824219 230.007812 207.707031 230.988281 206.476562 230.988281 L 191.902344 230.988281 C 190.671875 230.988281 189.800781 230.007812 189.945312 228.789062 C 190.089844 227.566406 191.210938 226.589844 192.441406 226.589844 L 207.007812 226.589844 C 208.234375 226.589844 209.109375 227.566406 208.96875 228.789062 " fill-opacity="1" fill-rule="nonzero"/><path fill="#ff914d" d="M 231.226562 228.789062 C 231.085938 230.007812 229.972656 230.988281 228.742188 230.988281 L 214.167969 230.988281 C 212.9375 230.988281 212.0625 230.007812 212.207031 228.789062 C 212.347656 227.566406 213.464844 226.589844 214.695312 226.589844 L 229.257812 226.589844 C 230.488281 226.589844 231.367188 227.566406 231.226562 228.789062 " fill-opacity="1" fill-rule="nonzero"/><path fill="#ff914d" d="M 218.773438 321.65625 C 218.53125 323.746094 216.636719 325.441406 214.542969 325.441406 C 212.449219 325.441406 210.949219 323.746094 211.195312 321.65625 L 216.039062 280.164062 C 216.28125 278.085938 218.167969 276.40625 220.25 276.40625 C 222.335938 276.40625 223.832031 278.085938 223.589844 280.164062 L 218.773438 321.65625 " fill-opacity="1" fill-rule="nonzero"/><path fill="#ff914d" d="M 175.824219 321.65625 C 175.574219 323.746094 173.671875 325.441406 171.578125 325.441406 C 169.484375 325.441406 167.992188 323.746094 168.242188 321.65625 L 170.777344 300.664062 C 171.027344 298.578125 172.921875 296.890625 175.011719 296.890625 C 177.101562 296.890625 178.589844 298.578125 178.339844 300.664062 L 175.824219 321.65625 " fill-opacity="1" fill-rule="nonzero"/><path fill="#ff914d" d="M 190.140625 321.65625 C 189.890625 323.746094 187.992188 325.441406 185.898438 325.441406 C 183.804688 325.441406 182.308594 323.746094 182.558594 321.65625 L 185.867188 293.960938 C 186.113281 291.878906 188.007812 290.191406 190.09375 290.191406 C 192.179688 290.191406 193.671875 291.878906 193.425781 293.960938 L 190.140625 321.65625 " fill-opacity="1" fill-rule="nonzero"/><path fill="#ff914d" d="M 204.457031 321.65625 C 204.210938 323.746094 202.3125 325.441406 200.222656 325.441406 C 198.128906 325.441406 196.628906 323.746094 196.875 321.65625 L 200.9375 287.265625 C 201.183594 285.1875 203.070312 283.503906 205.15625 283.503906 C 207.242188 283.503906 208.734375 285.1875 208.492188 287.265625 L 204.457031 321.65625 " fill-opacity="1" fill-rule="nonzero"/><path fill="#ff914d" d="M 163.488281 267.40625 L 119.90625 267.40625 C 117.59375 267.40625 115.484375 269.183594 115.195312 271.488281 L 108.921875 321.351562 C 108.628906 323.675781 110.277344 325.589844 112.601562 325.589844 L 156.410156 325.589844 C 158.738281 325.589844 160.851562 323.632812 161.132812 321.308594 L 167.175781 271.523438 C 167.453125 269.21875 165.804688 267.40625 163.488281 267.40625 " fill-opacity="1" fill-rule="nonzero"/><path fill="#ffffff" d="M 185.898438 149.914062 L 125.355469 149.914062 C 121.820312 149.914062 119.308594 147.089844 119.746094 143.609375 L 124.800781 103.683594 C 125.238281 100.226562 128.449219 97.429688 131.972656 97.429688 L 192.242188 97.429688 C 195.765625 97.429688 198.28125 100.226562 197.867188 103.683594 L 193.0625 143.609375 C 192.644531 147.089844 189.4375 149.914062 185.898438 149.914062 " fill-opacity="1" fill-rule="nonzero"/><path fill="#ff914d" d="M 192.988281 143.753906 L 174.5625 120.824219 C 173.277344 119.230469 170.742188 119.105469 168.925781 120.542969 L 168.070312 121.207031 C 166.3125 122.597656 163.894531 122.53125 162.570312 121.054688 L 153.464844 110.902344 C 152.09375 109.371094 149.476562 109.367188 147.722656 110.894531 L 120.914062 134.128906 L 119.695312 143.753906 C 119.253906 147.234375 121.765625 150.058594 125.304688 150.058594 L 185.820312 150.058594 C 189.359375 150.058594 192.566406 147.234375 192.988281 143.753906 " fill-opacity="1" fill-rule="nonzero"/><path fill="#ff914d" d="M 131.972656 98.082031 C 128.773438 98.082031 125.847656 100.628906 125.453125 103.765625 L 120.398438 143.691406 C 120.207031 145.171875 120.613281 146.570312 121.535156 147.617188 C 122.46875 148.675781 123.828125 149.261719 125.359375 149.261719 L 185.898438 149.261719 C 189.113281 149.261719 192.039062 146.691406 192.417969 143.527344 L 197.21875 103.601562 C 197.398438 102.136719 196.992188 100.753906 196.070312 99.71875 C 195.128906 98.664062 193.773438 98.082031 192.242188 98.082031 Z M 185.898438 150.5625 L 125.359375 150.5625 C 123.445312 150.5625 121.742188 149.824219 120.554688 148.480469 C 119.382812 147.144531 118.867188 145.386719 119.101562 143.523438 L 124.15625 103.597656 C 124.632812 99.835938 128.140625 96.773438 131.972656 96.773438 L 192.242188 96.773438 C 194.152344 96.773438 195.859375 97.511719 197.046875 98.851562 C 198.21875 100.171875 198.738281 101.914062 198.515625 103.761719 L 193.714844 143.6875 C 193.257812 147.476562 189.753906 150.5625 185.898438 150.5625 " fill-opacity="1" fill-rule="nonzero"/><path fill="#ff914d" d="M 186.925781 111.023438 C 186.566406 114 183.8125 116.414062 180.777344 116.414062 C 177.742188 116.414062 175.578125 114 175.941406 111.023438 C 176.304688 108.046875 179.058594 105.632812 182.089844 105.632812 C 185.121094 105.632812 187.285156 108.046875 186.925781 111.023438 " fill-opacity="1" fill-rule="nonzero"/><path fill="#ea803e" d="M 144.945312 30.761719 C 158.890625 30.765625 172.078125 37.074219 185.9375 53.511719 L 128.53125 53.585938 C 123.078125 53.585938 118.480469 57.484375 117.625 62.871094 C 116.613281 69.257812 116.59375 77.261719 117.703125 81.496094 C 119.25 87.398438 120.734375 91.574219 121.96875 94.464844 C 123.527344 98.117188 122.34375 102.363281 119.136719 104.707031 L 116.621094 106.550781 C 113.019531 109.191406 107.992188 108.625 105.078125 105.242188 C 101.289062 100.847656 96.371094 94.238281 93.144531 86.527344 C 85.0625 67.203125 91.230469 36.703125 118.089844 31.378906 C 123.816406 30.242188 141.964844 30.761719 144.945312 30.761719 " fill-opacity="1" fill-rule="nonzero"/><path fill="#ffffff" d="M 150.007812 53.074219 C 148.546875 49.835938 144.675781 48.464844 141.429688 49.910156 C 138.921875 51.027344 135.667969 52.628906 134.722656 53.800781 C 133.59375 55.203125 131.761719 59.570312 133.289062 62.914062 C 134.660156 65.910156 138.488281 66.699219 141.097656 64.683594 C 142.464844 63.628906 143.878906 61.867188 144.757812 58.917969 C 145.242188 57.28125 146.351562 55.867188 147.917969 55.191406 C 148.339844 55.007812 148.800781 54.867188 149.292969 54.808594 C 149.949219 54.730469 150.367188 54.078125 150.152344 53.449219 C 150.117188 53.335938 150.066406 53.214844 150.007812 53.074219 " fill-opacity="1" fill-rule="nonzero"/><path fill="#000000" d="M 144.128906 49.992188 C 143.316406 49.992188 142.488281 50.15625 141.695312 50.507812 C 136.972656 52.609375 135.617188 53.730469 135.230469 54.210938 C 134.253906 55.421875 132.480469 59.570312 133.882812 62.644531 C 134.425781 63.835938 135.472656 64.699219 136.753906 65.015625 C 138.125 65.355469 139.5625 65.046875 140.699219 64.171875 C 142.261719 62.964844 143.417969 61.132812 144.128906 58.734375 C 144.695312 56.828125 145.980469 55.316406 147.65625 54.589844 C 148.171875 54.367188 148.695312 54.226562 149.214844 54.164062 C 149.375 54.144531 149.464844 54.042969 149.5 53.984375 C 149.535156 53.929688 149.585938 53.808594 149.535156 53.660156 C 149.503906 53.566406 149.460938 53.460938 149.410156 53.347656 C 148.460938 51.238281 146.351562 49.992188 144.128906 49.992188 Z M 137.859375 66.457031 C 137.386719 66.457031 136.910156 66.398438 136.441406 66.285156 C 134.773438 65.871094 133.40625 64.742188 132.695312 63.183594 C 131.066406 59.617188 132.878906 55.046875 134.214844 53.390625 C 135.035156 52.375 137.375 51.003906 141.164062 49.316406 C 144.777344 47.707031 149.007812 49.273438 150.601562 52.808594 C 150.671875 52.964844 150.730469 53.113281 150.773438 53.238281 C 150.933594 53.726562 150.875 54.25 150.605469 54.683594 C 150.332031 55.113281 149.882812 55.398438 149.371094 55.457031 C 148.976562 55.503906 148.574219 55.617188 148.175781 55.789062 C 146.855469 56.363281 145.835938 57.570312 145.378906 59.105469 C 144.585938 61.773438 143.28125 63.824219 141.496094 65.203125 C 140.429688 66.027344 139.15625 66.457031 137.859375 66.457031 " fill-opacity="1" fill-rule="nonzero"/><path fill="#ffffff" d="M 123.875 111.023438 C 124.300781 111.726562 122.609375 123.617188 122.078125 124.078125 C 122.078125 124.082031 122.074219 124.082031 122.070312 124.085938 C 121.5 124.582031 121.246094 125.34375 121.386719 126.082031 C 121.675781 127.578125 122.792969 131.929688 122.804688 132.617188 C 122.820312 133.636719 122.980469 135.078125 122.308594 135.90625 L 122.128906 136.117188 C 121.417969 136.96875 120.058594 136.75 119.660156 135.726562 L 115.867188 125.734375 C 115.367188 124.460938 115.332031 123.050781 115.757812 121.742188 L 117.964844 114.996094 C 118.464844 113.472656 118.039062 111.804688 116.875 110.710938 L 108.570312 103.800781 C 105.566406 101.011719 111.21875 95.832031 111.21875 95.832031 C 113.078125 94.527344 115.683594 95.035156 116.910156 96.820312 L 123.875 111.023438 " fill-opacity="1" fill-rule="nonzero"/><path fill="#000000" d="M 123.269531 111.257812 Z M 123.316406 111.359375 C 123.316406 111.359375 123.316406 111.359375 123.316406 111.363281 C 123.316406 111.359375 123.316406 111.359375 123.316406 111.359375 Z M 111.628906 96.34375 C 110.6875 97.214844 108.351562 99.808594 108.34375 101.789062 C 108.34375 102.398438 108.5625 102.902344 109.015625 103.324219 L 117.292969 110.210938 C 118.664062 111.496094 119.160156 113.441406 118.585938 115.195312 L 116.378906 121.945312 C 116 123.105469 116.035156 124.367188 116.472656 125.5 L 120.273438 135.492188 C 120.417969 135.863281 120.746094 135.957031 120.878906 135.980469 C 121.015625 136 121.363281 136.019531 121.628906 135.699219 L 121.804688 135.488281 C 122.226562 134.96875 122.191406 133.925781 122.164062 133.085938 C 122.160156 132.925781 122.152344 132.773438 122.152344 132.625 C 122.144531 132.277344 121.671875 130.253906 121.355469 128.914062 C 121.101562 127.828125 120.863281 126.804688 120.746094 126.203125 C 120.566406 125.265625 120.882812 124.296875 121.578125 123.65625 C 122.121094 122.398438 123.488281 112.460938 123.273438 111.285156 L 116.347656 97.15625 C 115.851562 96.457031 115.066406 95.964844 114.183594 95.808594 C 113.277344 95.644531 112.371094 95.835938 111.628906 96.34375 Z M 121.015625 137.292969 C 120.902344 137.292969 120.785156 137.285156 120.667969 137.269531 C 119.929688 137.148438 119.324219 136.65625 119.054688 135.960938 L 115.253906 125.96875 C 114.707031 124.558594 114.667969 122.984375 115.140625 121.542969 L 117.347656 114.792969 C 117.761719 113.515625 117.402344 112.101562 116.429688 111.1875 L 108.15625 104.304688 C 107.402344 103.605469 107.035156 102.761719 107.039062 101.78125 C 107.050781 98.796875 110.625 95.492188 110.777344 95.351562 C 110.796875 95.332031 110.820312 95.3125 110.84375 95.296875 C 111.878906 94.570312 113.148438 94.292969 114.414062 94.523438 C 115.65625 94.746094 116.761719 95.449219 117.449219 96.453125 C 117.46875 96.480469 117.484375 96.503906 117.496094 96.535156 L 124.460938 110.738281 C 124.972656 112.027344 123.320312 123.863281 122.507812 124.570312 C 122.109375 124.917969 121.929688 125.445312 122.03125 125.957031 C 122.140625 126.53125 122.378906 127.542969 122.628906 128.617188 C 123.140625 130.792969 123.449219 132.152344 123.457031 132.605469 C 123.460938 132.742188 123.464844 132.890625 123.46875 133.042969 C 123.503906 134.097656 123.550781 135.414062 122.8125 136.320312 L 122.628906 136.535156 C 122.222656 137.023438 121.636719 137.292969 121.015625 137.292969 " fill-opacity="1" fill-rule="nonzero"/><path fill="#ffffff" d="M 138.066406 42.394531 C 138.464844 42.296875 138.832031 42.105469 139.148438 41.839844 L 144.015625 37.804688 C 144.539062 37.480469 145.207031 37.527344 145.671875 37.917969 L 149.15625 40.875 C 149.601562 41.246094 150.25 41.273438 150.734375 40.941406 L 155.136719 37.921875 L 157.285156 38.617188 C 157.453125 38.667969 157.632812 38.578125 157.691406 38.414062 L 159.105469 34.457031 C 159.707031 33.074219 161.773438 30.824219 161.234375 30.308594 C 161.234375 30.308594 154.925781 16.320312 147.984375 19.597656 C 146.980469 20.070312 146.203125 20.925781 145.757812 21.941406 L 144.824219 24.070312 C 143.886719 26.207031 139.125 31.097656 134.121094 32.363281 C 133.457031 32.535156 131.730469 32.671875 130.382812 32.757812 C 129.382812 32.820312 128.707031 33.792969 128.980469 34.761719 C 129.304688 35.90625 129.902344 37.492188 131.007812 39.324219 C 132.457031 41.738281 135.265625 43.035156 138.007812 42.40625 C 138.027344 42.402344 138.046875 42.398438 138.066406 42.394531 " fill-opacity="1" fill-rule="nonzero"/><path fill="#000000" d="M 160.78125 30.785156 Z M 150.136719 19.75 C 149.5 19.75 148.878906 19.894531 148.261719 20.1875 C 147.429688 20.578125 146.75 21.292969 146.355469 22.203125 L 145.421875 24.332031 C 144.445312 26.5625 139.628906 31.640625 134.28125 33 C 133.707031 33.144531 132.410156 33.28125 130.425781 33.410156 C 130.148438 33.429688 129.902344 33.5625 129.742188 33.789062 C 129.582031 34.023438 129.53125 34.308594 129.609375 34.585938 C 129.890625 35.578125 130.457031 37.152344 131.566406 38.988281 C 132.902344 41.210938 135.433594 42.328125 137.859375 41.769531 L 137.914062 41.757812 C 138.207031 41.6875 138.480469 41.546875 138.730469 41.339844 L 143.601562 37.304688 C 143.625 37.285156 143.648438 37.265625 143.671875 37.253906 C 144.4375 36.777344 145.40625 36.84375 146.09375 37.417969 L 149.578125 40.375 C 149.796875 40.558594 150.121094 40.574219 150.363281 40.402344 L 154.769531 37.386719 C 154.933594 37.273438 155.144531 37.242188 155.335938 37.300781 L 157.183594 37.898438 L 158.488281 34.234375 C 158.492188 34.222656 158.5 34.207031 158.503906 34.195312 C 158.757812 33.617188 159.214844 32.941406 159.65625 32.289062 C 160.023438 31.75 160.558594 30.949219 160.65625 30.613281 C 160.648438 30.605469 160.644531 30.589844 160.636719 30.578125 C 160.597656 30.492188 156.648438 21.851562 151.800781 20.066406 C 151.230469 19.855469 150.675781 19.75 150.136719 19.75 Z M 138.066406 42.394531 L 138.070312 42.394531 Z M 136.609375 43.21875 C 134.148438 43.21875 131.796875 41.902344 130.445312 39.664062 C 129.496094 38.089844 128.792969 36.496094 128.351562 34.9375 C 128.167969 34.285156 128.285156 33.589844 128.675781 33.035156 C 129.066406 32.488281 129.671875 32.148438 130.34375 32.105469 C 132.839844 31.949219 133.683594 31.804688 133.960938 31.734375 C 138.628906 30.546875 143.324219 25.863281 144.226562 23.808594 L 145.160156 21.679688 C 145.683594 20.480469 146.585938 19.535156 147.707031 19.007812 C 149.160156 18.320312 150.6875 18.265625 152.25 18.839844 C 157.390625 20.734375 161.3125 28.925781 161.785156 29.949219 C 162.339844 30.652344 161.628906 31.707031 160.738281 33.019531 C 160.335938 33.613281 159.917969 34.230469 159.710938 34.699219 L 158.308594 38.632812 C 158.128906 39.136719 157.59375 39.402344 157.085938 39.238281 L 155.242188 38.644531 L 151.101562 41.480469 C 150.378906 41.976562 149.40625 41.933594 148.734375 41.375 L 145.25 38.417969 C 145.011719 38.214844 144.671875 38.1875 144.394531 38.339844 L 139.566406 42.34375 C 139.167969 42.675781 138.699219 42.910156 138.21875 43.027344 L 138.15625 43.042969 C 137.640625 43.160156 137.121094 43.21875 136.609375 43.21875 " fill-opacity="1" fill-rule="nonzero"/><path fill="#000000" d="M 171.476562 24.789062 C 169.847656 21.714844 167.164062 23.101562 165.605469 14.371094 C 164.671875 9.125 160.457031 14.542969 160.097656 13.207031 C 158.773438 8.277344 158.820312 8.441406 157.042969 6.722656 C 155.863281 5.585938 152.824219 6.226562 151.101562 7.617188 C 148.835938 9.453125 146.570312 14.605469 143.902344 19.597656 C 142.519531 22.183594 143.683594 26.253906 148.566406 25.46875 C 150.09375 25.222656 150.191406 22.84375 151.53125 23.117188 C 155.011719 23.828125 152.148438 26.773438 154.191406 27.800781 C 156.148438 28.789062 157.195312 29.058594 159.722656 29.828125 C 162.785156 30.761719 162.671875 34.367188 167.53125 33.0625 C 170.066406 32.382812 173.703125 28.996094 171.476562 24.789062 " fill-opacity="1" fill-rule="nonzero"/><path fill="#ffffff" d="M 165.816406 272.019531 C 146.730469 298.933594 109.4375 305.28125 82.523438 286.195312 C 55.605469 267.109375 49.257812 229.816406 68.34375 202.902344 C 87.433594 175.984375 124.722656 169.640625 151.640625 188.722656 C 178.554688 207.8125 184.902344 245.101562 165.816406 272.019531 " fill-opacity="1" fill-rule="nonzero"/><path fill="#000000" d="M 117.164062 178.386719 C 98.636719 178.386719 80.382812 187.050781 68.878906 203.277344 C 59.746094 216.15625 56.179688 231.816406 58.824219 247.375 C 61.472656 262.9375 70.023438 276.535156 82.898438 285.664062 C 95.773438 294.792969 111.4375 298.363281 126.996094 295.714844 C 142.554688 293.066406 156.152344 284.515625 165.285156 271.640625 C 174.414062 258.765625 177.984375 243.105469 175.335938 227.542969 C 172.6875 211.984375 164.136719 198.386719 151.261719 189.257812 C 140.910156 181.917969 128.980469 178.386719 117.164062 178.386719 Z M 116.953125 297.875 C 104.546875 297.875 92.46875 294.050781 82.144531 286.730469 C 68.984375 277.398438 60.246094 263.5 57.539062 247.59375 C 54.832031 231.691406 58.480469 215.683594 67.8125 202.523438 C 87.078125 175.355469 124.851562 168.925781 152.019531 188.191406 C 165.179688 197.523438 173.917969 211.421875 176.621094 227.324219 C 179.332031 243.230469 175.679688 259.238281 166.347656 272.398438 L 165.816406 272.019531 L 166.347656 272.398438 C 157.015625 285.554688 143.121094 294.292969 127.214844 297.003906 C 123.789062 297.585938 120.359375 297.875 116.953125 297.875 " fill-opacity="1" fill-rule="nonzero"/><path fill="#ffffff" d="M 30.519531 359.65625 C 27.6875 357.644531 27.019531 353.71875 29.027344 350.886719 L 75.613281 285.1875 L 85.875 292.464844 L 39.289062 358.164062 C 37.277344 360.996094 33.351562 361.664062 30.519531 359.65625 " fill-opacity="1" fill-rule="nonzero"/><path fill="#000000" d="M 75.769531 286.097656 L 29.558594 351.265625 C 27.761719 353.800781 28.363281 357.324219 30.898438 359.125 C 32.125 359.996094 33.621094 360.332031 35.105469 360.082031 C 36.585938 359.828125 37.882812 359.011719 38.753906 357.785156 L 84.964844 292.621094 Z M 34.144531 361.46875 C 32.71875 361.46875 31.328125 361.027344 30.140625 360.1875 C 28.628906 359.117188 27.625 357.515625 27.3125 355.691406 C 27.003906 353.863281 27.421875 352.023438 28.496094 350.507812 L 75.082031 284.8125 C 75.289062 284.515625 75.699219 284.445312 75.992188 284.65625 L 86.253906 291.929688 C 86.546875 292.140625 86.617188 292.546875 86.40625 292.84375 L 39.820312 358.539062 C 38.746094 360.054688 37.152344 361.054688 35.320312 361.367188 C 34.929688 361.433594 34.535156 361.46875 34.144531 361.46875 " fill-opacity="1" fill-rule="nonzero"/><path fill="#ffffff" d="M 52.203125 323.46875 L 56.132812 317.929688 L 52.203125 323.46875 " fill-opacity="1" fill-rule="nonzero"/><path fill="#000000" d="M 52.203125 324.121094 C 52.074219 324.121094 51.941406 324.082031 51.828125 324 C 51.535156 323.792969 51.464844 323.386719 51.671875 323.089844 L 55.601562 317.550781 C 55.808594 317.257812 56.214844 317.1875 56.511719 317.394531 C 56.804688 317.605469 56.875 318.011719 56.664062 318.308594 L 52.738281 323.847656 C 52.609375 324.027344 52.410156 324.121094 52.203125 324.121094 " fill-opacity="1" fill-rule="nonzero"/><path fill="#ffffff" d="M 41.214844 350.175781 L 36.800781 356.398438 C 35.769531 357.859375 33.738281 358.207031 32.28125 357.171875 C 30.824219 356.136719 30.476562 354.109375 31.511719 352.648438 L 47.015625 330.789062 L 41.214844 350.175781 " fill-opacity="1" fill-rule="nonzero"/><path fill="#000000" d="M 34.152344 358.417969 C 33.371094 358.417969 32.585938 358.1875 31.902344 357.703125 C 30.152344 356.460938 29.738281 354.023438 30.980469 352.269531 L 46.484375 330.410156 C 46.691406 330.117188 47.097656 330.042969 47.394531 330.253906 C 47.6875 330.460938 47.757812 330.871094 47.546875 331.164062 L 32.046875 353.027344 C 31.21875 354.191406 31.496094 355.808594 32.660156 356.636719 C 33.824219 357.464844 35.445312 357.1875 36.269531 356.023438 L 40.683594 349.800781 C 40.890625 349.507812 41.300781 349.433594 41.59375 349.644531 C 41.886719 349.851562 41.957031 350.261719 41.746094 350.554688 L 37.335938 356.777344 C 36.578125 357.847656 35.371094 358.417969 34.152344 358.417969 " fill-opacity="1" fill-rule="nonzero"/><path fill="#ffffff" d="M 77.441406 307.210938 L 64.488281 298.027344 C 63.816406 297.550781 63.65625 296.621094 64.132812 295.949219 L 68.609375 289.636719 C 69.085938 288.964844 70.019531 288.804688 70.6875 289.28125 L 83.640625 298.464844 C 84.3125 298.941406 84.472656 299.875 83.996094 300.546875 L 79.519531 306.859375 C 79.042969 307.53125 78.113281 307.6875 77.441406 307.210938 " fill-opacity="1" fill-rule="nonzero"/><path fill="#000000" d="M 70.257812 290.371094 C 69.429688 290.371094 68.613281 290.757812 68.101562 291.484375 L 65.710938 294.855469 C 64.867188 296.042969 65.148438 297.695312 66.335938 298.539062 L 76.347656 305.636719 C 76.921875 306.042969 77.621094 306.203125 78.316406 306.085938 C 79.011719 305.96875 79.621094 305.585938 80.027344 305.007812 L 82.421875 301.636719 C 82.828125 301.0625 82.988281 300.363281 82.871094 299.667969 C 82.75 298.972656 82.371094 298.363281 81.792969 297.957031 L 71.78125 290.855469 C 71.320312 290.527344 70.785156 290.371094 70.257812 290.371094 Z M 77.867188 307.429688 C 77.054688 307.429688 76.265625 307.179688 75.59375 306.703125 L 65.578125 299.601562 C 63.804688 298.34375 63.386719 295.875 64.644531 294.097656 L 67.035156 290.726562 C 68.292969 288.953125 70.761719 288.53125 72.539062 289.792969 L 82.550781 296.890625 C 83.410156 297.5 83.980469 298.410156 84.15625 299.449219 C 84.332031 300.488281 84.09375 301.535156 83.484375 302.394531 L 81.09375 305.765625 C 80.484375 306.625 79.578125 307.199219 78.535156 307.371094 C 78.3125 307.410156 78.089844 307.429688 77.867188 307.429688 " fill-opacity="1" fill-rule="nonzero"/><path fill="#ffffff" d="M 69.71875 318.101562 L 56.765625 308.914062 C 56.09375 308.4375 55.9375 307.507812 56.414062 306.835938 L 60.890625 300.523438 C 61.367188 299.851562 62.296875 299.691406 62.96875 300.167969 L 75.921875 309.355469 C 76.59375 309.832031 76.75 310.761719 76.273438 311.433594 L 71.796875 317.746094 C 71.320312 318.417969 70.390625 318.578125 69.71875 318.101562 " fill-opacity="1" fill-rule="nonzero"/><path fill="#000000" d="M 62.539062 301.257812 C 61.710938 301.257812 60.894531 301.644531 60.378906 302.371094 L 57.988281 305.742188 C 57.144531 306.929688 57.425781 308.582031 58.613281 309.425781 L 68.625 316.523438 C 69.203125 316.933594 69.902344 317.09375 70.597656 316.972656 C 71.292969 316.855469 71.898438 316.472656 72.308594 315.898438 L 74.699219 312.527344 C 75.109375 311.949219 75.265625 311.25 75.148438 310.554688 C 75.03125 309.859375 74.648438 309.253906 74.074219 308.84375 L 64.0625 301.742188 C 63.597656 301.417969 63.066406 301.257812 62.539062 301.257812 Z M 70.144531 318.316406 C 69.335938 318.316406 68.546875 318.066406 67.871094 317.589844 L 57.859375 310.492188 C 56.082031 309.230469 55.664062 306.765625 56.921875 304.988281 L 59.3125 301.617188 C 60.574219 299.839844 63.042969 299.421875 64.816406 300.679688 L 74.828125 307.777344 C 75.6875 308.390625 76.261719 309.296875 76.4375 310.335938 C 76.613281 311.375 76.375 312.421875 75.765625 313.28125 L 73.375 316.652344 C 72.765625 317.515625 71.855469 318.082031 70.816406 318.261719 C 70.59375 318.296875 70.367188 318.316406 70.144531 318.316406 " fill-opacity="1" fill-rule="nonzero"/><path fill="#ff914d" d="M 171.480469 236.585938 L 72.421875 268.554688 C 75.917969 273.578125 80.328125 278.097656 85.609375 281.839844 C 86.992188 282.824219 88.40625 283.726562 89.84375 284.558594 L 166.722656 259.746094 C 170.058594 252.332031 171.613281 244.421875 171.480469 236.585938 " fill-opacity="1" fill-rule="nonzero"/><path fill="#ff914d" d="M 148.554688 193.078125 C 142.421875 188.734375 135.703125 185.835938 128.800781 184.316406 L 76.53125 201.183594 C 75.179688 202.695312 73.898438 204.296875 72.699219 205.988281 C 60.304688 223.46875 59.691406 245.75 69.246094 263.402344 L 171.046875 230.546875 C 169.175781 215.992188 161.464844 202.234375 148.554688 193.078125 " fill-opacity="1" fill-rule="nonzero"/><path fill="#000000" d="M 168.695312 220.898438 C 168.425781 220.898438 168.167969 220.722656 168.078125 220.449219 C 166.394531 215.394531 163.984375 210.640625 160.910156 206.3125 C 160.703125 206.019531 160.773438 205.613281 161.066406 205.402344 C 161.359375 205.195312 161.765625 205.265625 161.976562 205.558594 C 165.125 209.988281 167.59375 214.859375 169.316406 220.039062 C 169.429688 220.378906 169.246094 220.75 168.902344 220.863281 C 168.835938 220.886719 168.765625 220.898438 168.695312 220.898438 " fill-opacity="1" fill-rule="nonzero"/><path fill="#000000" d="M 115.796875 292.511719 C 115.792969 292.511719 115.789062 292.511719 115.785156 292.511719 C 104.796875 292.261719 94.230469 288.757812 85.230469 282.375 C 73.234375 273.867188 65.269531 261.199219 62.800781 246.699219 C 60.332031 232.199219 63.660156 217.609375 72.167969 205.609375 C 80.675781 193.613281 93.34375 185.648438 107.84375 183.179688 C 122.339844 180.710938 136.933594 184.039062 148.929688 192.542969 C 149.226562 192.753906 149.292969 193.164062 149.085938 193.457031 C 148.875 193.75 148.46875 193.820312 148.175781 193.609375 C 136.460938 185.308594 122.214844 182.058594 108.0625 184.46875 C 93.90625 186.878906 81.535156 194.652344 73.230469 206.367188 C 64.925781 218.078125 61.679688 232.324219 64.089844 246.480469 C 66.496094 260.632812 74.273438 273.003906 85.988281 281.308594 C 94.773438 287.542969 105.085938 290.960938 115.8125 291.203125 C 116.175781 291.214844 116.460938 291.511719 116.453125 291.871094 C 116.441406 292.226562 116.152344 292.511719 115.796875 292.511719 " fill-opacity="1" fill-rule="nonzero"/><path fill="#ffffff" d="M 334.835938 332.410156 L 337.058594 348.011719 L 342.742188 348.035156 L 343.011719 332.6875 L 334.835938 332.410156 " fill-opacity="1" fill-rule="nonzero"/><path fill="#000000" d="M 337.625 347.363281 L 342.101562 347.378906 L 342.347656 333.316406 L 335.589844 333.085938 Z M 342.742188 348.6875 L 337.054688 348.664062 C 336.730469 348.664062 336.457031 348.425781 336.410156 348.105469 L 334.1875 332.503906 C 334.160156 332.3125 334.21875 332.117188 334.347656 331.972656 C 334.480469 331.832031 334.667969 331.746094 334.859375 331.757812 L 343.035156 332.035156 C 343.390625 332.046875 343.671875 332.34375 343.667969 332.699219 L 343.398438 348.046875 C 343.390625 348.402344 343.097656 348.6875 342.742188 348.6875 " fill-opacity="1" fill-rule="nonzero"/><path fill="#ffffff" d="M 336.867188 362.929688 C 339.097656 363.167969 342.421875 363.261719 346.859375 362.871094 C 348.449219 362.730469 349.570312 361.261719 349.3125 359.6875 C 348.625 355.453125 346.699219 347.984375 343.667969 344.554688 L 342.167969 346.691406 L 341.277344 344.484375 C 341.136719 344.246094 337.367188 344.089844 337.289062 344.535156 L 337.058594 346.691406 L 334.921875 344.292969 L 335.035156 352.167969 C 335.050781 353.035156 334.96875 353.902344 334.789062 354.753906 L 334.230469 357.476562 C 333.890625 359.117188 334.3125 360.847656 335.453125 362.070312 C 335.902344 362.546875 336.398438 362.878906 336.867188 362.929688 " fill-opacity="1" fill-rule="nonzero"/><path fill="#000000" d="M 336.9375 362.28125 C 338.828125 362.480469 342.074219 362.636719 346.804688 362.222656 C 347.382812 362.171875 347.894531 361.890625 348.253906 361.429688 C 348.609375 360.96875 348.761719 360.371094 348.667969 359.792969 C 348.066406 356.113281 346.378906 349.25 343.703125 345.640625 L 342.703125 347.066406 C 342.5625 347.261719 342.328125 347.367188 342.09375 347.339844 C 341.855469 347.3125 341.652344 347.15625 341.5625 346.933594 L 340.785156 345.007812 C 340.152344 344.902344 338.550781 344.863281 337.902344 344.964844 L 337.710938 346.761719 C 337.683594 347.015625 337.503906 347.234375 337.257812 347.3125 C 337.011719 347.390625 336.746094 347.316406 336.570312 347.125 L 335.597656 346.035156 L 335.691406 352.15625 C 335.703125 353.074219 335.617188 353.992188 335.429688 354.886719 L 334.867188 357.609375 C 334.5625 359.089844 334.960938 360.585938 335.929688 361.621094 C 336.296875 362.011719 336.664062 362.25 336.9375 362.28125 Z M 341.183594 363.789062 C 339.308594 363.789062 337.851562 363.691406 336.796875 363.578125 C 336.199219 363.515625 335.570312 363.144531 334.976562 362.515625 C 333.71875 361.171875 333.199219 359.238281 333.589844 357.34375 L 334.152344 354.621094 C 334.320312 353.820312 334.398438 352.996094 334.382812 352.175781 L 334.265625 344.300781 C 334.265625 344.03125 334.429688 343.785156 334.683594 343.6875 C 334.9375 343.585938 335.222656 343.65625 335.40625 343.859375 L 336.566406 345.15625 L 336.636719 344.46875 C 336.640625 344.453125 336.644531 344.4375 336.644531 344.421875 C 336.746094 343.851562 337.378906 343.734375 337.585938 343.695312 C 337.625 343.691406 341.34375 343.328125 341.839844 344.148438 C 341.855469 344.179688 341.871094 344.207031 341.882812 344.242188 L 342.324219 345.332031 L 343.132812 344.179688 C 343.246094 344.019531 343.429688 343.914062 343.628906 343.90625 C 343.832031 343.894531 344.023438 343.972656 344.152344 344.125 C 348.066406 348.546875 349.777344 358.46875 349.957031 359.582031 C 350.109375 360.519531 349.863281 361.484375 349.285156 362.234375 C 348.699219 362.980469 347.859375 363.4375 346.917969 363.523438 C 344.695312 363.71875 342.785156 363.789062 341.183594 363.789062 " fill-opacity="1" fill-rule="nonzero"/><path fill="#000000" d="M 340.929688 361.003906 C 338.4375 361.003906 336.894531 360.703125 336.789062 360.679688 C 336.4375 360.609375 336.210938 360.265625 336.28125 359.910156 C 336.351562 359.558594 336.695312 359.332031 337.050781 359.402344 C 337.089844 359.410156 340.984375 360.167969 346.429688 359.210938 C 346.78125 359.148438 347.121094 359.386719 347.183594 359.742188 C 347.246094 360.097656 347.007812 360.4375 346.652344 360.496094 C 344.453125 360.886719 342.503906 361.003906 340.929688 361.003906 " fill-opacity="1" fill-rule="nonzero"/><path fill="#000000" d="M 344.269531 355.023438 L 339.113281 355.023438 C 338.753906 355.023438 338.457031 354.730469 338.457031 354.371094 C 338.457031 354.007812 338.753906 353.71875 339.113281 353.71875 L 344.269531 353.71875 C 344.632812 353.71875 344.925781 354.007812 344.925781 354.371094 C 344.925781 354.730469 344.632812 355.023438 344.269531 355.023438 " fill-opacity="1" fill-rule="nonzero"/><path fill="#ffffff" d="M 294.023438 333.804688 L 292.023438 351.988281 L 284.375 353.589844 L 284.835938 332.265625 L 294.023438 333.804688 " fill-opacity="1" fill-rule="nonzero"/><path fill="#000000" d="M 285.476562 333.035156 L 285.042969 352.78125 L 291.425781 351.445312 L 293.308594 334.34375 Z M 284.375 354.242188 C 284.222656 354.242188 284.074219 354.191406 283.957031 354.09375 C 283.804688 353.964844 283.71875 353.773438 283.722656 353.574219 L 284.1875 332.25 C 284.191406 332.0625 284.277344 331.882812 284.421875 331.761719 C 284.570312 331.644531 284.761719 331.589844 284.945312 331.621094 L 294.132812 333.15625 C 294.472656 333.214844 294.710938 333.527344 294.675781 333.875 L 292.671875 352.058594 C 292.640625 352.339844 292.433594 352.566406 292.15625 352.625 L 284.507812 354.226562 C 284.460938 354.238281 284.417969 354.242188 284.375 354.242188 " fill-opacity="1" fill-rule="nonzero"/><path fill="#ffffff" d="M 295.257812 360.660156 C 295.425781 357.472656 295.429688 351.601562 293.492188 348.773438 L 287.371094 350.953125 L 287.371094 349.648438 C 287.371094 349.226562 287.070312 348.878906 286.6875 348.855469 L 283.277344 348.660156 C 282.003906 348.585938 280.730469 348.851562 279.570312 349.421875 C 276.136719 351.109375 265.699219 355.4375 264.253906 360.300781 C 263.828125 361.734375 264.949219 363.171875 266.445312 363.214844 C 269.878906 363.3125 278.140625 363.417969 292.960938 362.914062 C 294.195312 362.871094 295.195312 361.890625 295.257812 360.660156 " fill-opacity="1" fill-rule="nonzero"/><path fill="#000000" d="M 282.863281 349.304688 C 281.835938 349.304688 280.800781 349.542969 279.855469 350.007812 C 279.441406 350.214844 278.925781 350.453125 278.335938 350.730469 C 274.351562 352.597656 266.070312 356.488281 264.878906 360.488281 C 264.738281 360.949219 264.828125 361.445312 265.117188 361.851562 C 265.429688 362.28125 265.929688 362.546875 266.464844 362.5625 C 270.054688 362.664062 278.273438 362.761719 292.9375 362.261719 C 293.839844 362.230469 294.558594 361.527344 294.605469 360.625 C 294.867188 355.632812 294.363281 351.660156 293.210938 349.566406 L 287.589844 351.570312 C 287.386719 351.640625 287.167969 351.609375 286.992188 351.488281 C 286.820312 351.363281 286.714844 351.167969 286.714844 350.953125 L 286.714844 349.648438 C 286.714844 349.558594 286.664062 349.511719 286.648438 349.507812 L 283.234375 349.3125 C 283.113281 349.304688 282.988281 349.304688 282.863281 349.304688 Z M 273.289062 363.949219 C 270.144531 363.949219 267.898438 363.910156 266.425781 363.867188 C 265.492188 363.839844 264.609375 363.371094 264.0625 362.617188 C 263.527344 361.878906 263.371094 360.96875 263.625 360.113281 C 264.980469 355.550781 273.308594 351.644531 277.78125 349.550781 C 278.363281 349.277344 278.867188 349.039062 279.277344 348.835938 C 280.539062 348.21875 281.933594 347.929688 283.308594 348.007812 L 286.722656 348.203125 C 287.449219 348.246094 288.023438 348.878906 288.023438 349.648438 L 288.023438 350.027344 L 293.269531 348.160156 C 293.550781 348.0625 293.859375 348.160156 294.027344 348.40625 C 296.070312 351.386719 296.082031 357.382812 295.910156 360.695312 C 295.824219 362.277344 294.566406 363.511719 292.980469 363.566406 C 284.285156 363.863281 277.847656 363.949219 273.289062 363.949219 " fill-opacity="1" fill-rule="nonzero"/><path fill="#000000" d="M 275.660156 360.929688 C 271.097656 360.929688 268.21875 360.71875 268.164062 360.714844 C 267.804688 360.6875 267.539062 360.371094 267.566406 360.015625 C 267.59375 359.652344 267.90625 359.382812 268.265625 359.410156 C 268.371094 359.417969 279.128906 360.207031 292.144531 358.695312 C 292.503906 358.652344 292.824219 358.910156 292.867188 359.269531 C 292.910156 359.628906 292.652344 359.949219 292.292969 359.992188 C 285.878906 360.738281 280.007812 360.929688 275.660156 360.929688 " fill-opacity="1" fill-rule="nonzero"/><path fill="#000000" d="M 277.554688 355.722656 C 277.355469 355.722656 277.152344 355.628906 277.023438 355.453125 C 276.816406 355.15625 276.882812 354.75 277.171875 354.539062 L 283.066406 350.304688 C 283.355469 350.09375 283.765625 350.160156 283.976562 350.453125 C 284.1875 350.746094 284.121094 351.152344 283.828125 351.363281 L 277.9375 355.601562 C 277.820312 355.683594 277.6875 355.722656 277.554688 355.722656 " fill-opacity="1" fill-rule="nonzero"/><path fill="#ea803e" d="M 291.636719 215.808594 C 291.636719 215.808594 280.671875 291.027344 283.007812 341.230469 L 286.429688 341.574219 C 288.269531 341.757812 290.117188 341.800781 291.964844 341.710938 L 295.207031 341.546875 C 295.207031 341.546875 308.285156 265.285156 314.816406 252.617188 C 314.816406 252.617188 332.570312 320.4375 333.253906 338.8125 C 333.253906 338.8125 341.144531 339.605469 344.292969 338.472656 C 345.984375 320.742188 346.46875 302.390625 346.554688 290.867188 C 346.796875 257.886719 343.644531 242.910156 341.914062 235.800781 C 340.332031 229.277344 338.628906 223.972656 337.386719 220.386719 L 333.234375 208.542969 L 291.636719 215.808594 " fill-opacity="1" fill-rule="nonzero"/><path fill="#000000" d="M 283.632812 340.636719 L 286.492188 340.921875 C 288.296875 341.105469 290.128906 341.148438 291.933594 341.058594 L 294.65625 340.921875 C 295.910156 333.652344 307.945312 264.519531 314.234375 252.320312 C 314.359375 252.082031 314.617188 251.941406 314.890625 251.96875 C 315.15625 252 315.378906 252.191406 315.445312 252.453125 C 315.621094 253.125 332.871094 319.179688 333.882812 338.214844 C 335.628906 338.355469 341.011719 338.722656 343.683594 337.980469 C 345.453125 319.21875 345.832031 300.433594 345.902344 290.863281 C 346.132812 259.617188 343.378906 244.5625 341.285156 235.957031 C 340.027344 230.78125 338.507812 225.613281 336.769531 220.597656 L 332.804688 209.28125 L 292.21875 216.371094 C 291.304688 222.789062 281.527344 293.128906 283.632812 340.636719 Z M 290.117188 342.410156 C 288.863281 342.410156 287.605469 342.347656 286.363281 342.222656 L 282.945312 341.878906 C 282.621094 341.847656 282.371094 341.585938 282.359375 341.261719 C 280.042969 291.570312 290.878906 216.464844 290.992188 215.714844 C 291.035156 215.433594 291.25 215.210938 291.523438 215.164062 L 333.125 207.898438 C 333.4375 207.84375 333.746094 208.027344 333.851562 208.328125 L 338.003906 220.167969 C 339.753906 225.222656 341.285156 230.429688 342.554688 235.648438 C 344.660156 244.320312 347.4375 259.480469 347.210938 290.871094 C 347.140625 300.539062 346.75 319.582031 344.941406 338.535156 C 344.921875 338.785156 344.753906 339.003906 344.515625 339.089844 C 341.269531 340.257812 333.519531 339.496094 333.191406 339.460938 C 332.867188 339.429688 332.613281 339.164062 332.601562 338.835938 C 331.992188 322.410156 317.453125 265.433594 314.648438 254.574219 C 308.03125 270.90625 295.980469 340.925781 295.851562 341.660156 C 295.800781 341.957031 295.550781 342.183594 295.242188 342.199219 L 292 342.363281 C 291.375 342.394531 290.742188 342.410156 290.117188 342.410156 " fill-opacity="1" fill-rule="nonzero"/><path fill="#000000" d="M 315.429688 255.472656 C 315.144531 255.472656 314.882812 255.28125 314.800781 254.992188 L 312.976562 248.355469 C 312.550781 246.796875 311.300781 245.625 309.71875 245.296875 L 308.015625 244.949219 C 307.660156 244.875 307.429688 244.527344 307.507812 244.175781 C 307.578125 243.820312 307.921875 243.59375 308.277344 243.667969 L 309.984375 244.023438 C 312.050781 244.445312 313.679688 245.972656 314.238281 248.007812 L 316.0625 254.648438 C 316.15625 254.996094 315.953125 255.355469 315.605469 255.449219 C 315.546875 255.464844 315.488281 255.472656 315.429688 255.472656 " fill-opacity="1" fill-rule="nonzero"/><path fill="#000000" d="M 339.527344 243.109375 C 339.492188 243.109375 339.457031 243.105469 339.417969 243.101562 C 329.171875 241.390625 327.078125 233.226562 327.058594 233.144531 C 326.972656 232.792969 327.191406 232.441406 327.539062 232.355469 C 327.886719 232.269531 328.242188 232.484375 328.332031 232.835938 C 328.402344 233.136719 330.265625 240.25 339.632812 241.808594 C 339.988281 241.871094 340.230469 242.207031 340.171875 242.5625 C 340.117188 242.882812 339.839844 243.109375 339.527344 243.109375 " fill-opacity="1" fill-rule="nonzero"/><path fill="#000000" d="M 291.144531 238.164062 C 290.890625 238.164062 290.652344 238.019531 290.542969 237.773438 C 290.402344 237.441406 290.554688 237.058594 290.882812 236.914062 C 296.089844 234.652344 296 229.925781 295.992188 229.726562 C 295.980469 229.363281 296.261719 229.0625 296.625 229.050781 C 296.992188 229.042969 297.285156 229.316406 297.300781 229.675781 C 297.300781 229.734375 297.449219 235.484375 291.402344 238.113281 C 291.316406 238.148438 291.230469 238.164062 291.144531 238.164062 " fill-opacity="1" fill-rule="nonzero"/><path fill="#000000" d="M 292.519531 153.203125 C 299.773438 152.382812 315.253906 150.917969 325.902344 151.894531 C 329.117188 152.1875 333.757812 154.148438 336.203125 156.257812 C 343.402344 162.472656 356.988281 176.15625 359.257812 192.582031 C 359.585938 194.976562 358.015625 197.226562 355.652344 197.75 L 343.105469 200.53125 C 343.105469 200.53125 348.109375 220.25 347.707031 223.65625 C 347.304688 227.0625 336.933594 232.855469 323.964844 228.105469 C 313.855469 224.398438 299.542969 221.449219 290.453125 224.648438 C 290.371094 224.675781 289.5 231.660156 289.410156 231.671875 C 286.496094 232.097656 283.554688 230.960938 283.621094 226.863281 L 285.007812 205.566406 L 268.371094 203.367188 L 266.886719 202.875 C 262.390625 201.375 260.066406 196.417969 261.800781 192.007812 C 265.707031 182.058594 271.605469 165.957031 282.523438 157.0625 C 284.863281 155.164062 289.527344 153.542969 292.519531 153.203125 " fill-opacity="1" fill-rule="nonzero"/><path fill="#ffcc9c" d="M 300.082031 218.742188 L 274.085938 218.742188 C 272.960938 218.742188 271.976562 217.96875 271.703125 216.875 L 262.710938 180.613281 C 262.328125 179.0625 263.5 177.566406 265.09375 177.566406 L 291.089844 177.566406 C 292.214844 177.566406 293.199219 178.332031 293.472656 179.429688 L 302.46875 215.691406 C 302.851562 217.242188 301.679688 218.742188 300.082031 218.742188 " fill-opacity="1" fill-rule="nonzero"/><path fill="#000000" d="M 265.09375 178.21875 C 264.535156 178.21875 264.019531 178.46875 263.675781 178.90625 C 263.328125 179.347656 263.210938 179.914062 263.34375 180.457031 L 272.339844 216.71875 C 272.539062 217.523438 273.261719 218.089844 274.089844 218.089844 L 300.085938 218.089844 C 300.640625 218.089844 301.160156 217.835938 301.503906 217.394531 C 301.847656 216.953125 301.96875 216.390625 301.835938 215.847656 L 292.839844 179.585938 C 292.640625 178.78125 291.917969 178.21875 291.089844 178.21875 Z M 300.085938 219.390625 L 274.089844 219.390625 C 272.65625 219.390625 271.414062 218.421875 271.070312 217.03125 L 262.078125 180.769531 C 261.84375 179.835938 262.054688 178.863281 262.644531 178.105469 C 263.238281 177.347656 264.132812 176.910156 265.09375 176.910156 L 291.089844 176.910156 C 292.519531 176.910156 293.765625 177.882812 294.109375 179.273438 L 303.101562 215.535156 C 303.332031 216.46875 303.125 217.441406 302.53125 218.199219 C 301.9375 218.957031 301.046875 219.390625 300.085938 219.390625 " fill-opacity="1" fill-rule="nonzero"/><path fill="#ffffff" d="M 266.9375 196.097656 L 267.808594 199.757812 L 270.953125 198.710938 C 272.6875 198.136719 274.347656 197.367188 275.910156 196.421875 L 277.710938 195.328125 C 279.058594 194.507812 280.804688 195.148438 281.328125 196.632812 C 282.441406 199.789062 282.21875 205.074219 270.902344 208.394531 C 264.652344 210.226562 262.867188 202.222656 263.675781 197.777344 C 263.882812 196.640625 264.441406 195.914062 265.011719 195.457031 C 265.699219 194.90625 266.722656 195.25 266.9375 196.097656 " fill-opacity="1" fill-rule="nonzero"/><path fill="#000000" d="M 265.761719 195.84375 C 265.664062 195.84375 265.539062 195.867188 265.421875 195.964844 C 264.835938 196.433594 264.464844 197.082031 264.320312 197.894531 C 263.769531 200.886719 264.464844 205.121094 266.570312 207.015625 C 267.664062 208 269.0625 208.253906 270.71875 207.765625 C 275.894531 206.246094 279.183594 204.1875 280.488281 201.636719 C 281.238281 200.171875 281.316406 198.558594 280.710938 196.851562 C 280.527344 196.324219 280.121094 195.914062 279.601562 195.726562 C 279.082031 195.542969 278.519531 195.601562 278.050781 195.886719 L 276.246094 196.980469 C 274.648438 197.949219 272.9375 198.738281 271.160156 199.332031 L 268.019531 200.378906 C 267.847656 200.433594 267.65625 200.417969 267.492188 200.328125 C 267.335938 200.238281 267.21875 200.085938 267.175781 199.910156 L 266.308594 196.257812 C 266.234375 195.996094 266.027344 195.898438 265.945312 195.871094 C 265.90625 195.855469 265.839844 195.84375 265.761719 195.84375 Z M 269.167969 209.3125 C 267.851562 209.3125 266.675781 208.863281 265.699219 207.984375 C 263.160156 205.703125 262.429688 200.960938 263.03125 197.660156 C 263.238281 196.53125 263.765625 195.617188 264.605469 194.945312 C 265.097656 194.550781 265.753906 194.429688 266.355469 194.632812 C 266.960938 194.835938 267.414062 195.324219 267.570312 195.9375 C 267.570312 195.941406 267.574219 195.945312 267.574219 195.949219 L 268.28125 198.914062 L 270.746094 198.089844 C 272.429688 197.53125 274.050781 196.78125 275.570312 195.859375 L 277.375 194.765625 C 278.179688 194.277344 279.152344 194.179688 280.039062 194.496094 C 280.933594 194.820312 281.628906 195.515625 281.945312 196.414062 C 282.660156 198.449219 282.558594 200.460938 281.652344 202.234375 C 280.175781 205.113281 276.621094 207.398438 271.085938 209.019531 C 270.421875 209.214844 269.78125 209.3125 269.167969 209.3125 " fill-opacity="1" fill-rule="nonzero"/><path fill="#ffffff" d="M 327.050781 175.109375 C 328.351562 176.4375 329.828125 177.582031 331.449219 178.503906 C 336.90625 181.609375 349.941406 189.132812 353.183594 191.902344 C 357.316406 195.433594 359.292969 196.75 355.972656 205.832031 C 350.558594 220.632812 325.320312 182.632812 325.320312 182.632812 C 325.320312 182.632812 317.910156 183.976562 316.242188 177.480469 C 316.242188 177.480469 312.382812 178.203125 310.769531 177.503906 C 309.535156 176.972656 309.585938 174.875 311.238281 174.644531 L 321.898438 172.65625 C 323.367188 172.394531 324.871094 172.875 325.914062 173.945312 L 327.050781 175.109375 " fill-opacity="1" fill-rule="nonzero"/><path fill="#000000" d="M 325.324219 181.980469 C 325.539062 181.980469 325.746094 182.085938 325.867188 182.269531 C 330.808594 189.707031 344.910156 208.597656 351.933594 208.601562 C 352.074219 208.601562 352.222656 208.59375 352.359375 208.574219 C 353.707031 208.414062 354.6875 207.445312 355.363281 205.605469 C 358.425781 197.222656 356.875 195.902344 353.128906 192.710938 L 352.761719 192.398438 C 349.5625 189.664062 336.566406 182.164062 331.128906 179.066406 C 329.457031 178.117188 327.929688 176.9375 326.585938 175.5625 L 325.449219 174.398438 C 324.558594 173.484375 323.273438 173.070312 322.015625 173.300781 L 311.359375 175.285156 C 310.746094 175.371094 310.609375 175.769531 310.578125 176 C 310.53125 176.320312 310.65625 176.742188 311.03125 176.90625 C 312.203125 177.414062 315.105469 177.027344 316.125 176.835938 C 316.460938 176.773438 316.792969 176.980469 316.878906 177.3125 C 318.375 183.15625 324.929688 182.039062 325.207031 181.988281 C 325.246094 181.984375 325.285156 181.980469 325.324219 181.980469 Z M 351.96875 209.902344 C 343.210938 209.902344 327.195312 186.582031 325.003906 183.332031 C 323.367188 183.496094 317.5625 183.679688 315.78125 178.214844 C 314.574219 178.402344 311.914062 178.710938 310.515625 178.105469 C 309.65625 177.734375 309.148438 176.796875 309.28125 175.824219 C 309.414062 174.855469 310.148438 174.136719 311.148438 174 L 321.78125 172.011719 C 323.46875 171.710938 325.1875 172.261719 326.382812 173.484375 L 327.519531 174.648438 C 328.777344 175.9375 330.210938 177.042969 331.773438 177.933594 C 337.242188 181.050781 350.328125 188.597656 353.609375 191.40625 L 353.972656 191.714844 C 358.234375 195.34375 359.835938 197.171875 356.585938 206.054688 C 355.742188 208.367188 354.371094 209.652344 352.511719 209.871094 C 352.335938 209.894531 352.152344 209.902344 351.96875 209.902344 " fill-opacity="1" fill-rule="nonzero"/><path fill="#ffffff" d="M 302.34375 139.257812 L 301.546875 150.363281 C 301.371094 151.808594 300.328125 152.996094 298.917969 153.363281 L 295.019531 154.378906 L 297.550781 156.304688 C 303.160156 160.578125 310.929688 160.585938 316.550781 156.324219 L 320.550781 153.285156 L 315.707031 152.207031 C 314.316406 151.890625 313.246094 150.777344 312.992188 149.375 L 310.855469 134.683594 L 302.34375 139.257812 " fill-opacity="1" fill-rule="nonzero"/><path fill="#000000" d="M 296.488281 154.671875 L 297.949219 155.785156 C 303.304688 159.863281 310.792969 159.871094 316.15625 155.800781 L 319.039062 153.613281 L 315.566406 152.839844 C 313.914062 152.46875 312.652344 151.152344 312.351562 149.492188 L 310.34375 135.699219 L 302.972656 139.664062 L 302.199219 150.40625 C 301.988281 152.160156 300.765625 153.558594 299.089844 153.992188 Z M 307.0625 160.152344 C 303.566406 160.152344 300.074219 159.042969 297.160156 156.824219 L 294.628906 154.894531 C 294.429688 154.746094 294.332031 154.496094 294.382812 154.25 C 294.433594 154.003906 294.617188 153.808594 294.859375 153.746094 L 298.757812 152.726562 C 299.914062 152.429688 300.753906 151.46875 300.898438 150.28125 L 301.691406 139.210938 C 301.710938 138.988281 301.839844 138.789062 302.035156 138.683594 L 310.546875 134.109375 C 310.734375 134.007812 310.957031 134.003906 311.148438 134.097656 C 311.339844 134.195312 311.46875 134.378906 311.5 134.585938 L 313.640625 149.277344 C 313.84375 150.40625 314.714844 151.308594 315.851562 151.566406 L 320.695312 152.648438 C 320.941406 152.703125 321.136719 152.898438 321.191406 153.144531 C 321.246094 153.394531 321.152344 153.652344 320.949219 153.804688 L 316.945312 156.839844 C 314.035156 159.046875 310.550781 160.152344 307.0625 160.152344 " fill-opacity="1" fill-rule="nonzero"/><path fill="#000000" d="M 289.730469 123.808594 C 292.398438 122.394531 290.25 126.792969 299.027344 119.195312 C 302.523438 116.171875 302.652344 121.816406 303.558594 121.035156 C 306.917969 118.144531 306.800781 118.238281 308.917969 117.871094 C 310.320312 117.628906 312.195312 119.5625 312.753906 121.394531 C 313.488281 123.8125 311.882812 125.257812 312.429688 130.828125 C 312.816406 134.738281 314.046875 136.65625 312.917969 137.769531 C 311.78125 138.890625 309.925781 137.519531 308.589844 138.652344 C 306.859375 140.117188 308.835938 143.378906 307.558594 145.6875 C 306.75 147.148438 304.105469 148.859375 298.539062 148.726562 C 297.636719 148.707031 296.875 148.042969 296.726562 147.148438 C 296.539062 146.003906 296.308594 144.558594 296.203125 143.15625 C 295.707031 136.480469 297.140625 134.265625 295.726562 133.125 C 293.558594 131.375 289.875 134.632812 288.308594 133.097656 C 286.683594 131.503906 286.078125 125.738281 289.730469 123.808594 " fill-opacity="1" fill-rule="nonzero"/><path fill="#ffffff" d="M 303.003906 127.550781 L 302.894531 129.375 C 302.84375 130.234375 302.851562 131.09375 302.917969 131.953125 C 303.042969 133.5625 303.238281 136.332031 303.226562 137.894531 C 303.210938 140.183594 296.132812 140.632812 296.132812 140.632812 L 295.234375 139.632812 L 294.402344 139.664062 C 294.242188 139.671875 294.078125 139.644531 293.933594 139.574219 C 293.578125 139.386719 293.398438 139.003906 293.460938 138.632812 C 293.796875 136.609375 294.382812 132.144531 293.734375 128.667969 C 293.734375 128.667969 297.671875 125.472656 303.003906 127.550781 " fill-opacity="1" fill-rule="nonzero"/><path fill="#000000" d="M 295.234375 138.980469 C 295.417969 138.980469 295.59375 139.054688 295.71875 139.195312 L 296.402344 139.957031 C 299.4375 139.722656 302.566406 138.859375 302.574219 137.890625 C 302.582031 136.339844 302.386719 133.535156 302.265625 132.003906 C 302.199219 131.117188 302.1875 130.21875 302.246094 129.335938 L 302.324219 128 C 298.421875 126.683594 295.386719 128.34375 294.449219 128.964844 C 294.988281 132.386719 294.472656 136.527344 294.105469 138.738281 C 294.089844 138.816406 294.121094 138.933594 294.238281 138.996094 C 294.25 139 294.292969 139.015625 294.375 139.015625 L 295.203125 138.980469 C 295.214844 138.980469 295.226562 138.980469 295.234375 138.980469 Z M 296.132812 141.285156 C 295.945312 141.285156 295.769531 141.207031 295.648438 141.066406 L 294.953125 140.296875 L 294.429688 140.316406 C 294.144531 140.332031 293.867188 140.273438 293.632812 140.152344 C 293.035156 139.839844 292.707031 139.1875 292.816406 138.527344 C 293.113281 136.738281 293.730469 132.214844 293.089844 128.789062 C 293.046875 128.554688 293.136719 128.3125 293.324219 128.160156 C 293.496094 128.023438 297.617188 124.75 303.242188 126.941406 C 303.507812 127.046875 303.675781 127.308594 303.65625 127.589844 L 303.546875 129.414062 C 303.496094 130.242188 303.503906 131.078125 303.566406 131.902344 C 303.6875 133.457031 303.890625 136.300781 303.878906 137.898438 C 303.863281 140.65625 297.457031 141.203125 296.175781 141.285156 C 296.160156 141.285156 296.144531 141.285156 296.132812 141.285156 " fill-opacity="1" fill-rule="nonzero"/><path fill="#ffffff" d="M 304.253906 133.167969 C 304.253906 133.167969 304.511719 128.785156 306.476562 129.339844 C 308.445312 129.894531 308.035156 134.710938 304.253906 133.167969 " fill-opacity="1" fill-rule="nonzero"/><path fill="#000000" d="M 249.753906 24.277344 C 249.394531 24.277344 249.101562 23.984375 249.101562 23.625 L 249.101562 20.246094 C 249.101562 19.886719 249.394531 19.59375 249.753906 19.59375 C 250.117188 19.59375 250.410156 19.886719 250.410156 20.246094 L 250.410156 23.625 C 250.410156 23.984375 250.117188 24.277344 249.753906 24.277344 " fill-opacity="1" fill-rule="nonzero"/><path fill="#000000" d="M 249.753906 32.144531 C 249.394531 32.144531 249.101562 31.851562 249.101562 31.492188 L 249.101562 28.113281 C 249.101562 27.753906 249.394531 27.460938 249.753906 27.460938 C 250.117188 27.460938 250.410156 27.753906 250.410156 28.113281 L 250.410156 31.492188 C 250.410156 31.851562 250.117188 32.144531 249.753906 32.144531 " fill-opacity="1" fill-rule="nonzero"/><path fill="#000000" d="M 255.378906 26.519531 L 252 26.519531 C 251.640625 26.519531 251.347656 26.230469 251.347656 25.867188 C 251.347656 25.507812 251.640625 25.214844 252 25.214844 L 255.378906 25.214844 C 255.738281 25.214844 256.03125 25.507812 256.03125 25.867188 C 256.03125 26.230469 255.738281 26.519531 255.378906 26.519531 " fill-opacity="1" fill-rule="nonzero"/><path fill="#000000" d="M 247.511719 26.519531 L 244.136719 26.519531 C 243.773438 26.519531 243.480469 26.230469 243.480469 25.867188 C 243.480469 25.507812 243.773438 25.214844 244.136719 25.214844 L 247.511719 25.214844 C 247.871094 25.214844 248.164062 25.507812 248.164062 25.867188 C 248.164062 26.230469 247.871094 26.519531 247.511719 26.519531 " fill-opacity="1" fill-rule="nonzero"/><path fill="#000000" d="M 208.777344 27.414062 C 208.496094 27.414062 208.21875 27.464844 207.953125 27.570312 C 207.367188 27.796875 206.902344 28.25 206.648438 28.835938 C 206.132812 30.042969 206.667969 31.457031 207.84375 31.984375 C 208.402344 32.238281 209.027344 32.253906 209.601562 32.03125 C 210.183594 31.804688 210.648438 31.351562 210.902344 30.765625 C 211.425781 29.558594 210.886719 28.144531 209.710938 27.617188 C 209.414062 27.480469 209.09375 27.414062 208.777344 27.414062 Z M 208.773438 33.492188 C 208.277344 33.492188 207.777344 33.386719 207.308594 33.175781 C 205.484375 32.355469 204.648438 30.175781 205.453125 28.316406 C 205.84375 27.40625 206.566406 26.710938 207.480469 26.351562 C 208.378906 26.003906 209.363281 26.027344 210.242188 26.421875 C 212.066406 27.246094 212.902344 29.425781 212.101562 31.285156 C 211.710938 32.195312 210.988281 32.890625 210.074219 33.25 C 209.652344 33.414062 209.214844 33.492188 208.773438 33.492188 " fill-opacity="1" fill-rule="nonzero"/><path fill="#000000" d="M 37.847656 203.90625 C 37.542969 203.90625 37.269531 203.6875 37.207031 203.382812 C 32.359375 179.375 34.027344 156.222656 42.164062 134.558594 C 48.921875 116.574219 58.710938 103.480469 65.734375 95.664062 C 65.976562 95.394531 66.386719 95.375 66.65625 95.613281 C 66.925781 95.855469 66.945312 96.269531 66.707031 96.539062 C 54.492188 110.128906 27.296875 147.726562 38.488281 203.121094 C 38.558594 203.476562 38.328125 203.820312 37.976562 203.890625 C 37.933594 203.898438 37.890625 203.90625 37.847656 203.90625 " fill-opacity="1" fill-rule="nonzero"/><path fill="#000000" d="M 49.867188 195.265625 C 49.527344 195.265625 49.242188 195.003906 49.214844 194.660156 C 47.914062 177.882812 49.28125 161.742188 53.273438 146.6875 C 53.367188 146.339844 53.722656 146.132812 54.070312 146.226562 C 54.417969 146.320312 54.625 146.675781 54.535156 147.023438 C 50.578125 161.933594 49.226562 177.929688 50.515625 194.5625 C 50.546875 194.917969 50.277344 195.234375 49.917969 195.261719 C 49.898438 195.261719 49.882812 195.265625 49.867188 195.265625 " fill-opacity="1" fill-rule="nonzero"/><path fill="#000000" d="M 57.058594 136.015625 C 56.996094 136.015625 56.929688 136.003906 56.867188 135.984375 C 56.523438 135.878906 56.328125 135.511719 56.4375 135.167969 C 61.152344 119.9375 67.167969 111.503906 67.226562 111.417969 C 67.4375 111.125 67.847656 111.0625 68.140625 111.273438 C 68.429688 111.484375 68.496094 111.890625 68.285156 112.183594 C 68.226562 112.265625 62.332031 120.542969 57.683594 135.554688 C 57.597656 135.835938 57.339844 136.015625 57.058594 136.015625 " fill-opacity="1" fill-rule="nonzero"/><path fill="#000000" d="M 39.503906 210.308594 L 39.507812 210.308594 Z M 40.703125 210.703125 C 40.386719 210.703125 40.070312 210.769531 39.773438 210.90625 C 38.59375 211.433594 38.058594 212.847656 38.578125 214.054688 C 38.832031 214.644531 39.296875 215.09375 39.882812 215.320312 C 40.453125 215.542969 41.078125 215.527344 41.636719 215.277344 C 42.816406 214.746094 43.351562 213.332031 42.832031 212.125 C 42.578125 211.535156 42.117188 211.089844 41.527344 210.859375 C 41.261719 210.753906 40.984375 210.703125 40.703125 210.703125 Z M 40.707031 216.785156 C 40.269531 216.785156 39.828125 216.699219 39.410156 216.539062 C 38.492188 216.183594 37.773438 215.484375 37.378906 214.574219 C 36.578125 212.714844 37.410156 210.535156 39.238281 209.714844 C 40.121094 209.320312 41.101562 209.292969 42.003906 209.640625 C 42.917969 210 43.636719 210.695312 44.03125 211.605469 C 44.832031 213.464844 44 215.648438 42.171875 216.464844 C 41.703125 216.675781 41.207031 216.785156 40.707031 216.785156 " fill-opacity="1" fill-rule="nonzero"/><path fill="#000000" d="M 361.804688 298.242188 C 361.480469 298.242188 361.199219 298 361.160156 297.667969 C 361.113281 297.308594 361.371094 296.984375 361.730469 296.941406 L 364.652344 296.582031 C 365.007812 296.539062 365.335938 296.792969 365.382812 297.152344 C 365.425781 297.507812 365.171875 297.835938 364.8125 297.878906 L 361.886719 298.238281 C 361.859375 298.242188 361.832031 298.242188 361.804688 298.242188 " fill-opacity="1" fill-rule="nonzero"/><path fill="#000000" d="M 354.992188 299.078125 C 354.667969 299.078125 354.386719 298.835938 354.347656 298.503906 C 354.300781 298.144531 354.558594 297.820312 354.914062 297.777344 L 357.839844 297.417969 C 358.191406 297.371094 358.523438 297.628906 358.566406 297.984375 C 358.613281 298.34375 358.355469 298.667969 357.996094 298.714844 L 355.070312 299.070312 C 355.046875 299.074219 355.019531 299.078125 354.992188 299.078125 " fill-opacity="1" fill-rule="nonzero"/><path fill="#000000" d="M 359.625 296.535156 C 359.296875 296.535156 359.019531 296.292969 358.976562 295.960938 L 358.617188 293.035156 C 358.574219 292.679688 358.828125 292.351562 359.1875 292.308594 C 359.539062 292.265625 359.867188 292.519531 359.914062 292.878906 L 360.269531 295.804688 C 360.316406 296.160156 360.0625 296.484375 359.703125 296.53125 C 359.679688 296.535156 359.652344 296.535156 359.625 296.535156 " fill-opacity="1" fill-rule="nonzero"/><path fill="#000000" d="M 360.457031 303.351562 C 360.132812 303.351562 359.851562 303.109375 359.808594 302.777344 L 359.453125 299.851562 C 359.410156 299.492188 359.660156 299.167969 360.019531 299.125 C 360.375 299.082031 360.703125 299.335938 360.75 299.691406 L 361.105469 302.621094 C 361.148438 302.976562 360.894531 303.304688 360.535156 303.347656 C 360.511719 303.347656 360.484375 303.351562 360.457031 303.351562 " fill-opacity="1" fill-rule="nonzero"/><path fill="#000000" d="M 363.476562 288.160156 C 363.441406 288.160156 363.40625 288.15625 363.375 288.152344 C 363.015625 288.097656 362.773438 287.761719 362.828125 287.40625 C 365.585938 269.523438 359.292969 255.230469 359.226562 255.089844 C 359.078125 254.761719 359.226562 254.375 359.554688 254.226562 C 359.882812 254.078125 360.269531 254.226562 360.417969 254.554688 C 360.484375 254.699219 366.9375 269.324219 364.117188 287.605469 C 364.066406 287.929688 363.789062 288.160156 363.476562 288.160156 " fill-opacity="1" fill-rule="nonzero"/><path fill="#000000" d="M 354.992188 124.460938 C 354.714844 124.460938 354.4375 124.511719 354.167969 124.617188 C 353.582031 124.84375 353.121094 125.296875 352.867188 125.882812 C 352.347656 127.089844 352.882812 128.503906 354.0625 129.03125 C 354.621094 129.285156 355.246094 129.300781 355.816406 129.078125 C 356.402344 128.847656 356.867188 128.402344 357.121094 127.8125 C 357.636719 126.605469 357.101562 125.191406 355.925781 124.664062 C 355.625 124.527344 355.3125 124.460938 354.992188 124.460938 Z M 354.992188 130.542969 C 354.492188 130.542969 353.996094 130.433594 353.527344 130.222656 C 351.699219 129.402344 350.863281 127.222656 351.667969 125.367188 C 352.058594 124.453125 352.78125 123.753906 353.695312 123.398438 C 354.597656 123.050781 355.578125 123.074219 356.460938 123.472656 C 358.285156 124.292969 359.117188 126.472656 358.316406 128.332031 C 357.925781 129.242188 357.203125 129.941406 356.289062 130.296875 C 355.867188 130.460938 355.429688 130.542969 354.992188 130.542969 " fill-opacity="1" fill-rule="nonzero"/></svg>