<svg xmlns="http://www.w3.org/2000/svg" xmlns:xlink="http://www.w3.org/1999/xlink" width="500" zoomAndPan="magnify" viewBox="0 0 375 374.999991" height="500" preserveAspectRatio="xMidYMid meet" version="1.0"><path fill="#ffcc9c" d="M 343.726562 262.886719 C 355.632812 226.765625 324.144531 204.027344 335 137.589844 C 342.117188 94.007812 350.976562 76.046875 341.933594 54.988281 C 326.511719 19.0625 243.589844 16.542969 182.457031 23.394531 C 148.578125 27.191406 80.242188 49.609375 46.664062 118.683594 C 19.347656 174.875 30.589844 245.796875 70.40625 288.617188 C 150.699219 374.972656 323.988281 322.742188 343.726562 262.886719 " fill-opacity="1" fill-rule="nonzero"/><path fill="#ffffff" d="M 342.304688 219.449219 C 342.304688 190.972656 331.53125 148.574219 279.636719 151.148438 C 282.558594 115.089844 260.53125 60.464844 198.660156 64.996094 C 168.792969 67.179688 156.296875 97.601562 153.058594 96.335938 C 111.402344 80.027344 62.941406 120.714844 74.261719 178.699219 C 51.117188 181.460938 29.578125 199.925781 30.117188 228.007812 C 30.46875 246.257812 40.050781 260.289062 55.585938 260.289062 L 307.378906 260.289062 C 326.15625 260.289062 341.8125 242.867188 342.289062 220.816406 C 342.300781 220.363281 342.304688 219.90625 342.304688 219.449219 " fill-opacity="1" fill-rule="nonzero"/><path fill="#ff914d" d="M 345.519531 224.40625 C 345.519531 196.660156 345.46875 142.359375 280.414062 144.734375 C 269.53125 90.035156 242.808594 71.144531 206.691406 71.015625 C 172.039062 70.894531 158.246094 105.363281 155.167969 103.976562 C 112.15625 84.554688 72.265625 128.5 81.003906 179.488281 C 58.652344 182.179688 41.210938 204.550781 41.210938 231.75 C 41.210938 231.875 41.210938 231.996094 41.210938 232.117188 C 41.316406 249.898438 53.613281 264.199219 68.617188 264.199219 L 311.785156 264.199219 C 329.921875 264.199219 345.042969 247.222656 345.503906 225.742188 C 345.511719 225.296875 345.519531 224.851562 345.519531 224.40625 " fill-opacity="1" fill-rule="nonzero"/><path fill="#ea803e" d="M 158.503906 125.933594 C 163.027344 119.882812 171.59375 118.648438 177.636719 123.167969 C 183.683594 127.691406 184.921875 136.257812 180.398438 142.304688 C 175.882812 148.351562 167.3125 149.585938 161.265625 145.066406 C 155.21875 140.546875 153.984375 131.976562 158.503906 125.933594 Z M 149.628906 124.203125 C 149.070312 125.320312 148.605469 126.46875 148.25 127.636719 L 142.488281 128.234375 L 141.859375 133.507812 L 147.328125 135.441406 C 147.402344 136.675781 147.578125 137.898438 147.855469 139.101562 L 143.160156 142.503906 L 145.25 147.386719 L 150.949219 146.332031 C 151.621094 147.351562 152.390625 148.320312 153.242188 149.234375 L 150.875 154.527344 L 155.128906 157.710938 L 159.539062 153.941406 C 160.65625 154.503906 161.804688 154.964844 162.972656 155.320312 L 163.570312 161.082031 L 168.84375 161.710938 L 170.78125 156.242188 C 172.011719 156.167969 173.234375 155.992188 174.4375 155.714844 L 177.839844 160.414062 L 182.71875 158.320312 L 181.667969 152.625 C 182.6875 151.949219 183.65625 151.183594 184.570312 150.328125 L 189.863281 152.695312 L 193.046875 148.441406 L 189.277344 144.03125 C 189.835938 142.914062 190.300781 141.765625 190.65625 140.601562 L 196.417969 140 L 197.042969 134.726562 L 191.578125 132.789062 C 191.503906 131.558594 191.328125 130.335938 191.046875 129.132812 L 195.746094 125.730469 L 193.652344 120.847656 L 187.957031 121.90625 C 187.285156 120.882812 186.519531 119.914062 185.664062 119 L 188.03125 113.707031 L 183.777344 110.527344 L 179.367188 114.292969 C 178.25 113.734375 177.101562 113.269531 175.933594 112.914062 L 175.335938 107.152344 L 170.0625 106.523438 L 168.125 111.996094 C 166.894531 112.070312 165.671875 112.246094 164.46875 112.519531 L 161.066406 107.824219 L 156.183594 109.917969 L 157.238281 115.613281 C 156.21875 116.285156 155.25 117.054688 154.335938 117.90625 L 149.039062 115.539062 L 145.859375 119.792969 L 149.628906 124.203125 " fill-opacity="1" fill-rule="nonzero"/><path fill="#ffcc9c" d="M 161.09375 125.558594 C 165.613281 119.507812 174.179688 118.273438 180.226562 122.796875 C 186.273438 127.316406 187.507812 135.882812 182.988281 141.929688 C 178.46875 147.976562 169.898438 149.210938 163.851562 144.691406 C 157.808594 140.171875 156.570312 131.605469 161.09375 125.558594 Z M 152.214844 123.828125 C 151.65625 124.945312 151.191406 126.09375 150.835938 127.261719 L 145.074219 127.863281 L 144.445312 133.132812 L 149.914062 135.070312 C 149.988281 136.300781 150.167969 137.523438 150.445312 138.726562 L 145.746094 142.132812 L 147.839844 147.011719 L 153.535156 145.953125 C 154.207031 146.976562 154.976562 147.949219 155.828125 148.859375 L 153.460938 154.15625 L 157.714844 157.335938 L 162.125 153.566406 C 163.242188 154.128906 164.390625 154.589844 165.558594 154.945312 L 166.15625 160.707031 L 171.429688 161.335938 L 173.367188 155.867188 C 174.597656 155.792969 175.824219 155.617188 177.023438 155.339844 L 180.425781 160.039062 L 185.308594 157.945312 L 184.253906 152.25 C 185.273438 151.578125 186.242188 150.808594 187.15625 149.953125 L 192.453125 152.320312 L 195.632812 148.066406 L 191.863281 143.65625 C 192.421875 142.542969 192.886719 141.390625 193.242188 140.226562 L 199.003906 139.625 L 199.632812 134.351562 L 194.164062 132.417969 C 194.089844 131.183594 193.910156 129.960938 193.632812 128.761719 L 198.335938 125.355469 L 196.242188 120.476562 L 190.546875 121.53125 C 189.871094 120.511719 189.105469 119.539062 188.25 118.628906 L 190.617188 113.332031 L 186.363281 110.152344 L 181.953125 113.917969 C 180.835938 113.359375 179.691406 112.894531 178.519531 112.539062 L 177.921875 106.777344 L 172.648438 106.148438 L 170.710938 111.621094 C 169.480469 111.695312 168.257812 111.871094 167.054688 112.144531 L 163.652344 107.449219 L 158.769531 109.542969 L 159.824219 115.238281 C 158.804688 115.910156 157.835938 116.679688 156.925781 117.53125 L 151.628906 115.167969 L 148.449219 119.417969 L 152.214844 123.828125 " fill-opacity="1" fill-rule="nonzero"/><path fill="#000000" d="M 161.09375 125.558594 Z M 172.054688 120.652344 C 168.0625 120.652344 164.117188 122.464844 161.550781 125.898438 C 159.453125 128.703125 158.574219 132.152344 159.074219 135.613281 C 159.574219 139.078125 161.394531 142.140625 164.195312 144.234375 C 167 146.328125 170.445312 147.210938 173.910156 146.707031 C 177.371094 146.207031 180.433594 144.390625 182.53125 141.585938 C 186.855469 135.804688 185.667969 127.578125 179.882812 123.253906 C 177.535156 121.496094 174.78125 120.652344 172.054688 120.652344 Z M 172.007812 147.988281 C 168.957031 147.988281 165.996094 147.011719 163.507812 145.152344 C 160.460938 142.871094 158.484375 139.542969 157.941406 135.777344 C 157.398438 132.011719 158.351562 128.261719 160.632812 125.214844 C 162.910156 122.167969 166.238281 120.191406 170.003906 119.644531 C 173.765625 119.105469 177.519531 120.058594 180.570312 122.335938 C 183.613281 124.613281 185.59375 127.941406 186.136719 131.707031 C 186.679688 135.472656 185.726562 139.226562 183.445312 142.273438 C 181.167969 145.320312 177.839844 147.296875 174.074219 147.839844 C 173.382812 147.941406 172.695312 147.988281 172.007812 147.988281 Z M 166.679688 160.195312 L 171.042969 160.714844 L 172.828125 155.675781 C 172.902344 155.460938 173.101562 155.308594 173.332031 155.296875 C 174.527344 155.222656 175.726562 155.050781 176.894531 154.78125 C 177.121094 154.730469 177.351562 154.816406 177.488281 155.003906 L 180.625 159.332031 L 184.660156 157.597656 L 183.691406 152.351562 C 183.648438 152.125 183.746094 151.898438 183.9375 151.769531 C 184.921875 151.121094 185.871094 150.371094 186.761719 149.535156 C 186.933594 149.378906 187.179688 149.335938 187.390625 149.433594 L 192.265625 151.609375 L 194.898438 148.09375 L 191.425781 144.03125 C 191.277344 143.855469 191.246094 143.605469 191.351562 143.398438 C 191.898438 142.3125 192.351562 141.1875 192.695312 140.058594 C 192.761719 139.835938 192.953125 139.679688 193.183594 139.65625 L 198.492188 139.101562 L 199.011719 134.742188 L 193.972656 132.957031 C 193.757812 132.878906 193.605469 132.679688 193.589844 132.449219 C 193.519531 131.253906 193.347656 130.058594 193.078125 128.886719 C 193.027344 128.664062 193.113281 128.429688 193.300781 128.296875 L 197.625 125.160156 L 195.894531 121.121094 L 190.648438 122.09375 C 190.421875 122.140625 190.191406 122.039062 190.066406 121.847656 C 189.414062 120.859375 188.664062 119.90625 187.832031 119.019531 C 187.675781 118.851562 187.636719 118.605469 187.726562 118.394531 L 189.90625 113.515625 L 186.386719 110.886719 L 182.328125 114.355469 C 182.148438 114.503906 181.902344 114.535156 181.695312 114.429688 C 180.609375 113.886719 179.484375 113.433594 178.351562 113.085938 C 178.132812 113.019531 177.972656 112.828125 177.949219 112.597656 L 177.398438 107.292969 L 173.035156 106.773438 L 171.253906 111.808594 C 171.175781 112.027344 170.976562 112.175781 170.746094 112.191406 C 169.550781 112.265625 168.351562 112.433594 167.183594 112.703125 C 166.960938 112.757812 166.726562 112.667969 166.589844 112.484375 L 163.457031 108.15625 L 159.417969 109.890625 L 160.386719 115.132812 C 160.429688 115.363281 160.332031 115.589844 160.144531 115.714844 C 159.15625 116.367188 158.203125 117.121094 157.316406 117.949219 C 157.144531 118.109375 156.902344 118.148438 156.691406 118.054688 L 151.8125 115.875 L 149.179688 119.394531 L 152.652344 123.457031 C 152.800781 123.632812 152.828125 123.878906 152.726562 124.085938 C 152.179688 125.171875 151.730469 126.300781 151.382812 127.429688 C 151.316406 127.648438 151.121094 127.808594 150.894531 127.832031 L 145.589844 128.382812 L 145.070312 132.746094 L 150.105469 134.53125 C 150.324219 134.605469 150.472656 134.808594 150.484375 135.035156 C 150.558594 136.234375 150.734375 137.429688 151 138.597656 C 151.050781 138.824219 150.964844 139.058594 150.777344 139.191406 L 146.453125 142.328125 L 148.183594 146.363281 L 153.429688 145.394531 C 153.65625 145.351562 153.886719 145.449219 154.011719 145.640625 C 154.660156 146.625 155.414062 147.578125 156.246094 148.46875 C 156.402344 148.636719 156.445312 148.882812 156.351562 149.09375 L 154.171875 153.96875 L 157.691406 156.601562 L 161.753906 153.132812 C 161.929688 152.984375 162.175781 152.953125 162.382812 153.054688 C 163.46875 153.601562 164.59375 154.054688 165.726562 154.398438 C 165.945312 154.46875 166.105469 154.65625 166.128906 154.886719 Z M 171.429688 161.910156 C 171.40625 161.910156 171.382812 161.910156 171.363281 161.90625 L 166.089844 161.277344 C 165.824219 161.246094 165.613281 161.035156 165.585938 160.769531 L 165.027344 155.382812 C 164.078125 155.070312 163.132812 154.691406 162.210938 154.25 L 158.085938 157.769531 C 157.882812 157.945312 157.585938 157.957031 157.371094 157.792969 L 153.117188 154.613281 C 152.902344 154.453125 152.828125 154.164062 152.941406 153.921875 L 155.148438 148.96875 C 154.464844 148.210938 153.835938 147.414062 153.269531 146.589844 L 147.941406 147.574219 C 147.679688 147.625 147.417969 147.484375 147.3125 147.238281 L 145.21875 142.359375 C 145.113281 142.113281 145.191406 141.828125 145.410156 141.667969 L 149.800781 138.484375 C 149.59375 137.496094 149.445312 136.492188 149.371094 135.484375 L 144.253906 133.671875 C 144.003906 133.585938 143.847656 133.332031 143.878906 133.066406 L 144.503906 127.792969 C 144.535156 127.527344 144.75 127.320312 145.015625 127.289062 L 150.402344 126.734375 C 150.710938 125.78125 151.089844 124.835938 151.535156 123.914062 L 148.011719 119.792969 C 147.839844 119.585938 147.828125 119.289062 147.988281 119.074219 L 151.167969 114.824219 C 151.328125 114.609375 151.613281 114.535156 151.863281 114.644531 L 156.8125 116.855469 C 157.570312 116.171875 158.367188 115.539062 159.195312 114.972656 L 158.207031 109.644531 C 158.160156 109.382812 158.300781 109.121094 158.546875 109.015625 L 163.425781 106.921875 C 163.671875 106.816406 163.957031 106.894531 164.117188 107.113281 L 167.296875 111.507812 C 168.285156 111.296875 169.292969 111.152344 170.296875 111.074219 L 172.109375 105.957031 C 172.199219 105.707031 172.445312 105.542969 172.714844 105.582031 L 177.992188 106.207031 C 178.257812 106.242188 178.464844 106.453125 178.492188 106.71875 L 179.050781 112.105469 C 180 112.417969 180.945312 112.796875 181.867188 113.238281 L 185.992188 109.71875 C 186.195312 109.542969 186.492188 109.53125 186.707031 109.691406 L 190.960938 112.875 C 191.175781 113.035156 191.25 113.320312 191.136719 113.566406 L 188.925781 118.515625 C 189.613281 119.277344 190.242188 120.074219 190.8125 120.898438 L 196.136719 119.914062 C 196.398438 119.863281 196.660156 120.003906 196.765625 120.25 L 198.859375 125.132812 C 198.964844 125.375 198.886719 125.664062 198.671875 125.820312 L 194.277344 129.003906 C 194.484375 129.988281 194.632812 130.996094 194.710938 132.003906 L 199.824219 133.8125 C 200.078125 133.902344 200.234375 134.15625 200.199219 134.421875 L 199.574219 139.695312 C 199.542969 139.960938 199.332031 140.167969 199.066406 140.195312 L 193.675781 140.757812 C 193.367188 141.703125 192.988281 142.652344 192.542969 143.574219 L 196.066406 147.695312 C 196.242188 147.898438 196.25 148.195312 196.089844 148.410156 L 192.910156 152.664062 C 192.75 152.878906 192.464844 152.953125 192.21875 152.84375 L 187.265625 150.632812 C 186.503906 151.316406 185.707031 151.949219 184.882812 152.515625 L 185.871094 157.839844 C 185.921875 158.105469 185.78125 158.367188 185.535156 158.46875 L 180.652344 160.5625 C 180.40625 160.667969 180.121094 160.589844 179.964844 160.375 L 176.78125 155.980469 C 175.792969 156.191406 174.785156 156.335938 173.78125 156.414062 L 171.96875 161.527344 C 171.886719 161.757812 171.667969 161.910156 171.429688 161.910156 " fill-opacity="1" fill-rule="nonzero"/><path fill="#ea803e" d="M 220.183594 121.148438 C 224.148438 112.296875 234.535156 108.332031 243.382812 112.296875 C 252.234375 116.257812 256.199219 126.644531 252.234375 135.496094 C 248.273438 144.347656 237.886719 148.308594 229.035156 144.347656 C 220.183594 140.382812 216.222656 129.996094 220.183594 121.148438 Z M 208.578125 121.480469 C 208.1875 123.039062 207.933594 124.605469 207.816406 126.171875 L 200.765625 128.542969 L 201.464844 135.328125 L 208.859375 136.214844 C 209.300781 137.738281 209.867188 139.222656 210.554688 140.648438 L 205.625 146.238281 L 209.621094 151.761719 L 216.460938 148.835938 C 217.59375 149.925781 218.828125 150.925781 220.152344 151.828125 L 218.679688 159.128906 L 224.90625 161.917969 L 229.371094 155.953125 C 230.925781 156.34375 232.496094 156.597656 234.058594 156.714844 L 236.433594 163.765625 L 243.214844 163.066406 L 244.101562 155.671875 C 245.625 155.230469 247.109375 154.664062 248.539062 153.976562 L 254.125 158.90625 L 259.652344 154.910156 L 256.726562 148.070312 C 257.8125 146.941406 258.8125 145.703125 259.714844 144.378906 L 267.019531 145.851562 L 269.808594 139.625 L 263.84375 135.160156 C 264.230469 133.605469 264.488281 132.035156 264.601562 130.472656 L 271.65625 128.097656 L 270.957031 121.316406 L 263.558594 120.429688 C 263.121094 118.90625 262.554688 117.421875 261.867188 115.992188 L 266.796875 110.40625 L 262.800781 104.878906 L 255.960938 107.804688 C 254.828125 106.71875 253.59375 105.71875 252.265625 104.816406 L 253.742188 97.511719 L 247.515625 94.726562 L 243.050781 100.6875 C 241.492188 100.300781 239.925781 100.046875 238.359375 99.925781 L 235.988281 92.875 L 229.203125 93.574219 L 228.316406 100.972656 C 226.792969 101.410156 225.308594 101.976562 223.882812 102.664062 L 218.292969 97.734375 L 212.769531 101.730469 L 215.695312 108.570312 C 214.609375 109.703125 213.605469 110.9375 212.703125 112.265625 L 205.402344 110.789062 L 202.613281 117.015625 L 208.578125 121.480469 " fill-opacity="1" fill-rule="nonzero"/><path fill="#ffffff" d="M 223.324219 119.949219 C 227.285156 111.097656 237.671875 107.136719 246.519531 111.097656 C 255.371094 115.0625 259.332031 125.449219 255.371094 134.296875 C 251.410156 143.148438 241.023438 147.109375 232.171875 143.148438 C 223.324219 139.1875 219.359375 128.800781 223.324219 119.949219 Z M 211.714844 120.28125 C 211.324219 121.839844 211.070312 123.40625 210.953125 124.972656 L 203.898438 127.34375 L 204.597656 134.132812 L 211.996094 135.015625 C 212.4375 136.539062 213 138.023438 213.6875 139.449219 L 208.761719 145.039062 L 212.757812 150.5625 L 219.597656 147.636719 C 220.726562 148.726562 221.964844 149.726562 223.289062 150.628906 L 221.816406 157.933594 L 228.042969 160.71875 L 232.503906 154.757812 C 234.0625 155.144531 235.632812 155.398438 237.195312 155.519531 L 239.566406 162.570312 L 246.355469 161.871094 L 247.238281 154.472656 C 248.761719 154.03125 250.246094 153.46875 251.675781 152.78125 L 257.261719 157.707031 L 262.789062 153.710938 L 259.863281 146.871094 C 260.949219 145.742188 261.949219 144.507812 262.851562 143.179688 L 270.15625 144.652344 L 272.941406 138.429688 L 266.980469 133.964844 C 267.367188 132.40625 267.621094 130.839844 267.742188 129.273438 L 274.792969 126.902344 L 274.09375 120.117188 L 266.695312 119.230469 C 266.257812 117.707031 265.691406 116.226562 265.003906 114.796875 L 269.933594 109.207031 L 265.933594 103.679688 L 259.09375 106.609375 C 257.964844 105.519531 256.730469 104.523438 255.402344 103.617188 L 256.875 96.316406 L 250.652344 93.527344 L 246.1875 99.492188 C 244.628906 99.105469 243.0625 98.847656 241.496094 98.730469 L 239.125 91.675781 L 232.339844 92.375 L 231.453125 99.773438 C 229.929688 100.214844 228.449219 100.777344 227.019531 101.464844 L 221.429688 96.539062 L 215.90625 100.535156 L 218.832031 107.375 C 217.742188 108.507812 216.746094 109.742188 215.839844 111.066406 L 208.539062 109.59375 L 205.75 115.816406 L 211.714844 120.28125 " fill-opacity="1" fill-rule="nonzero"/><path fill="#000000" d="M 223.324219 119.949219 Z M 239.371094 110.140625 C 232.878906 110.140625 226.664062 113.882812 223.84375 120.183594 C 220.015625 128.730469 223.859375 138.800781 232.40625 142.628906 C 240.953125 146.453125 251.019531 142.613281 254.847656 134.0625 C 256.699219 129.925781 256.832031 125.308594 255.214844 121.070312 C 253.597656 116.832031 250.429688 113.476562 246.289062 111.625 C 244.039062 110.617188 241.6875 110.140625 239.371094 110.140625 Z M 239.320312 145.253906 C 236.847656 145.253906 234.335938 144.746094 231.9375 143.671875 C 222.8125 139.585938 218.710938 128.839844 222.800781 119.714844 C 226.882812 110.59375 237.628906 106.492188 246.753906 110.578125 C 255.878906 114.664062 259.980469 125.410156 255.894531 134.535156 C 252.882812 141.257812 246.25 145.253906 239.320312 145.253906 Z M 232.503906 154.183594 C 232.550781 154.183594 232.597656 154.191406 232.644531 154.203125 C 234.171875 154.582031 235.71875 154.832031 237.238281 154.949219 C 237.46875 154.964844 237.664062 155.117188 237.738281 155.335938 L 239.964844 161.957031 L 245.835938 161.347656 L 246.671875 154.40625 C 246.699219 154.175781 246.859375 153.988281 247.082031 153.925781 C 248.566406 153.496094 250.027344 152.9375 251.425781 152.265625 C 251.632812 152.167969 251.878906 152.203125 252.050781 152.355469 L 257.296875 156.980469 L 262.078125 153.519531 L 259.332031 147.097656 C 259.242188 146.886719 259.285156 146.640625 259.445312 146.476562 C 260.503906 145.378906 261.492188 144.160156 262.378906 142.859375 C 262.507812 142.667969 262.738281 142.574219 262.964844 142.621094 L 269.820312 144.003906 L 272.230469 138.613281 L 266.636719 134.421875 C 266.449219 134.285156 266.367188 134.050781 266.421875 133.828125 C 266.804688 132.300781 267.054688 130.753906 267.167969 129.230469 C 267.1875 129 267.339844 128.804688 267.558594 128.730469 L 274.175781 126.507812 L 273.570312 120.632812 L 266.628906 119.800781 C 266.398438 119.773438 266.207031 119.613281 266.144531 119.390625 C 265.714844 117.902344 265.15625 116.441406 264.488281 115.046875 C 264.390625 114.835938 264.421875 114.589844 264.574219 114.417969 L 269.199219 109.171875 L 265.738281 104.390625 L 259.320312 107.136719 C 259.109375 107.226562 258.863281 107.183594 258.695312 107.023438 C 257.59375 105.964844 256.378906 104.976562 255.082031 104.089844 C 254.890625 103.960938 254.796875 103.730469 254.839844 103.503906 L 256.222656 96.652344 L 250.835938 94.238281 L 246.644531 99.835938 C 246.507812 100.019531 246.269531 100.101562 246.046875 100.046875 C 244.523438 99.667969 242.976562 99.417969 241.453125 99.300781 C 241.222656 99.285156 241.027344 99.128906 240.953125 98.914062 L 238.726562 92.296875 L 232.851562 92.902344 L 232.019531 99.84375 C 231.992188 100.070312 231.832031 100.261719 231.613281 100.324219 C 230.125 100.753906 228.664062 101.3125 227.265625 101.984375 C 227.058594 102.082031 226.8125 102.046875 226.640625 101.894531 L 221.394531 97.269531 L 216.609375 100.730469 L 219.359375 107.152344 C 219.449219 107.363281 219.402344 107.605469 219.242188 107.773438 C 218.1875 108.871094 217.199219 110.089844 216.3125 111.390625 C 216.183594 111.582031 215.953125 111.671875 215.726562 111.628906 L 208.875 110.246094 L 206.460938 115.636719 L 212.054688 119.824219 C 212.242188 119.964844 212.324219 120.199219 212.269531 120.421875 C 211.886719 121.949219 211.636719 123.496094 211.523438 125.015625 C 211.503906 125.25 211.351562 125.445312 211.132812 125.519531 L 204.515625 127.742188 L 205.121094 133.617188 L 212.066406 134.449219 C 212.292969 134.476562 212.484375 134.636719 212.546875 134.859375 C 212.976562 136.347656 213.535156 137.808594 214.203125 139.203125 C 214.304688 139.414062 214.269531 139.660156 214.117188 139.828125 L 209.492188 145.074219 L 212.953125 149.859375 L 219.371094 147.113281 C 219.582031 147.023438 219.828125 147.066406 219.996094 147.226562 C 221.09375 148.285156 222.3125 149.269531 223.609375 150.160156 C 223.800781 150.285156 223.894531 150.519531 223.847656 150.746094 L 222.464844 157.59375 L 227.855469 160.007812 L 232.046875 154.414062 C 232.15625 154.269531 232.328125 154.183594 232.503906 154.183594 Z M 239.566406 163.144531 C 239.324219 163.144531 239.101562 162.988281 239.023438 162.753906 L 236.773438 156.058594 C 235.4375 155.9375 234.082031 155.71875 232.738281 155.402344 L 228.5 161.0625 C 228.335938 161.277344 228.050781 161.351562 227.804688 161.242188 L 221.582031 158.457031 C 221.335938 158.347656 221.199219 158.082031 221.253906 157.820312 L 222.652344 150.886719 C 221.523438 150.097656 220.457031 149.234375 219.476562 148.3125 L 212.980469 151.09375 C 212.738281 151.199219 212.449219 151.117188 212.292969 150.902344 L 208.296875 145.375 C 208.136719 145.160156 208.152344 144.863281 208.332031 144.660156 L 213.007812 139.355469 C 212.4375 138.125 211.949219 136.84375 211.554688 135.542969 L 204.53125 134.699219 C 204.265625 134.667969 204.058594 134.457031 204.03125 134.1875 L 203.332031 127.40625 C 203.304688 127.136719 203.464844 126.890625 203.71875 126.804688 L 210.414062 124.550781 C 210.53125 123.214844 210.75 121.859375 211.066406 120.515625 L 205.40625 116.277344 C 205.191406 116.117188 205.117188 115.828125 205.226562 115.585938 L 208.011719 109.359375 C 208.125 109.117188 208.390625 108.980469 208.648438 109.03125 L 215.582031 110.429688 C 216.375 109.300781 217.238281 108.238281 218.15625 107.253906 L 215.378906 100.761719 C 215.269531 100.515625 215.351562 100.230469 215.570312 100.070312 L 221.09375 96.074219 C 221.3125 95.917969 221.605469 95.933594 221.808594 96.109375 L 227.113281 100.789062 C 228.347656 100.214844 229.625 99.726562 230.929688 99.332031 L 231.769531 92.308594 C 231.800781 92.042969 232.015625 91.835938 232.28125 91.808594 L 239.0625 91.109375 C 239.332031 91.082031 239.582031 91.242188 239.664062 91.496094 L 241.917969 98.191406 C 243.261719 98.3125 244.613281 98.53125 245.953125 98.847656 L 250.195312 93.183594 C 250.355469 92.972656 250.640625 92.894531 250.886719 93.007812 L 257.109375 95.792969 C 257.355469 95.902344 257.492188 96.167969 257.4375 96.429688 L 256.039062 103.363281 C 257.167969 104.152344 258.234375 105.015625 259.214844 105.9375 L 265.710938 103.15625 C 265.957031 103.050781 266.242188 103.128906 266.398438 103.347656 L 270.394531 108.875 C 270.554688 109.089844 270.539062 109.386719 270.363281 109.589844 L 265.683594 114.894531 C 266.253906 116.128906 266.742188 117.410156 267.136719 118.707031 L 274.160156 119.550781 C 274.429688 119.582031 274.632812 119.792969 274.660156 120.058594 L 275.359375 126.84375 C 275.386719 127.109375 275.226562 127.359375 274.976562 127.445312 L 268.28125 129.695312 C 268.160156 131.035156 267.941406 132.390625 267.625 133.734375 L 273.285156 137.972656 C 273.5 138.132812 273.574219 138.417969 273.464844 138.664062 L 270.679688 144.890625 C 270.566406 145.132812 270.304688 145.269531 270.042969 145.214844 L 263.109375 143.820312 C 262.316406 144.945312 261.453125 146.015625 260.535156 146.996094 L 263.3125 153.488281 C 263.417969 153.734375 263.339844 154.019531 263.125 154.175781 L 257.59375 158.175781 C 257.378906 158.332031 257.082031 158.316406 256.882812 158.140625 L 251.574219 153.460938 C 250.34375 154.035156 249.0625 154.523438 247.761719 154.914062 L 246.921875 161.941406 C 246.890625 162.207031 246.679688 162.414062 246.410156 162.441406 L 239.625 163.140625 C 239.609375 163.140625 239.585938 163.144531 239.566406 163.144531 " fill-opacity="1" fill-rule="nonzero"/><path fill="#ea803e" d="M 231.824219 195.621094 C 238.328125 185.570312 251.75 182.695312 261.800781 189.203125 C 271.851562 195.707031 274.726562 209.128906 268.222656 219.179688 C 261.714844 229.230469 248.292969 232.105469 238.242188 225.597656 C 228.195312 219.09375 225.320312 205.671875 231.824219 195.621094 Z M 217.597656 193.839844 C 216.832031 195.667969 216.222656 197.53125 215.785156 199.417969 L 206.730469 200.980469 L 206.304688 209.394531 L 215.164062 211.871094 C 215.414062 213.8125 215.824219 215.726562 216.390625 217.601562 L 209.320312 223.488281 L 213.15625 230.984375 L 222.054688 228.703125 C 223.230469 230.246094 224.546875 231.699219 225.992188 233.050781 L 222.816406 241.683594 L 229.886719 246.261719 L 236.460938 239.828125 C 238.289062 240.59375 240.15625 241.203125 242.042969 241.640625 L 243.605469 250.691406 L 252.015625 251.121094 L 254.492188 242.261719 C 256.429688 242.011719 258.347656 241.601562 260.222656 241.035156 L 266.113281 248.101562 L 273.605469 244.269531 L 271.324219 235.367188 C 272.867188 234.195312 274.324219 232.875 275.671875 231.429688 L 284.304688 234.605469 L 288.882812 227.535156 L 282.449219 220.964844 C 283.214844 219.136719 283.824219 217.269531 284.261719 215.382812 L 293.316406 213.820312 L 293.742188 205.410156 L 284.882812 202.933594 C 284.632812 200.992188 284.222656 199.074219 283.65625 197.203125 L 290.726562 191.3125 L 286.890625 183.816406 L 277.992188 186.097656 C 276.816406 184.554688 275.5 183.101562 274.050781 181.75 L 277.226562 173.117188 L 270.15625 168.542969 L 263.585938 174.976562 C 261.757812 174.210938 259.890625 173.601562 258.003906 173.160156 L 256.441406 164.109375 L 248.03125 163.679688 L 245.554688 172.539062 C 243.613281 172.789062 241.695312 173.203125 239.824219 173.769531 L 233.933594 166.699219 L 226.4375 170.535156 L 228.71875 179.433594 C 227.175781 180.609375 225.722656 181.925781 224.371094 183.371094 L 215.738281 180.195312 L 211.164062 187.265625 L 217.597656 193.839844 " fill-opacity="1" fill-rule="nonzero"/><path fill="#000000" d="M 235.875 194.757812 L 235.878906 194.757812 Z M 254.117188 185.421875 C 252.632812 185.421875 251.136719 185.582031 249.652344 185.898438 C 244.140625 187.078125 239.417969 190.335938 236.355469 195.066406 C 230.035156 204.835938 232.835938 217.929688 242.605469 224.253906 C 247.335938 227.316406 252.980469 228.351562 258.492188 227.171875 C 264.003906 225.992188 268.726562 222.734375 271.789062 218 C 278.113281 208.230469 275.308594 195.140625 265.539062 188.816406 C 262.082031 186.578125 258.140625 185.421875 254.117188 185.421875 Z M 254.027344 228.792969 C 249.785156 228.792969 245.628906 227.574219 241.984375 225.214844 C 236.996094 221.984375 233.558594 217.003906 232.316406 211.195312 C 231.070312 205.382812 232.164062 199.433594 235.394531 194.445312 C 238.625 189.453125 243.601562 186.023438 249.414062 184.777344 C 255.222656 183.535156 261.175781 184.625 266.164062 187.855469 C 271.152344 191.085938 274.585938 196.0625 275.828125 201.875 C 277.074219 207.6875 275.980469 213.636719 272.75 218.625 C 269.523438 223.613281 264.542969 227.046875 258.730469 228.289062 C 257.167969 228.625 255.59375 228.792969 254.027344 228.792969 Z M 248.140625 249.277344 L 255.636719 249.660156 L 257.988281 241.242188 C 258.050781 241.019531 258.242188 240.855469 258.46875 240.828125 C 260.375 240.582031 262.269531 240.175781 264.105469 239.617188 C 264.324219 239.550781 264.5625 239.625 264.710938 239.800781 L 270.304688 246.515625 L 276.988281 243.101562 L 274.820312 234.644531 C 274.765625 234.421875 274.847656 234.1875 275.03125 234.046875 C 276.535156 232.902344 277.972656 231.597656 279.304688 230.171875 C 279.460938 230.003906 279.703125 229.945312 279.921875 230.027344 L 288.125 233.042969 L 292.203125 226.742188 L 286.089844 220.496094 C 285.925781 220.332031 285.878906 220.085938 285.972656 219.875 C 286.726562 218.078125 287.324219 216.230469 287.757812 214.386719 C 287.808594 214.160156 287.988281 213.988281 288.214844 213.953125 L 296.816406 212.464844 L 297.199219 204.972656 L 288.777344 202.617188 C 288.558594 202.554688 288.394531 202.367188 288.367188 202.136719 C 288.121094 200.234375 287.714844 198.339844 287.15625 196.5 C 287.089844 196.28125 287.160156 196.042969 287.335938 195.894531 L 294.054688 190.300781 L 290.640625 183.617188 L 282.183594 185.785156 C 281.960938 185.839844 281.726562 185.761719 281.585938 185.578125 C 280.4375 184.070312 279.132812 182.632812 277.710938 181.300781 C 277.542969 181.144531 277.484375 180.902344 277.5625 180.6875 L 280.582031 172.484375 L 274.28125 168.40625 L 268.035156 174.519531 C 267.871094 174.679688 267.621094 174.722656 267.414062 174.636719 C 265.613281 173.882812 263.769531 173.28125 261.925781 172.855469 C 261.699219 172.800781 261.527344 172.621094 261.492188 172.390625 L 260.003906 163.792969 L 252.507812 163.410156 L 250.15625 171.828125 C 250.09375 172.050781 249.902344 172.214844 249.675781 172.242188 C 247.773438 172.488281 245.878906 172.894531 244.039062 173.449219 C 243.820312 173.519531 243.582031 173.445312 243.433594 173.269531 L 237.839844 166.550781 L 231.15625 169.96875 L 233.324219 178.425781 C 233.378906 178.644531 233.300781 178.882812 233.117188 179.019531 C 231.609375 180.167969 230.171875 181.472656 228.839844 182.898438 C 228.683594 183.0625 228.441406 183.121094 228.222656 183.042969 L 220.023438 180.023438 L 215.945312 186.324219 L 222.054688 192.570312 C 222.21875 192.738281 222.265625 192.980469 222.175781 193.195312 C 221.421875 194.992188 220.820312 196.835938 220.390625 198.683594 C 220.335938 198.90625 220.160156 199.078125 219.929688 199.117188 L 211.328125 200.601562 L 210.945312 208.097656 L 219.367188 210.453125 C 219.585938 210.511719 219.75 210.703125 219.777344 210.929688 C 220.023438 212.835938 220.433594 214.730469 220.988281 216.566406 C 221.054688 216.789062 220.984375 217.027344 220.808594 217.171875 L 214.089844 222.769531 L 217.507812 229.449219 L 225.964844 227.28125 C 226.183594 227.226562 226.421875 227.308594 226.558594 227.488281 C 227.707031 228.996094 229.011719 230.4375 230.433594 231.765625 C 230.601562 231.925781 230.660156 232.164062 230.582031 232.382812 L 227.5625 240.585938 L 233.863281 244.664062 L 240.113281 238.550781 C 240.277344 238.390625 240.519531 238.34375 240.734375 238.433594 C 242.53125 239.1875 244.378906 239.785156 246.21875 240.214844 C 246.445312 240.269531 246.617188 240.449219 246.65625 240.675781 Z M 256.066406 250.828125 C 256.054688 250.828125 256.042969 250.828125 256.035156 250.828125 L 247.625 250.398438 C 247.359375 250.382812 247.132812 250.1875 247.089844 249.925781 L 245.589844 241.242188 C 243.929688 240.835938 242.265625 240.296875 240.640625 239.632812 L 234.335938 245.800781 C 234.148438 245.988281 233.851562 246.019531 233.625 245.871094 L 226.554688 241.296875 C 226.332031 241.152344 226.238281 240.871094 226.328125 240.621094 L 229.375 232.34375 C 228.105469 231.128906 226.933594 229.835938 225.882812 228.484375 L 217.351562 230.671875 C 217.085938 230.738281 216.816406 230.617188 216.699219 230.378906 L 212.863281 222.882812 C 212.738281 222.644531 212.796875 222.355469 213.003906 222.179688 L 219.78125 216.535156 C 219.300781 214.875 218.933594 213.167969 218.695312 211.453125 L 210.199219 209.078125 C 209.941406 209.003906 209.765625 208.765625 209.78125 208.496094 L 210.207031 200.085938 C 210.222656 199.820312 210.421875 199.597656 210.683594 199.550781 L 219.363281 198.050781 C 219.769531 196.386719 220.3125 194.726562 220.972656 193.105469 L 214.808594 186.800781 C 214.617188 186.609375 214.589844 186.3125 214.734375 186.089844 L 219.308594 179.019531 C 219.453125 178.792969 219.738281 178.703125 219.988281 178.792969 L 228.265625 181.835938 C 229.476562 180.570312 230.773438 179.394531 232.121094 178.339844 L 229.933594 169.808594 C 229.867188 169.550781 229.988281 169.28125 230.226562 169.15625 L 237.722656 165.320312 C 237.960938 165.203125 238.253906 165.261719 238.425781 165.464844 L 244.074219 172.246094 C 245.734375 171.761719 247.441406 171.394531 249.152344 171.15625 L 251.53125 162.660156 C 251.601562 162.402344 251.847656 162.230469 252.109375 162.242188 L 260.519531 162.671875 C 260.785156 162.683594 261.011719 162.882812 261.054688 163.144531 L 262.554688 171.824219 C 264.21875 172.234375 265.878906 172.773438 267.503906 173.433594 L 273.808594 167.265625 C 273.996094 167.078125 274.296875 167.050781 274.519531 167.195312 L 281.589844 171.769531 C 281.8125 171.914062 281.90625 172.199219 281.816406 172.449219 L 278.769531 180.726562 C 280.039062 181.9375 281.210938 183.230469 282.265625 184.582031 L 290.796875 182.394531 C 291.058594 182.328125 291.328125 182.453125 291.449219 182.691406 L 295.28125 190.183594 C 295.40625 190.421875 295.347656 190.714844 295.140625 190.886719 L 288.363281 196.535156 C 288.847656 198.195312 289.210938 199.902344 289.449219 201.617188 L 297.945312 203.992188 C 298.203125 204.0625 298.378906 204.304688 298.363281 204.570312 L 297.9375 212.980469 C 297.925781 213.25 297.722656 213.472656 297.460938 213.515625 L 288.78125 215.015625 C 288.375 216.679688 287.832031 218.339844 287.171875 219.964844 L 293.339844 226.269531 C 293.527344 226.460938 293.554688 226.753906 293.414062 226.980469 L 288.835938 234.050781 C 288.691406 234.273438 288.410156 234.367188 288.15625 234.277344 L 279.878906 231.230469 C 278.671875 232.5 277.375 233.671875 276.023438 234.726562 L 278.210938 243.257812 C 278.277344 243.515625 278.15625 243.789062 277.917969 243.910156 L 270.421875 247.746094 C 270.183594 247.867188 269.890625 247.808594 269.71875 247.601562 L 264.074219 240.824219 C 262.410156 241.308594 260.707031 241.671875 258.992188 241.914062 L 256.613281 250.40625 C 256.546875 250.65625 256.320312 250.828125 256.066406 250.828125 " fill-opacity="1" fill-rule="nonzero"/><path fill="#ffffff" d="M 236.078125 256.730469 C 236.039062 256.730469 235.996094 256.726562 235.957031 256.71875 C 227.191406 254.875 219.589844 250.503906 213.363281 243.730469 C 213.152344 243.496094 213.164062 243.132812 213.398438 242.917969 C 213.632812 242.707031 213.992188 242.722656 214.207031 242.953125 C 220.269531 249.550781 227.667969 253.800781 236.195312 255.597656 C 236.503906 255.664062 236.703125 255.964844 236.636719 256.277344 C 236.582031 256.546875 236.34375 256.730469 236.078125 256.730469 " fill-opacity="1" fill-rule="nonzero"/><path fill="#ffffff" d="M 207.554688 235.441406 C 207.355469 235.441406 207.164062 235.339844 207.058594 235.160156 C 201.605469 225.855469 198.789062 214.6875 199.128906 203.710938 C 199.472656 192.53125 203.09375 182.8125 209.316406 176.34375 C 209.539062 176.117188 209.902344 176.109375 210.128906 176.332031 C 210.355469 176.546875 210.363281 176.910156 210.144531 177.140625 C 204.113281 183.402344 200.609375 192.851562 200.269531 203.746094 C 199.941406 214.511719 202.699219 225.460938 208.046875 234.582031 C 208.207031 234.851562 208.113281 235.203125 207.84375 235.363281 C 207.75 235.417969 207.652344 235.441406 207.554688 235.441406 " fill-opacity="1" fill-rule="nonzero"/><path fill="#ffcc9c" d="M 305.964844 204.941406 C 305.90625 204.941406 305.839844 204.929688 305.777344 204.910156 C 305.480469 204.804688 305.320312 204.480469 305.425781 204.179688 C 307.464844 198.242188 307.050781 191.066406 304.257812 183.980469 C 304.144531 183.683594 304.285156 183.351562 304.582031 183.234375 C 304.875 183.121094 305.210938 183.265625 305.324219 183.558594 C 308.214844 190.902344 308.636719 198.355469 306.507812 204.550781 C 306.425781 204.792969 306.203125 204.941406 305.964844 204.941406 " fill-opacity="1" fill-rule="nonzero"/><path fill="#ffcc9c" d="M 299.367188 174.605469 C 299.191406 174.605469 299.019531 174.527344 298.90625 174.375 C 291.902344 164.917969 281.792969 159.175781 271.867188 159.023438 C 271.550781 159.015625 271.300781 158.753906 271.300781 158.441406 C 271.308594 158.125 271.5625 157.875 271.878906 157.875 C 271.878906 157.875 271.882812 157.875 271.886719 157.875 C 282.167969 158.039062 292.613281 163.953125 299.824219 173.695312 C 300.015625 173.949219 299.960938 174.308594 299.707031 174.496094 C 299.605469 174.570312 299.488281 174.605469 299.367188 174.605469 " fill-opacity="1" fill-rule="nonzero"/><path fill="#ffcc9c" d="M 188.527344 103.8125 C 188.433594 103.8125 188.339844 103.789062 188.25 103.742188 C 182.386719 100.515625 174.753906 100.160156 168.332031 102.820312 C 168.039062 102.941406 167.703125 102.800781 167.582031 102.507812 C 167.460938 102.21875 167.601562 101.882812 167.894531 101.761719 C 174.628906 98.972656 182.640625 99.347656 188.804688 102.738281 C 189.082031 102.890625 189.183594 103.238281 189.027344 103.515625 C 188.925781 103.707031 188.730469 103.8125 188.527344 103.8125 " fill-opacity="1" fill-rule="nonzero"/><path fill="#ffcc9c" d="M 198.660156 117.371094 C 198.402344 117.371094 198.167969 117.195312 198.105469 116.9375 C 197.03125 112.640625 194.964844 109.089844 191.96875 106.378906 C 191.734375 106.167969 191.714844 105.808594 191.929688 105.570312 C 192.140625 105.335938 192.503906 105.320312 192.734375 105.53125 C 195.90625 108.394531 198.085938 112.140625 199.214844 116.65625 C 199.292969 116.964844 199.105469 117.277344 198.796875 117.355469 C 198.75 117.363281 198.703125 117.371094 198.660156 117.371094 " fill-opacity="1" fill-rule="nonzero"/><path fill="#ffffff" d="M 149.78125 182.75 C 149.296875 190.925781 142.273438 197.15625 134.101562 196.671875 C 125.925781 196.183594 119.691406 189.164062 120.179688 180.988281 C 120.664062 172.8125 127.6875 166.582031 135.859375 167.066406 C 144.035156 167.554688 150.265625 174.574219 149.78125 182.75 " fill-opacity="1" fill-rule="nonzero"/><path fill="#ea803e" d="M 142.125 172.40625 C 139.070312 175.367188 135.257812 179.726562 133.550781 184.59375 L 126.722656 176.609375 C 126.535156 176.390625 126.132812 176.574219 126.253906 176.820312 C 129.121094 182.722656 131.964844 187.59375 133.972656 191.921875 C 134.175781 192.359375 134.921875 192.332031 135.058594 191.886719 C 136.8125 186.066406 139.667969 178.984375 142.835938 172.78125 C 143.023438 172.410156 142.4375 172.101562 142.125 172.40625 " fill-opacity="1" fill-rule="nonzero"/><path fill="#ea803e" d="M 98.398438 191.652344 L 98.398438 209.402344 C 98.398438 226.761719 112.105469 240.835938 129.015625 240.835938 C 145.925781 240.835938 159.632812 254.90625 159.632812 272.265625 C 159.632812 273.816406 158.378906 275.066406 156.832031 275.066406 L 75.789062 275.066406 C 50.441406 275.066406 29.890625 253.972656 29.890625 227.949219 L 29.890625 190.074219 C 29.890625 179.722656 38.066406 171.332031 48.148438 171.332031 L 78.605469 171.332031 C 89.539062 171.332031 98.398438 180.429688 98.398438 191.652344 " fill-opacity="1" fill-rule="nonzero"/><path fill="#ea803e" d="M 89.050781 328.589844 L 96.394531 328.589844 L 96.394531 243.082031 L 89.050781 243.082031 L 89.050781 328.589844 " fill-opacity="1" fill-rule="nonzero"/><path fill="#ea803e" d="M 127.144531 331.367188 L 94.640625 328.511719 L 91.660156 328.511719 L 58.480469 331.367188 L 58.480469 333.628906 L 127.144531 333.628906 L 127.144531 331.367188 " fill-opacity="1" fill-rule="nonzero"/><path fill="#ffffff" d="M 114.859375 316.445312 C 115.613281 315.679688 119.96875 302.136719 119.96875 302.136719 L 128.570312 308.273438 L 119.136719 320.953125 L 114.859375 316.445312 " fill-opacity="1" fill-rule="nonzero"/><path fill="#000000" d="M 115.566406 316.355469 L 119.085938 320.066406 L 127.765625 308.402344 L 120.273438 303.054688 C 118.992188 307.011719 116.582031 314.320312 115.566406 316.355469 Z M 119.136719 321.527344 C 118.980469 321.527344 118.832031 321.460938 118.722656 321.347656 L 114.441406 316.839844 C 114.234375 316.617188 114.234375 316.273438 114.441406 316.050781 C 114.945312 315.386719 117.382812 308.300781 119.421875 301.957031 C 119.476562 301.785156 119.613281 301.648438 119.785156 301.589844 C 119.960938 301.53125 120.148438 301.5625 120.300781 301.667969 L 128.90625 307.808594 C 129.03125 307.894531 129.113281 308.03125 129.136719 308.183594 C 129.160156 308.335938 129.125 308.492188 129.03125 308.617188 L 119.597656 321.296875 C 119.496094 321.429688 119.339844 321.515625 119.171875 321.527344 C 119.160156 321.527344 119.148438 321.527344 119.136719 321.527344 " fill-opacity="1" fill-rule="nonzero"/><path fill="#000000" d="M 130.367188 333.574219 L 124.644531 333.539062 C 120.855469 333.515625 117.335938 331.59375 115.269531 328.421875 L 109.613281 319.460938 C 108.046875 316.984375 108.921875 313.703125 111.507812 312.328125 C 113.871094 311.074219 116.34375 309.851562 116.925781 309.90625 C 118.101562 310.019531 118.578125 315.589844 118.578125 315.589844 L 123.675781 315.785156 C 123.675781 315.785156 126.195312 326.257812 128.410156 327.449219 C 130.027344 328.316406 131.152344 329.589844 131.910156 330.753906 C 132.707031 331.972656 131.820312 333.582031 130.367188 333.574219 " fill-opacity="1" fill-rule="nonzero"/><path fill="#ffffff" d="M 129.792969 331.914062 C 129.761719 331.914062 129.734375 331.910156 129.703125 331.90625 L 121.875 330.726562 C 119.945312 330.433594 118.261719 329.304688 117.257812 327.628906 L 110.339844 316.074219 C 110.179688 315.804688 110.265625 315.449219 110.539062 315.289062 C 110.808594 315.125 111.160156 315.214844 111.324219 315.484375 L 118.242188 327.039062 C 119.066406 328.425781 120.457031 329.355469 122.046875 329.59375 L 129.875 330.773438 C 130.1875 330.820312 130.402344 331.113281 130.355469 331.425781 C 130.3125 331.707031 130.070312 331.914062 129.792969 331.914062 " fill-opacity="1" fill-rule="nonzero"/><path fill="#ffffff" d="M 120.128906 323.222656 C 119.875 323.222656 119.644531 323.054688 119.574219 322.796875 C 119.492188 322.496094 119.671875 322.179688 119.976562 322.097656 L 124.339844 320.910156 C 124.644531 320.824219 124.957031 321.007812 125.042969 321.308594 C 125.125 321.617188 124.945312 321.929688 124.640625 322.011719 L 120.277344 323.203125 C 120.226562 323.214844 120.175781 323.222656 120.128906 323.222656 " fill-opacity="1" fill-rule="nonzero"/><path fill="#ffffff" d="M 122.398438 325.460938 C 122.140625 325.460938 121.90625 325.285156 121.84375 325.023438 C 121.769531 324.71875 121.957031 324.40625 122.265625 324.332031 L 125.1875 323.617188 C 125.496094 323.542969 125.804688 323.730469 125.878906 324.039062 C 125.957031 324.34375 125.765625 324.65625 125.460938 324.730469 L 122.535156 325.445312 C 122.488281 325.457031 122.445312 325.460938 122.398438 325.460938 " fill-opacity="1" fill-rule="nonzero"/><path fill="#ffffff" d="M 144.222656 313.859375 L 154.210938 323.898438 L 159.507812 321.953125 L 150.296875 309.109375 L 144.222656 313.859375 " fill-opacity="1" fill-rule="nonzero"/><path fill="#000000" d="M 145.082031 313.914062 L 154.359375 323.234375 L 158.605469 321.675781 L 150.179688 309.925781 Z M 154.210938 324.46875 C 154.0625 324.46875 153.917969 324.410156 153.804688 324.300781 L 143.816406 314.265625 C 143.699219 314.148438 143.640625 313.988281 143.648438 313.824219 C 143.660156 313.660156 143.738281 313.507812 143.867188 313.40625 L 149.945312 308.660156 C 150.070312 308.5625 150.226562 308.515625 150.378906 308.542969 C 150.535156 308.566406 150.675781 308.648438 150.761719 308.777344 L 159.976562 321.617188 C 160.078125 321.765625 160.109375 321.949219 160.054688 322.121094 C 160.003906 322.292969 159.875 322.429688 159.707031 322.492188 L 154.410156 324.4375 C 154.34375 324.457031 154.277344 324.46875 154.210938 324.46875 " fill-opacity="1" fill-rule="nonzero"/><path fill="#000000" d="M 151.054688 322.328125 C 151.054688 322.328125 150.574219 326.597656 151.394531 330.371094 C 151.828125 332.382812 153.640625 333.796875 155.699219 333.796875 L 180.21875 333.796875 C 181.972656 333.796875 182.765625 331.609375 181.421875 330.484375 C 177.0625 326.832031 169.042969 321.253906 159.179688 319.617188 L 156.429688 323.464844 L 151.054688 322.328125 " fill-opacity="1" fill-rule="nonzero"/><path fill="#ffffff" d="M 179.054688 330.996094 L 153.640625 330.996094 C 153.324219 330.996094 153.070312 330.742188 153.070312 330.425781 C 153.070312 330.109375 153.324219 329.855469 153.640625 329.855469 L 179.054688 329.855469 C 179.367188 329.855469 179.628906 330.109375 179.628906 330.425781 C 179.628906 330.742188 179.367188 330.996094 179.054688 330.996094 " fill-opacity="1" fill-rule="nonzero"/><path fill="#ffffff" d="M 164.875 326.484375 C 164.800781 326.484375 164.726562 326.46875 164.65625 326.441406 C 164.363281 326.320312 164.222656 325.984375 164.34375 325.695312 L 165.691406 322.429688 C 165.808594 322.136719 166.144531 321.996094 166.4375 322.117188 C 166.730469 322.242188 166.867188 322.574219 166.75 322.867188 L 165.40625 326.128906 C 165.3125 326.351562 165.097656 326.484375 164.875 326.484375 " fill-opacity="1" fill-rule="nonzero"/><path fill="#ffffff" d="M 169.296875 327.339844 C 169.238281 327.339844 169.175781 327.332031 169.117188 327.3125 C 168.816406 327.214844 168.652344 326.890625 168.753906 326.589844 L 169.726562 323.644531 C 169.828125 323.34375 170.148438 323.183594 170.449219 323.28125 C 170.75 323.382812 170.914062 323.707031 170.8125 324.003906 L 169.839844 326.949219 C 169.761719 327.191406 169.539062 327.339844 169.296875 327.339844 " fill-opacity="1" fill-rule="nonzero"/><path fill="#000000" d="M 91.335938 243.613281 C 91.335938 243.613281 136.996094 238.300781 150.574219 250.054688 C 164.152344 261.804688 129.140625 312.347656 129.140625 312.347656 L 118.070312 304.136719 L 128.570312 268.414062 L 86.363281 256.425781 L 91.335938 243.613281 " fill-opacity="1" fill-rule="nonzero"/><path fill="#000000" d="M 66.207031 266.878906 C 72.839844 268.984375 84.707031 271.703125 101.292969 271.476562 C 106.007812 271.414062 110.359375 274.015625 112.5 278.214844 C 117.414062 287.851562 128.046875 305.199219 145.367188 316.445312 L 153.640625 311.988281 L 132.527344 264.453125 C 130.597656 260.117188 126.992188 256.742188 122.535156 255.109375 L 80.6875 239.761719 C 80.6875 239.761719 67.710938 236.132812 61.347656 247.71875 C 60.210938 249.789062 58.101562 246.089844 57.601562 247.757812 C 55.878906 253.480469 60.507812 265.070312 66.207031 266.878906 " fill-opacity="1" fill-rule="nonzero"/><path fill="#ffffff" d="M 142.066406 286.507812 C 141.847656 286.507812 141.640625 286.378906 141.542969 286.167969 L 132.003906 264.6875 C 130.148438 260.511719 126.625 257.214844 122.335938 255.644531 L 102.296875 248.296875 C 102 248.1875 101.847656 247.859375 101.957031 247.5625 C 102.066406 247.265625 102.394531 247.113281 102.691406 247.222656 L 122.730469 254.570312 C 127.308594 256.25 131.070312 259.765625 133.050781 264.222656 L 142.589844 285.699219 C 142.71875 285.988281 142.589844 286.328125 142.300781 286.457031 C 142.226562 286.492188 142.144531 286.507812 142.066406 286.507812 " fill-opacity="1" fill-rule="nonzero"/><path fill="#ffffff" d="M 130.925781 304.972656 C 130.777344 304.972656 130.625 304.914062 130.515625 304.796875 C 128.589844 302.796875 126.699219 300.648438 124.886719 298.410156 C 124.6875 298.164062 124.726562 297.800781 124.972656 297.605469 C 125.21875 297.40625 125.578125 297.441406 125.777344 297.6875 C 127.566406 299.902344 129.4375 302.027344 131.339844 304.003906 C 131.558594 304.230469 131.550781 304.59375 131.324219 304.8125 C 131.214844 304.917969 131.070312 304.972656 130.925781 304.972656 " fill-opacity="1" fill-rule="nonzero"/><path fill="#ffffff" d="M 125.332031 298.621094 C 125.167969 298.621094 125 298.550781 124.886719 298.410156 C 123.996094 297.308594 123.113281 296.167969 122.253906 295.015625 C 122.066406 294.761719 122.117188 294.40625 122.371094 294.214844 C 122.625 294.027344 122.984375 294.078125 123.171875 294.332031 C 124.019531 295.472656 124.898438 296.601562 125.777344 297.6875 C 125.976562 297.933594 125.9375 298.296875 125.691406 298.492188 C 125.585938 298.578125 125.460938 298.621094 125.332031 298.621094 " fill-opacity="1" fill-rule="nonzero"/><path fill="#ffffff" d="M 101.710938 206.730469 C 101.710938 206.730469 105.726562 243.199219 132.695312 245.585938 L 101.710938 246.027344 C 101.710938 246.027344 90.238281 222.777344 89.773438 213.726562 C 89.308594 204.675781 101.710938 206.730469 101.710938 206.730469 " fill-opacity="1" fill-rule="nonzero"/><path fill="#000000" d="M 98.847656 207.105469 C 96.707031 207.105469 93.820312 207.449219 92.023438 209.054688 C 90.804688 210.144531 90.242188 211.703125 90.34375 213.699219 C 90.769531 221.953125 100.683594 242.605469 102.066406 245.449219 L 127.019531 245.09375 C 118.382812 242.53125 111.382812 235.859375 106.570312 225.503906 C 102.753906 217.289062 101.46875 209.199219 101.199219 207.242188 C 100.71875 207.183594 99.867188 207.105469 98.847656 207.105469 Z M 101.710938 246.597656 C 101.492188 246.597656 101.292969 246.476562 101.199219 246.277344 C 100.726562 245.328125 89.667969 222.820312 89.199219 213.757812 C 89.078125 211.398438 89.773438 209.53125 91.261719 208.199219 C 94.789062 205.046875 101.519531 206.121094 101.804688 206.167969 C 102.058594 206.207031 102.253906 206.414062 102.28125 206.667969 C 102.289062 206.761719 103.328125 215.824219 107.621094 225.046875 C 113.335938 237.328125 121.789062 244.046875 132.746094 245.015625 C 133.050781 245.042969 133.277344 245.300781 133.265625 245.605469 C 133.257812 245.914062 133.007812 246.15625 132.703125 246.15625 L 101.71875 246.597656 C 101.714844 246.597656 101.714844 246.597656 101.710938 246.597656 " fill-opacity="1" fill-rule="nonzero"/><path fill="#ffffff" d="M 63.328125 183.554688 C 68.558594 182.324219 70.742188 182.308594 89.761719 182.996094 C 94.40625 183.167969 99.9375 189 100.484375 193.621094 C 99.007812 198.050781 92.1875 219.925781 104.089844 237.015625 C 105.78125 239.441406 108.074219 242.097656 111.226562 244.648438 C 109.457031 246.082031 106.703125 247.945312 103.007812 249.042969 C 96.875 250.863281 93.789062 248.894531 88.84375 249.042969 C 75.765625 249.433594 70.96875 264 62.519531 262.167969 C 60.265625 261.679688 57.273438 259.921875 54.472656 254.019531 C 52.882812 249.125 51.46875 243.378906 50.683594 236.886719 C 48.546875 219.28125 52.039062 204.621094 55.160156 195.421875 C 56.085938 192.515625 57.160156 185.003906 63.328125 183.554688 " fill-opacity="1" fill-rule="nonzero"/><path fill="#000000" d="M 55.003906 253.808594 C 57.171875 258.355469 59.742188 260.980469 62.640625 261.609375 C 66.378906 262.417969 69.460938 259.671875 73.027344 256.492188 C 77.125 252.828125 81.773438 248.679688 88.828125 248.46875 C 90.65625 248.414062 92.246094 248.640625 93.777344 248.863281 C 96.484375 249.253906 99.042969 249.621094 102.847656 248.492188 C 105.484375 247.707031 107.992188 246.414062 110.3125 244.636719 C 107.738281 242.476562 105.488281 240.023438 103.621094 237.339844 C 92.496094 221.371094 97.269531 201.5 99.898438 193.5625 C 99.277344 189.015625 93.914062 183.722656 89.738281 183.570312 C 70.523438 182.875 68.558594 182.914062 63.460938 184.113281 C 58.480469 185.285156 57.003906 190.816406 56.121094 194.121094 C 55.96875 194.6875 55.839844 195.179688 55.703125 195.59375 C 51.082031 209.222656 49.585938 223.085938 51.25 236.816406 C 51.945312 242.550781 53.210938 248.265625 55.003906 253.808594 Z M 63.964844 262.898438 C 63.457031 262.898438 62.933594 262.847656 62.398438 262.730469 C 59.125 262.019531 56.285156 259.171875 53.957031 254.265625 L 53.925781 254.195312 C 52.101562 248.574219 50.820312 242.773438 50.113281 236.953125 C 48.429688 223.054688 49.945312 209.015625 54.617188 195.234375 C 54.738281 194.855469 54.867188 194.378906 55.015625 193.824219 C 55.964844 190.273438 57.554688 184.324219 63.199219 182.996094 C 68.433594 181.769531 70.421875 181.726562 89.78125 182.425781 C 94.929688 182.613281 100.496094 188.851562 101.050781 193.550781 L 101.066406 193.679688 L 101.027344 193.800781 C 98.464844 201.488281 93.675781 221.058594 104.558594 236.6875 C 106.5 239.46875 108.863281 242 111.589844 244.203125 L 112.136719 244.648438 L 111.589844 245.09375 C 108.996094 247.1875 106.164062 248.703125 103.171875 249.589844 C 99.128906 250.792969 96.324219 250.386719 93.613281 249.996094 C 92.128906 249.78125 90.589844 249.566406 88.859375 249.613281 C 82.226562 249.8125 77.742188 253.8125 73.789062 257.34375 C 70.601562 260.191406 67.566406 262.898438 63.964844 262.898438 " fill-opacity="1" fill-rule="nonzero"/><path fill="#ffffff" d="M 105.253906 210.820312 C 105.253906 210.820312 102.179688 186.160156 93.316406 184.054688 C 96.433594 193.636719 97.472656 204.070312 97.019531 215.101562 C 97 215.558594 97.503906 215.847656 97.886719 215.601562 L 105.253906 210.820312 " fill-opacity="1" fill-rule="nonzero"/><path fill="#000000" d="M 94.207031 184.972656 C 96.953125 193.894531 98.058594 203.773438 97.59375 215.125 L 104.640625 210.535156 C 104.238281 207.667969 101.285156 188.324219 94.207031 184.972656 Z M 97.582031 216.265625 C 97.386719 216.265625 97.195312 216.214844 97.019531 216.117188 C 96.648438 215.902344 96.429688 215.503906 96.449219 215.078125 C 96.929688 203.398438 95.726562 193.308594 92.773438 184.230469 L 92.457031 183.261719 L 93.449219 183.496094 C 102.59375 185.667969 105.695312 209.722656 105.824219 210.746094 L 105.867188 211.105469 L 98.199219 216.078125 C 98.011719 216.203125 97.796875 216.265625 97.582031 216.265625 " fill-opacity="1" fill-rule="nonzero"/><path fill="#ffffff" d="M 78.460938 183.011719 L 78.984375 175.601562 C 79.339844 175.578125 79.582031 175.5625 79.65625 175.5625 C 81.722656 175.535156 82.394531 174.867188 82.570312 173.171875 C 82.683594 172.109375 82.722656 170.53125 82.203125 168.558594 C 82.148438 168.347656 82.160156 168.125 82.246094 167.921875 L 82.601562 167.09375 C 82.671875 166.824219 82.578125 166.53125 82.363281 166.351562 L 82.171875 166.199219 C 81.5 165.644531 80.9375 164.964844 80.488281 164.210938 C 80.078125 163.515625 79.375 162.21875 78.890625 161.988281 C 77.53125 161.335938 72.023438 158.457031 68.941406 163.492188 C 66.542969 167.417969 70.464844 172.824219 71.890625 174.597656 C 72.234375 175.027344 69.5625 183.421875 69.5625 183.421875 L 66.171875 183.996094 C 66.171875 183.996094 68.773438 188.988281 76.875 187.03125 C 82.640625 185.636719 81.726562 183.492188 81.726562 183.492188 L 78.460938 183.011719 " fill-opacity="1" fill-rule="nonzero"/><path fill="#000000" d="M 67.160156 184.410156 C 68.179688 185.617188 70.957031 187.871094 76.738281 186.472656 C 79.867188 185.71875 80.792969 184.777344 81.070312 184.285156 C 81.132812 184.175781 81.167969 184.074219 81.1875 183.992188 L 78.378906 183.578125 C 78.082031 183.53125 77.871094 183.269531 77.890625 182.96875 L 78.414062 175.5625 C 78.433594 175.277344 78.660156 175.050781 78.945312 175.03125 C 79.316406 175.003906 79.574219 174.988281 79.648438 174.988281 C 81.480469 174.964844 81.859375 174.476562 82.003906 173.109375 C 82.15625 171.636719 82.042969 170.195312 81.652344 168.703125 C 81.5625 168.367188 81.585938 168.011719 81.71875 167.699219 L 82.050781 166.921875 C 82.054688 166.875 82.035156 166.824219 82 166.796875 L 81.808594 166.640625 C 81.109375 166.066406 80.5 165.347656 79.996094 164.503906 L 79.808594 164.179688 C 79.539062 163.722656 78.914062 162.652344 78.640625 162.503906 L 78.496094 162.429688 C 76.921875 161.671875 72.140625 159.359375 69.429688 163.789062 C 67.285156 167.296875 70.75 172.265625 72.335938 174.238281 C 72.550781 174.503906 72.875 174.90625 70.109375 183.59375 C 70.042969 183.796875 69.871094 183.949219 69.660156 183.984375 Z M 73.28125 188.066406 C 67.722656 188.066406 65.757812 184.445312 65.664062 184.261719 C 65.578125 184.097656 65.578125 183.90625 65.65625 183.742188 C 65.738281 183.578125 65.894531 183.464844 66.074219 183.433594 L 69.121094 182.914062 C 70.21875 179.441406 71.296875 175.652344 71.347656 174.835938 C 69.570312 172.597656 65.976562 167.246094 68.453125 163.195312 C 70.609375 159.667969 74.15625 159.0625 78.992188 161.398438 L 79.136719 161.46875 C 79.671875 161.722656 80.183594 162.550781 80.796875 163.605469 L 80.980469 163.917969 C 81.414062 164.648438 81.9375 165.265625 82.535156 165.753906 L 82.726562 165.910156 C 83.117188 166.230469 83.285156 166.753906 83.152344 167.242188 C 83.144531 167.269531 83.136719 167.296875 83.128906 167.320312 L 82.773438 168.148438 C 82.738281 168.226562 82.734375 168.320312 82.757812 168.414062 C 83.1875 170.042969 83.3125 171.617188 83.140625 173.230469 C 82.925781 175.292969 81.949219 176.105469 79.660156 176.132812 C 79.636719 176.132812 79.589844 176.136719 79.519531 176.140625 L 79.070312 182.519531 L 81.808594 182.921875 C 82.003906 182.953125 82.171875 183.082031 82.253906 183.265625 C 82.28125 183.332031 82.523438 183.949219 82.121094 184.746094 C 81.515625 185.960938 79.792969 186.914062 77.007812 187.585938 C 75.617188 187.925781 74.378906 188.066406 73.28125 188.066406 " fill-opacity="1" fill-rule="nonzero"/><path fill="#000000" d="M 70.640625 157.085938 C 72.132812 156.765625 73.851562 156.996094 74.574219 156.726562 C 75.746094 156.300781 75.777344 154.898438 77.394531 154.503906 C 79.351562 154.027344 80.167969 154.863281 80.933594 156.03125 C 81.0625 156.226562 81.171875 156.441406 81.265625 156.6875 C 82.496094 159.988281 80.941406 161.597656 80.25 162.121094 C 80.25 162.121094 75.847656 164.398438 75.09375 165.046875 C 74.386719 165.65625 73.574219 167.09375 74.085938 169.164062 C 74.152344 169.429688 74.035156 169.710938 73.808594 169.847656 C 73.542969 170.003906 73.199219 169.929688 73.019531 169.667969 C 72.445312 168.835938 71.195312 167.230469 70.304688 167.609375 C 69.1875 168.085938 69.535156 171.441406 72.003906 171.828125 C 72.761719 171.945312 73.375 172.71875 73.300781 173.515625 C 73.253906 174.03125 72.765625 174.660156 72.039062 174.828125 C 71.597656 174.925781 71.160156 174.75 70.769531 174.5 C 69.160156 173.472656 64.617188 169.113281 64.054688 165.203125 C 63.375 160.496094 68.652344 157.515625 70.640625 157.085938 " fill-opacity="1" fill-rule="nonzero"/><path fill="#000000" d="M 79.539062 176.058594 C 79.535156 176.058594 79.527344 176.058594 79.519531 176.058594 C 79.445312 176.054688 77.605469 175.976562 76.277344 174.847656 C 76.050781 174.65625 76.023438 174.320312 76.214844 174.097656 C 76.40625 173.875 76.738281 173.84375 76.964844 174.035156 C 78.015625 174.929688 79.542969 174.996094 79.558594 174.996094 C 79.855469 175.003906 80.082031 175.253906 80.070312 175.546875 C 80.0625 175.832031 79.824219 176.058594 79.539062 176.058594 " fill-opacity="1" fill-rule="nonzero"/><path fill="#ffcc9c" d="M 165.390625 208.429688 L 133.210938 208.429688 C 131.855469 208.429688 130.597656 209.105469 129.871094 210.21875 L 117.800781 245.753906 L 89.320312 245.753906 L 89.320312 246.285156 C 89.320312 247.964844 90.679688 249.324219 92.359375 249.324219 L 152.800781 249.324219 C 154.480469 249.324219 155.839844 247.964844 155.839844 246.285156 L 155.839844 245.816406 L 155.84375 245.816406 L 166.753906 212.589844 C 166.917969 212.085938 167.121094 211.59375 167.3125 211.09375 C 167.789062 209.84375 166.847656 208.429688 165.390625 208.429688 " fill-opacity="1" fill-rule="nonzero"/><path fill="#000000" d="M 89.890625 246.324219 C 89.914062 247.667969 91.011719 248.75 92.359375 248.75 L 152.800781 248.75 C 154.164062 248.75 155.269531 247.644531 155.269531 246.285156 L 155.269531 245.816406 C 155.269531 245.757812 155.28125 245.695312 155.296875 245.640625 L 166.207031 212.414062 C 166.332031 212.035156 166.476562 211.667969 166.613281 211.3125 C 166.671875 211.171875 166.722656 211.03125 166.777344 210.890625 C 166.9375 210.472656 166.878906 210.011719 166.613281 209.632812 C 166.339844 209.230469 165.890625 209.003906 165.390625 209.003906 L 133.210938 209.003906 C 132.066406 209.003906 131.015625 209.550781 130.390625 210.472656 L 118.34375 245.9375 C 118.265625 246.171875 118.046875 246.324219 117.800781 246.324219 Z M 152.800781 249.898438 L 92.359375 249.898438 C 90.367188 249.898438 88.746094 248.277344 88.746094 246.285156 L 88.746094 245.753906 C 88.746094 245.4375 89.003906 245.179688 89.320312 245.179688 L 117.390625 245.179688 L 129.332031 210.035156 C 129.34375 209.988281 129.367188 209.945312 129.390625 209.90625 C 130.226562 208.625 131.652344 207.855469 133.210938 207.855469 L 165.390625 207.855469 C 166.273438 207.855469 167.0625 208.265625 167.558594 208.980469 C 168.03125 209.667969 168.140625 210.535156 167.847656 211.300781 C 167.792969 211.441406 167.738281 211.585938 167.679688 211.726562 C 167.542969 212.085938 167.410156 212.421875 167.296875 212.769531 L 156.414062 245.910156 L 156.414062 246.285156 C 156.414062 248.277344 154.792969 249.898438 152.800781 249.898438 " fill-opacity="1" fill-rule="nonzero"/><path fill="#ffffff" d="M 141.714844 226.640625 C 141.261719 228.148438 141.957031 229.6875 143.265625 230.082031 C 144.574219 230.476562 146.003906 229.578125 146.457031 228.074219 C 146.910156 226.566406 146.214844 225.027344 144.90625 224.632812 C 143.597656 224.238281 142.167969 225.136719 141.714844 226.640625 " fill-opacity="1" fill-rule="nonzero"/><path fill="#ffffff" d="M 145.375 246.390625 L 124.402344 246.390625 C 124.085938 246.390625 123.828125 246.132812 123.828125 245.816406 C 123.828125 245.5 124.085938 245.246094 124.402344 245.246094 L 145.375 245.246094 C 145.691406 245.246094 145.945312 245.5 145.945312 245.816406 C 145.945312 246.132812 145.691406 246.390625 145.375 246.390625 " fill-opacity="1" fill-rule="nonzero"/><path fill="#ffffff" d="M 156.050781 246.390625 L 152.332031 246.390625 C 152.015625 246.390625 151.761719 246.132812 151.761719 245.816406 C 151.761719 245.5 152.015625 245.246094 152.332031 245.246094 L 156.050781 245.246094 C 156.367188 245.246094 156.621094 245.5 156.621094 245.816406 C 156.621094 246.132812 156.367188 246.390625 156.050781 246.390625 " fill-opacity="1" fill-rule="nonzero"/><path fill="#ffffff" d="M 108.035156 242.636719 C 106.191406 239.75 102.808594 238.289062 100.949219 238.394531 C 92.496094 238.875 76.195312 230.320312 64.070312 226.183594 C 61.972656 223.132812 63.496094 216.453125 62.542969 208.433594 L 47.082031 209.769531 C 45.535156 217.414062 46.125 230.386719 47.460938 232.105469 C 48.34375 234.207031 53.15625 240.324219 62.925781 245.085938 C 78.199219 252.53125 98.640625 247.664062 98.640625 247.664062 C 98.640625 247.664062 109.003906 253.140625 113.476562 247.191406 C 113.476562 247.191406 109.875 245.515625 108.035156 242.636719 " fill-opacity="1" fill-rule="nonzero"/><path fill="#000000" d="M 98.640625 247.089844 C 98.734375 247.089844 98.828125 247.113281 98.910156 247.160156 C 99.003906 247.207031 108.230469 251.992188 112.578125 247.371094 C 111.417969 246.730469 108.996094 245.203125 107.550781 242.941406 C 105.800781 240.207031 102.605469 238.871094 100.984375 238.96875 C 95.078125 239.300781 85.527344 235.367188 76.285156 231.5625 C 72.074219 229.828125 67.71875 228.035156 63.886719 226.726562 C 63.769531 226.6875 63.667969 226.613281 63.597656 226.511719 C 62.257812 224.558594 62.28125 221.417969 62.316406 217.445312 C 62.335938 214.925781 62.359375 212.089844 62.035156 209.050781 L 47.558594 210.300781 C 46.0625 218.28125 46.851562 230.386719 47.914062 231.75 C 47.945312 231.792969 47.96875 231.835938 47.988281 231.882812 C 48.898438 234.050781 53.808594 240.003906 63.175781 244.570312 C 78.089844 251.84375 98.308594 247.15625 98.507812 247.105469 C 98.550781 247.097656 98.597656 247.089844 98.640625 247.089844 Z M 107.269531 250.554688 C 103.378906 250.554688 99.488281 248.730469 98.566406 248.269531 C 96.347656 248.753906 77.125 252.644531 62.675781 245.601562 C 52.355469 240.570312 47.800781 234.292969 46.960938 232.390625 C 45.496094 230.234375 45 217.167969 46.519531 209.65625 C 46.570312 209.40625 46.777344 209.21875 47.03125 209.199219 L 62.496094 207.859375 C 62.796875 207.832031 63.074219 208.058594 63.113281 208.363281 C 63.507812 211.683594 63.480469 214.75 63.460938 217.453125 C 63.429688 221.113281 63.40625 224.027344 64.441406 225.707031 C 68.265625 227.019531 72.5625 228.789062 76.722656 230.503906 C 85.84375 234.257812 95.28125 238.15625 100.917969 237.824219 C 103.105469 237.707031 106.636719 239.386719 108.515625 242.324219 C 110.25 245.035156 113.683594 246.652344 113.71875 246.671875 C 113.875 246.742188 113.992188 246.882812 114.03125 247.050781 C 114.074219 247.21875 114.039062 247.394531 113.933594 247.535156 C 112.21875 249.820312 109.742188 250.554688 107.269531 250.554688 " fill-opacity="1" fill-rule="nonzero"/><path fill="#000000" d="M 111.648438 248.023438 C 110.9375 248.023438 108.164062 247.765625 104.175781 244.144531 C 103.941406 243.933594 103.925781 243.570312 104.136719 243.335938 C 104.347656 243.101562 104.710938 243.085938 104.945312 243.296875 C 109.058594 247.03125 111.679688 246.878906 111.707031 246.878906 C 112.019531 246.847656 112.304688 247.074219 112.335938 247.390625 C 112.367188 247.703125 112.140625 247.988281 111.824219 248.019531 C 111.808594 248.019531 111.75 248.023438 111.648438 248.023438 " fill-opacity="1" fill-rule="nonzero"/><path fill="#000000" d="M 108.957031 249.425781 C 108.117188 249.425781 105.734375 249.128906 102.425781 246.253906 C 102.1875 246.050781 102.160156 245.6875 102.367188 245.449219 C 102.574219 245.207031 102.9375 245.183594 103.175781 245.390625 C 106.796875 248.539062 109.089844 248.277344 109.113281 248.273438 C 109.425781 248.230469 109.714844 248.449219 109.757812 248.761719 C 109.800781 249.070312 109.59375 249.359375 109.285156 249.40625 C 109.261719 249.410156 109.152344 249.425781 108.957031 249.425781 " fill-opacity="1" fill-rule="nonzero"/><path fill="#ffffff" d="M 45.144531 215.320312 C 45.042969 215.328125 44.953125 215.246094 44.960938 215.140625 C 45.070312 213.390625 45.902344 200.304688 47.082031 195.03125 C 49.742188 183.125 66.171875 183.105469 66.171875 183.105469 C 63.148438 193.308594 62.171875 203.089844 63.128906 212.476562 C 63.1875 213.054688 62.773438 213.570312 62.195312 213.625 L 45.144531 215.320312 " fill-opacity="1" fill-rule="nonzero"/><path fill="#000000" d="M 65.398438 183.710938 C 62.167969 183.902344 49.847656 185.289062 47.640625 195.15625 C 46.546875 200.042969 45.742188 211.875 45.5625 214.703125 L 62.140625 213.058594 C 62.261719 213.046875 62.375 212.984375 62.453125 212.886719 C 62.535156 212.789062 62.570312 212.664062 62.558594 212.535156 C 61.613281 203.277344 62.570312 193.582031 65.398438 183.710938 Z M 45.089844 214.75 Z M 45.128906 215.894531 C 44.9375 215.894531 44.753906 215.820312 44.613281 215.683594 C 44.457031 215.535156 44.375 215.324219 44.390625 215.109375 C 44.480469 213.601562 45.328125 200.246094 46.523438 194.90625 C 49.253906 182.695312 66 182.535156 66.171875 182.535156 L 66.9375 182.535156 L 66.71875 183.269531 C 63.761719 193.261719 62.742188 203.070312 63.699219 212.417969 C 63.742188 212.851562 63.617188 213.277344 63.339844 213.613281 C 63.066406 213.949219 62.679688 214.152344 62.253906 214.195312 L 45.203125 215.890625 C 45.175781 215.890625 45.152344 215.894531 45.128906 215.894531 " fill-opacity="1" fill-rule="nonzero"/><path fill="#ffffff" d="M 93.796875 336.070312 L 75.914062 261.867188 L 58.035156 336.070312 L 53.75 336.070312 L 73.394531 253.941406 L 78.433594 253.933594 L 98.082031 336.070312 L 93.796875 336.070312 " fill-opacity="1" fill-rule="nonzero"/><path fill="#000000" d="M 94.246094 335.496094 L 97.355469 335.496094 L 77.984375 254.507812 L 73.847656 254.511719 L 54.476562 335.496094 L 57.585938 335.496094 L 75.914062 259.425781 Z M 98.808594 336.640625 L 93.34375 336.640625 L 93.238281 336.203125 L 75.914062 264.3125 L 58.488281 336.640625 L 53.023438 336.640625 L 72.941406 253.371094 L 78.886719 253.359375 L 78.992188 253.800781 L 98.808594 336.640625 " fill-opacity="1" fill-rule="nonzero"/><path fill="#ffffff" d="M 195.359375 335.816406 L 177.476562 261.613281 L 159.597656 335.816406 L 155.3125 335.816406 L 174.960938 253.6875 L 180 253.679688 L 199.644531 335.816406 L 195.359375 335.816406 " fill-opacity="1" fill-rule="nonzero"/><path fill="#000000" d="M 195.808594 335.242188 L 198.917969 335.242188 L 179.546875 254.253906 L 175.410156 254.257812 L 156.039062 335.242188 L 159.148438 335.242188 L 177.476562 259.167969 Z M 200.371094 336.386719 L 194.90625 336.386719 L 194.800781 335.949219 L 177.476562 264.058594 L 160.050781 336.386719 L 154.585938 336.386719 L 174.507812 253.113281 L 180.449219 253.105469 L 180.554688 253.546875 L 200.371094 336.386719 " fill-opacity="1" fill-rule="nonzero"/><path fill="#ffffff" d="M 56.710938 255.367188 L 197.742188 255.367188 L 197.742188 248.65625 L 56.710938 248.65625 L 56.710938 255.367188 " fill-opacity="1" fill-rule="nonzero"/><path fill="#000000" d="M 57.285156 254.792969 L 197.167969 254.792969 L 197.167969 249.230469 L 57.285156 249.230469 Z M 198.3125 255.941406 L 56.140625 255.941406 L 56.140625 248.085938 L 198.3125 248.085938 L 198.3125 255.941406 " fill-opacity="1" fill-rule="nonzero"/><path fill="#ea803e" d="M 99.414062 254.363281 C 99.097656 254.363281 98.839844 254.105469 98.839844 253.789062 L 98.839844 250.054688 C 98.839844 249.738281 99.097656 249.480469 99.414062 249.480469 C 99.730469 249.480469 99.988281 249.738281 99.988281 250.054688 L 99.988281 253.789062 C 99.988281 254.105469 99.730469 254.363281 99.414062 254.363281 " fill-opacity="1" fill-rule="nonzero"/><path fill="#000000" d="M 287.953125 112.824219 L 290.53125 119.675781 L 298.46875 117.027344 Z M 290.1875 120.964844 C 289.957031 120.964844 289.738281 120.824219 289.652344 120.59375 L 286.421875 112.011719 C 286.34375 111.796875 286.394531 111.558594 286.558594 111.398438 C 286.722656 111.242188 286.960938 111.191406 287.171875 111.277344 L 300.34375 116.542969 C 300.570312 116.632812 300.714844 116.851562 300.707031 117.09375 C 300.699219 117.332031 300.542969 117.542969 300.316406 117.617188 L 290.371094 120.9375 C 290.308594 120.957031 290.25 120.964844 290.1875 120.964844 " fill-opacity="1" fill-rule="nonzero"/><path fill="#000000" d="M 283.589844 94.683594 C 283.390625 94.683594 283.195312 94.578125 283.089844 94.390625 C 282.9375 94.113281 283.039062 93.765625 283.316406 93.609375 L 329.492188 68.058594 C 329.769531 67.90625 330.117188 68.007812 330.273438 68.28125 C 330.425781 68.558594 330.324219 68.90625 330.050781 69.0625 L 283.871094 94.613281 C 283.78125 94.660156 283.6875 94.683594 283.589844 94.683594 " fill-opacity="1" fill-rule="nonzero"/><path fill="#000000" d="M 278.140625 86.175781 C 278.023438 86.175781 277.902344 86.136719 277.800781 86.058594 C 277.542969 85.871094 277.492188 85.511719 277.683594 85.257812 L 300.4375 54.8125 C 300.628906 54.558594 300.984375 54.503906 301.242188 54.695312 C 301.492188 54.882812 301.542969 55.242188 301.355469 55.496094 L 278.601562 85.945312 C 278.488281 86.09375 278.316406 86.175781 278.140625 86.175781 " fill-opacity="1" fill-rule="nonzero"/><path fill="#000000" d="M 270.835938 81.617188 C 270.660156 81.617188 270.484375 81.535156 270.375 81.382812 C 269.25 79.835938 268.867188 78.453125 269.234375 77.265625 C 269.503906 76.40625 270.058594 75.996094 270.546875 75.640625 C 270.929688 75.359375 271.257812 75.117188 271.480469 74.660156 C 271.910156 73.78125 271.511719 72.925781 271.046875 71.929688 C 270.578125 70.921875 270.042969 69.777344 270.421875 68.484375 C 270.878906 66.910156 272.320312 66.359375 273.589844 65.875 C 274.738281 65.433594 275.828125 65.019531 276.277344 63.953125 C 276.785156 62.738281 276.125 61.460938 275.421875 60.109375 C 274.664062 58.648438 273.804688 56.992188 274.546875 55.277344 C 275.171875 53.84375 276.5 53.289062 277.675781 52.792969 C 278.691406 52.367188 279.574219 52 279.835938 51.167969 C 280.210938 49.980469 279.242188 48.226562 277.023438 46.097656 C 276.796875 45.878906 276.785156 45.515625 277.007812 45.289062 C 277.226562 45.058594 277.589844 45.054688 277.816406 45.273438 C 280.441406 47.792969 281.460938 49.835938 280.925781 51.515625 C 280.503906 52.851562 279.289062 53.359375 278.117188 53.851562 C 277.046875 54.300781 276.039062 54.722656 275.597656 55.734375 C 275.070312 56.949219 275.738281 58.226562 276.4375 59.582031 C 277.195312 61.035156 278.050781 62.683594 277.332031 64.398438 C 276.695312 65.914062 275.261719 66.460938 274 66.945312 C 272.832031 67.390625 271.820312 67.777344 271.519531 68.804688 C 271.265625 69.683594 271.664062 70.542969 272.085938 71.449219 C 272.597656 72.546875 273.179688 73.792969 272.511719 75.15625 C 272.167969 75.875 271.664062 76.242188 271.226562 76.5625 C 270.792969 76.878906 270.484375 77.105469 270.328125 77.609375 C 270.074219 78.429688 270.402344 79.472656 271.300781 80.707031 C 271.488281 80.964844 271.429688 81.320312 271.171875 81.507812 C 271.074219 81.582031 270.957031 81.617188 270.835938 81.617188 " fill-opacity="1" fill-rule="nonzero"/><path fill="#000000" d="M 212.332031 317.046875 C 212.03125 317.046875 211.777344 316.816406 211.761719 316.511719 C 211.738281 316.195312 211.980469 315.925781 212.296875 315.902344 C 224.429688 315.164062 236.40625 312.601562 247.898438 308.296875 C 255.085938 305.605469 262.027344 302.242188 268.535156 298.300781 C 268.804688 298.136719 269.15625 298.226562 269.320312 298.496094 C 269.484375 298.765625 269.398438 299.117188 269.128906 299.28125 C 262.5625 303.257812 255.554688 306.652344 248.300781 309.367188 C 236.703125 313.714844 224.613281 316.296875 212.367188 317.046875 C 212.355469 317.046875 212.34375 317.046875 212.332031 317.046875 " fill-opacity="1" fill-rule="nonzero"/><path fill="#000000" d="M 213.980469 322.808594 C 211.75 322.808594 209.515625 322.75 207.273438 322.636719 C 206.960938 322.617188 206.71875 322.351562 206.730469 322.035156 C 206.75 321.71875 207.003906 321.480469 207.332031 321.492188 C 223.355469 322.3125 239.242188 320.160156 254.550781 315.09375 C 263.300781 312.199219 271.734375 308.375 279.617188 303.730469 C 279.886719 303.570312 280.238281 303.664062 280.398438 303.933594 C 280.5625 304.207031 280.46875 304.558594 280.199219 304.71875 C 272.246094 309.402344 263.738281 313.261719 254.910156 316.183594 C 241.605469 320.585938 227.867188 322.808594 213.980469 322.808594 " fill-opacity="1" fill-rule="nonzero"/><path fill="#000000" d="M 284.105469 304.59375 C 284.09375 304.59375 284.078125 304.589844 284.066406 304.589844 C 283.75 304.570312 283.511719 304.296875 283.535156 303.980469 C 283.652344 302.335938 284.171875 301.207031 285.085938 300.621094 C 285.753906 300.195312 286.375 300.234375 286.875 300.269531 C 287.265625 300.296875 287.601562 300.316406 287.976562 300.152344 C 288.660156 299.847656 288.863281 299.214844 289.136719 298.203125 C 289.386719 297.277344 289.671875 296.226562 290.648438 295.578125 C 291.839844 294.785156 293.097656 295.21875 294.207031 295.605469 C 295.175781 295.941406 296.089844 296.261719 296.929688 295.832031 C 297.890625 295.339844 298.152344 294.171875 298.429688 292.929688 C 298.742188 291.550781 299.09375 289.984375 300.546875 289.261719 C 301.765625 288.65625 302.953125 289.03125 304 289.355469 C 304.871094 289.628906 305.621094 289.863281 306.214844 289.492188 C 307.078125 288.945312 307.390625 287.304688 307.121094 284.75 C 307.089844 284.433594 307.316406 284.152344 307.628906 284.121094 C 307.945312 284.085938 308.226562 284.3125 308.261719 284.628906 C 308.589844 287.734375 308.121094 289.644531 306.824219 290.460938 C 305.785156 291.113281 304.652344 290.761719 303.65625 290.449219 C 302.734375 290.160156 301.867188 289.886719 301.058594 290.289062 C 300.09375 290.769531 299.824219 291.941406 299.546875 293.183594 C 299.238281 294.558594 298.886719 296.117188 297.449219 296.851562 C 296.175781 297.5 294.929688 297.070312 293.832031 296.6875 C 292.851562 296.347656 292.003906 296.054688 291.285156 296.53125 C 290.664062 296.941406 290.457031 297.699219 290.242188 298.503906 C 289.96875 299.511719 289.660156 300.660156 288.445312 301.199219 C 287.804688 301.480469 287.246094 301.441406 286.796875 301.414062 C 286.363281 301.382812 286.054688 301.363281 285.703125 301.585938 C 285.113281 301.964844 284.769531 302.796875 284.679688 304.0625 C 284.65625 304.359375 284.40625 304.59375 284.105469 304.59375 " fill-opacity="1" fill-rule="nonzero"/><path fill="#000000" d="M 90.734375 87.464844 C 90.605469 87.464844 90.472656 87.421875 90.363281 87.328125 C 90.125 87.125 90.09375 86.761719 90.296875 86.523438 C 110.1875 63.140625 132.695312 47.875 157.199219 41.148438 C 157.503906 41.0625 157.820312 41.242188 157.902344 41.546875 C 157.988281 41.855469 157.808594 42.167969 157.503906 42.253906 C 133.222656 48.917969 110.90625 64.0625 91.171875 87.265625 C 91.058594 87.394531 90.898438 87.464844 90.734375 87.464844 " fill-opacity="1" fill-rule="nonzero"/><path fill="#000000" d="M 47.101562 136.425781 C 47.042969 136.425781 46.984375 136.417969 46.925781 136.398438 C 46.625 136.300781 46.457031 135.976562 46.554688 135.675781 C 51.421875 120.6875 58.835938 106.363281 68.585938 93.101562 C 77.855469 80.496094 89.003906 69.148438 101.71875 59.371094 C 126.808594 40.082031 156.070312 28.410156 184.109375 26.5 C 185.046875 26.4375 186.085938 26.382812 187.191406 26.339844 C 187.507812 26.335938 187.773438 26.574219 187.785156 26.890625 C 187.796875 27.207031 187.550781 27.46875 187.234375 27.484375 C 186.140625 27.527344 185.117188 27.582031 184.1875 27.644531 C 125.101562 31.664062 66.402344 78.257812 47.644531 136.03125 C 47.566406 136.273438 47.34375 136.425781 47.101562 136.425781 " fill-opacity="1" fill-rule="nonzero"/><path fill="#000000" d="M 70.054688 116.378906 C 69.761719 116.378906 69.511719 116.152344 69.484375 115.855469 C 69.457031 115.542969 69.691406 115.261719 70.003906 115.234375 C 71.910156 115.0625 73.082031 114.5625 73.484375 113.75 C 73.882812 112.9375 73.429688 111.882812 72.992188 110.859375 C 72.5 109.707031 71.988281 108.511719 72.652344 107.507812 C 73.328125 106.488281 74.671875 106.527344 75.855469 106.558594 C 76.898438 106.585938 77.878906 106.613281 78.308594 106.042969 C 78.808594 105.382812 78.390625 104.152344 77.988281 102.960938 C 77.53125 101.617188 77.0625 100.222656 77.921875 99.347656 C 78.585938 98.675781 79.511719 98.855469 80.328125 99.015625 C 81.070312 99.15625 81.769531 99.289062 82.28125 98.902344 C 82.769531 98.53125 82.808594 97.914062 82.839844 96.851562 C 82.867188 95.96875 82.902344 94.867188 83.390625 93.753906 C 84.257812 91.773438 86.320312 90.296875 89.523438 89.363281 C 89.824219 89.277344 90.144531 89.449219 90.230469 89.753906 C 90.320312 90.058594 90.144531 90.375 89.839844 90.464844 C 86.980469 91.296875 85.164062 92.554688 84.4375 94.210938 C 84.039062 95.125 84.011719 96.019531 83.988281 96.886719 C 83.953125 97.972656 83.921875 99.09375 82.976562 99.8125 C 82.054688 100.511719 80.980469 100.304688 80.113281 100.140625 C 79.402344 100.003906 78.953125 99.933594 78.738281 100.152344 C 78.371094 100.523438 78.746094 101.625 79.074219 102.59375 C 79.546875 104 80.085938 105.589844 79.222656 106.734375 C 78.4375 107.773438 77.050781 107.734375 75.824219 107.703125 C 74.851562 107.675781 73.933594 107.652344 73.609375 108.140625 C 73.28125 108.628906 73.652344 109.496094 74.046875 110.40625 C 74.558594 111.609375 75.144531 112.972656 74.511719 114.257812 C 73.921875 115.449219 72.441406 116.164062 70.109375 116.375 C 70.089844 116.378906 70.074219 116.378906 70.054688 116.378906 " fill-opacity="1" fill-rule="nonzero"/><path fill="#000000" d="M 65.058594 140.601562 C 64.742188 140.601562 64.488281 140.34375 64.488281 140.027344 L 64.488281 137.070312 C 64.488281 136.753906 64.742188 136.496094 65.058594 136.496094 C 65.375 136.496094 65.632812 136.753906 65.632812 137.070312 L 65.632812 140.027344 C 65.632812 140.34375 65.375 140.601562 65.058594 140.601562 " fill-opacity="1" fill-rule="nonzero"/><path fill="#000000" d="M 65.058594 147.5 C 64.742188 147.5 64.488281 147.242188 64.488281 146.925781 L 64.488281 143.964844 C 64.488281 143.648438 64.742188 143.394531 65.058594 143.394531 C 65.375 143.394531 65.632812 143.648438 65.632812 143.964844 L 65.632812 146.925781 C 65.632812 147.242188 65.375 147.5 65.058594 147.5 " fill-opacity="1" fill-rule="nonzero"/><path fill="#000000" d="M 63.089844 142.570312 L 60.128906 142.570312 C 59.8125 142.570312 59.558594 142.3125 59.558594 141.996094 C 59.558594 141.679688 59.8125 141.425781 60.128906 141.425781 L 63.089844 141.425781 C 63.40625 141.425781 63.664062 141.679688 63.664062 141.996094 C 63.664062 142.3125 63.40625 142.570312 63.089844 142.570312 " fill-opacity="1" fill-rule="nonzero"/><path fill="#000000" d="M 69.988281 142.570312 L 67.027344 142.570312 C 66.710938 142.570312 66.453125 142.3125 66.453125 141.996094 C 66.453125 141.679688 66.710938 141.425781 67.027344 141.425781 L 69.988281 141.425781 C 70.304688 141.425781 70.5625 141.679688 70.5625 141.996094 C 70.5625 142.3125 70.304688 142.570312 69.988281 142.570312 " fill-opacity="1" fill-rule="nonzero"/></svg>